<?xml version="1.0" encoding="utf-8" standalone="no"?>
<!DOCTYPE svg PUBLIC "-//W3C//DTD SVG 1.1//EN"
  "http://www.w3.org/Graphics/SVG/1.1/DTD/svg11.dtd">
<svg xmlns:xlink="http://www.w3.org/1999/xlink" width="425.99952pt" height="281.99952pt" viewBox="0 0 425.99952 281.99952" xmlns="http://www.w3.org/2000/svg" version="1.1">
 <metadata>
  <rdf:RDF xmlns:dc="http://purl.org/dc/elements/1.1/" xmlns:cc="http://creativecommons.org/ns#" xmlns:rdf="http://www.w3.org/1999/02/22-rdf-syntax-ns#">
   <cc:Work>
    <dc:type rdf:resource="http://purl.org/dc/dcmitype/StillImage"/>
    <dc:date>2026-06-04T21:48:19.584508</dc:date>
    <dc:format>image/svg+xml</dc:format>
    <dc:creator>
     <cc:Agent>
      <dc:title>Matplotlib v3.10.0, https://matplotlib.org/</dc:title>
     </cc:Agent>
    </dc:creator>
   </cc:Work>
  </rdf:RDF>
 </metadata>
 <defs>
  <style type="text/css">*{stroke-linejoin: round; stroke-linecap: butt}</style>
 </defs>
 <g id="figure_1">
  <g id="patch_1">
   <path d="M 0 281.99952 
L 425.99952 281.99952 
L 425.99952 0 
L 0 0 
z
" style="fill: #ffffff"/>
  </g>
  <g id="axes_1">
   <g id="patch_2">
    <path d="M 57.205469 246.484051 
L 418.79952 246.484051 
L 418.79952 7.2 
L 57.205469 7.2 
z
" style="fill: #ffffff"/>
   </g>
   <g id="matplotlib.axis_1">
    <g id="xtick_1">
     <g id="line2d_1">
      <path d="M 57.205469 246.484051 
L 57.205469 7.2 
" clip-path="url(#p0b20da2097)" style="fill: none; stroke: #e6e6e6; stroke-opacity: 0.55; stroke-width: 0.35; stroke-linecap: square"/>
     </g>
     <g id="line2d_2">
      <defs>
       <path id="mba0bde8628" d="M 0 0 
L 0 3 
" style="stroke: #000000; stroke-width: 0.8"/>
      </defs>
      <g>
       <use xlink:href="#mba0bde8628" x="57.205469" y="246.484051" style="stroke: #000000; stroke-width: 0.8"/>
      </g>
     </g>
     <g id="text_1">
      <text style="font-size: 8px; font-family: 'Microsoft YaHei', 'Arial', 'DejaVu Sans', sans-serif; text-anchor: middle" x="57.205469" y="259.379051" transform="rotate(-0 57.205469 259.379051)">0</text>
     </g>
    </g>
    <g id="xtick_2">
     <g id="line2d_3">
      <path d="M 110.044024 246.484051 
L 110.044024 7.2 
" clip-path="url(#p0b20da2097)" style="fill: none; stroke: #e6e6e6; stroke-opacity: 0.55; stroke-width: 0.35; stroke-linecap: square"/>
     </g>
     <g id="line2d_4">
      <g>
       <use xlink:href="#mba0bde8628" x="110.044024" y="246.484051" style="stroke: #000000; stroke-width: 0.8"/>
      </g>
     </g>
     <g id="text_2">
      <text style="font-size: 8px; font-family: 'Microsoft YaHei', 'Arial', 'DejaVu Sans', sans-serif; text-anchor: middle" x="110.044024" y="259.379051" transform="rotate(-0 110.044024 259.379051)">10000</text>
     </g>
    </g>
    <g id="xtick_3">
     <g id="line2d_5">
      <path d="M 162.88258 246.484051 
L 162.88258 7.2 
" clip-path="url(#p0b20da2097)" style="fill: none; stroke: #e6e6e6; stroke-opacity: 0.55; stroke-width: 0.35; stroke-linecap: square"/>
     </g>
     <g id="line2d_6">
      <g>
       <use xlink:href="#mba0bde8628" x="162.88258" y="246.484051" style="stroke: #000000; stroke-width: 0.8"/>
      </g>
     </g>
     <g id="text_3">
      <text style="font-size: 8px; font-family: 'Microsoft YaHei', 'Arial', 'DejaVu Sans', sans-serif; text-anchor: middle" x="162.88258" y="259.379051" transform="rotate(-0 162.88258 259.379051)">20000</text>
     </g>
    </g>
    <g id="xtick_4">
     <g id="line2d_7">
      <path d="M 215.721136 246.484051 
L 215.721136 7.2 
" clip-path="url(#p0b20da2097)" style="fill: none; stroke: #e6e6e6; stroke-opacity: 0.55; stroke-width: 0.35; stroke-linecap: square"/>
     </g>
     <g id="line2d_8">
      <g>
       <use xlink:href="#mba0bde8628" x="215.721136" y="246.484051" style="stroke: #000000; stroke-width: 0.8"/>
      </g>
     </g>
     <g id="text_4">
      <text style="font-size: 8px; font-family: 'Microsoft YaHei', 'Arial', 'DejaVu Sans', sans-serif; text-anchor: middle" x="215.721136" y="259.379051" transform="rotate(-0 215.721136 259.379051)">30000</text>
     </g>
    </g>
    <g id="xtick_5">
     <g id="line2d_9">
      <path d="M 268.559692 246.484051 
L 268.559692 7.2 
" clip-path="url(#p0b20da2097)" style="fill: none; stroke: #e6e6e6; stroke-opacity: 0.55; stroke-width: 0.35; stroke-linecap: square"/>
     </g>
     <g id="line2d_10">
      <g>
       <use xlink:href="#mba0bde8628" x="268.559692" y="246.484051" style="stroke: #000000; stroke-width: 0.8"/>
      </g>
     </g>
     <g id="text_5">
      <text style="font-size: 8px; font-family: 'Microsoft YaHei', 'Arial', 'DejaVu Sans', sans-serif; text-anchor: middle" x="268.559692" y="259.379051" transform="rotate(-0 268.559692 259.379051)">40000</text>
     </g>
    </g>
    <g id="xtick_6">
     <g id="line2d_11">
      <path d="M 321.398247 246.484051 
L 321.398247 7.2 
" clip-path="url(#p0b20da2097)" style="fill: none; stroke: #e6e6e6; stroke-opacity: 0.55; stroke-width: 0.35; stroke-linecap: square"/>
     </g>
     <g id="line2d_12">
      <g>
       <use xlink:href="#mba0bde8628" x="321.398247" y="246.484051" style="stroke: #000000; stroke-width: 0.8"/>
      </g>
     </g>
     <g id="text_6">
      <text style="font-size: 8px; font-family: 'Microsoft YaHei', 'Arial', 'DejaVu Sans', sans-serif; text-anchor: middle" x="321.398247" y="259.379051" transform="rotate(-0 321.398247 259.379051)">50000</text>
     </g>
    </g>
    <g id="xtick_7">
     <g id="line2d_13">
      <path d="M 374.236803 246.484051 
L 374.236803 7.2 
" clip-path="url(#p0b20da2097)" style="fill: none; stroke: #e6e6e6; stroke-opacity: 0.55; stroke-width: 0.35; stroke-linecap: square"/>
     </g>
     <g id="line2d_14">
      <g>
       <use xlink:href="#mba0bde8628" x="374.236803" y="246.484051" style="stroke: #000000; stroke-width: 0.8"/>
      </g>
     </g>
     <g id="text_7">
      <text style="font-size: 8px; font-family: 'Microsoft YaHei', 'Arial', 'DejaVu Sans', sans-serif; text-anchor: middle" x="374.236803" y="259.379051" transform="rotate(-0 374.236803 259.379051)">60000</text>
     </g>
    </g>
    <g id="text_8">
     <!-- 停时 $\tau$（代） -->
     <g transform="translate(211.452494 272.562176)">
      <text>
       <tspan x="0" y="-0.453125" style="font-size: 9px; font-family: 'Microsoft YaHei'">停</tspan>
       <tspan x="9" y="-0.453125" style="font-size: 9px; font-family: 'Microsoft YaHei'">时</tspan>
       <tspan x="18" y="-0.453125" style="font-size: 9px; font-family: 'Microsoft YaHei'"> </tspan>
       <tspan x="26.081543" y="-0.453125" style="font-size: 9px; font-family: 'Microsoft YaHei'">（</tspan>
       <tspan x="35.081543" y="-0.453125" style="font-size: 9px; font-family: 'Microsoft YaHei'">代</tspan>
       <tspan x="44.081543" y="-0.453125" style="font-size: 9px; font-family: 'Microsoft YaHei'">）</tspan>
       <tspan x="20.663086" y="-0.453125" style="font-style: oblique; font-size: 9px; font-family: 'DejaVu Sans'">τ</tspan>
      </text>
     </g>
    </g>
   </g>
   <g id="matplotlib.axis_2">
    <g id="ytick_1">
     <g id="line2d_15">
      <path d="M 57.205469 246.484051 
L 418.79952 246.484051 
" clip-path="url(#p0b20da2097)" style="fill: none; stroke: #e6e6e6; stroke-opacity: 0.55; stroke-width: 0.35; stroke-linecap: square"/>
     </g>
     <g id="line2d_16">
      <defs>
       <path id="m435e5f1f66" d="M 0 0 
L -3 0 
" style="stroke: #000000; stroke-width: 0.8"/>
      </defs>
      <g>
       <use xlink:href="#m435e5f1f66" x="57.205469" y="246.484051" style="stroke: #000000; stroke-width: 0.8"/>
      </g>
     </g>
     <g id="text_9">
      <text style="font-size: 8px; font-family: 'Microsoft YaHei', 'Arial', 'DejaVu Sans', sans-serif; text-anchor: end" x="50.705469" y="249.681551" transform="rotate(-0 50.705469 249.681551)">0.00000</text>
     </g>
    </g>
    <g id="ytick_2">
     <g id="line2d_17">
      <path d="M 57.205469 214.96114 
L 418.79952 214.96114 
" clip-path="url(#p0b20da2097)" style="fill: none; stroke: #e6e6e6; stroke-opacity: 0.55; stroke-width: 0.35; stroke-linecap: square"/>
     </g>
     <g id="line2d_18">
      <g>
       <use xlink:href="#m435e5f1f66" x="57.205469" y="214.96114" style="stroke: #000000; stroke-width: 0.8"/>
      </g>
     </g>
     <g id="text_10">
      <text style="font-size: 8px; font-family: 'Microsoft YaHei', 'Arial', 'DejaVu Sans', sans-serif; text-anchor: end" x="50.705469" y="218.15864" transform="rotate(-0 50.705469 218.15864)">0.00002</text>
     </g>
    </g>
    <g id="ytick_3">
     <g id="line2d_19">
      <path d="M 57.205469 183.438228 
L 418.79952 183.438228 
" clip-path="url(#p0b20da2097)" style="fill: none; stroke: #e6e6e6; stroke-opacity: 0.55; stroke-width: 0.35; stroke-linecap: square"/>
     </g>
     <g id="line2d_20">
      <g>
       <use xlink:href="#m435e5f1f66" x="57.205469" y="183.438228" style="stroke: #000000; stroke-width: 0.8"/>
      </g>
     </g>
     <g id="text_11">
      <text style="font-size: 8px; font-family: 'Microsoft YaHei', 'Arial', 'DejaVu Sans', sans-serif; text-anchor: end" x="50.705469" y="186.635728" transform="rotate(-0 50.705469 186.635728)">0.00004</text>
     </g>
    </g>
    <g id="ytick_4">
     <g id="line2d_21">
      <path d="M 57.205469 151.915317 
L 418.79952 151.915317 
" clip-path="url(#p0b20da2097)" style="fill: none; stroke: #e6e6e6; stroke-opacity: 0.55; stroke-width: 0.35; stroke-linecap: square"/>
     </g>
     <g id="line2d_22">
      <g>
       <use xlink:href="#m435e5f1f66" x="57.205469" y="151.915317" style="stroke: #000000; stroke-width: 0.8"/>
      </g>
     </g>
     <g id="text_12">
      <text style="font-size: 8px; font-family: 'Microsoft YaHei', 'Arial', 'DejaVu Sans', sans-serif; text-anchor: end" x="50.705469" y="155.112817" transform="rotate(-0 50.705469 155.112817)">0.00006</text>
     </g>
    </g>
    <g id="ytick_5">
     <g id="line2d_23">
      <path d="M 57.205469 120.392405 
L 418.79952 120.392405 
" clip-path="url(#p0b20da2097)" style="fill: none; stroke: #e6e6e6; stroke-opacity: 0.55; stroke-width: 0.35; stroke-linecap: square"/>
     </g>
     <g id="line2d_24">
      <g>
       <use xlink:href="#m435e5f1f66" x="57.205469" y="120.392405" style="stroke: #000000; stroke-width: 0.8"/>
      </g>
     </g>
     <g id="text_13">
      <text style="font-size: 8px; font-family: 'Microsoft YaHei', 'Arial', 'DejaVu Sans', sans-serif; text-anchor: end" x="50.705469" y="123.589905" transform="rotate(-0 50.705469 123.589905)">0.00008</text>
     </g>
    </g>
    <g id="ytick_6">
     <g id="line2d_25">
      <path d="M 57.205469 88.869494 
L 418.79952 88.869494 
" clip-path="url(#p0b20da2097)" style="fill: none; stroke: #e6e6e6; stroke-opacity: 0.55; stroke-width: 0.35; stroke-linecap: square"/>
     </g>
     <g id="line2d_26">
      <g>
       <use xlink:href="#m435e5f1f66" x="57.205469" y="88.869494" style="stroke: #000000; stroke-width: 0.8"/>
      </g>
     </g>
     <g id="text_14">
      <text style="font-size: 8px; font-family: 'Microsoft YaHei', 'Arial', 'DejaVu Sans', sans-serif; text-anchor: end" x="50.705469" y="92.066994" transform="rotate(-0 50.705469 92.066994)">0.00010</text>
     </g>
    </g>
    <g id="ytick_7">
     <g id="line2d_27">
      <path d="M 57.205469 57.346582 
L 418.79952 57.346582 
" clip-path="url(#p0b20da2097)" style="fill: none; stroke: #e6e6e6; stroke-opacity: 0.55; stroke-width: 0.35; stroke-linecap: square"/>
     </g>
     <g id="line2d_28">
      <g>
       <use xlink:href="#m435e5f1f66" x="57.205469" y="57.346582" style="stroke: #000000; stroke-width: 0.8"/>
      </g>
     </g>
     <g id="text_15">
      <text style="font-size: 8px; font-family: 'Microsoft YaHei', 'Arial', 'DejaVu Sans', sans-serif; text-anchor: end" x="50.705469" y="60.544082" transform="rotate(-0 50.705469 60.544082)">0.00012</text>
     </g>
    </g>
    <g id="ytick_8">
     <g id="line2d_29">
      <path d="M 57.205469 25.823671 
L 418.79952 25.823671 
" clip-path="url(#p0b20da2097)" style="fill: none; stroke: #e6e6e6; stroke-opacity: 0.55; stroke-width: 0.35; stroke-linecap: square"/>
     </g>
     <g id="line2d_30">
      <g>
       <use xlink:href="#m435e5f1f66" x="57.205469" y="25.823671" style="stroke: #000000; stroke-width: 0.8"/>
      </g>
     </g>
     <g id="text_16">
      <text style="font-size: 8px; font-family: 'Microsoft YaHei', 'Arial', 'DejaVu Sans', sans-serif; text-anchor: end" x="50.705469" y="29.021171" transform="rotate(-0 50.705469 29.021171)">0.00014</text>
     </g>
    </g>
    <g id="text_17">
     <text style="font-size: 9px; font-family: 'Microsoft YaHei', 'Arial', 'DejaVu Sans', sans-serif; text-anchor: middle" x="14.394375" y="126.842026" transform="rotate(-90 14.394375 126.842026)">概率密度</text>
    </g>
   </g>
   <g id="patch_3">
    <path d="M 60.529014 246.484051 
L 64.792161 246.484051 
L 64.792161 196.864744 
L 60.529014 196.864744 
z
" clip-path="url(#p0b20da2097)" style="fill: #0f4d92; opacity: 0.5; stroke: #ffffff; stroke-width: 0.3; stroke-linejoin: miter"/>
   </g>
   <g id="patch_4">
    <path d="M 64.792161 246.484051 
L 69.055307 246.484051 
L 69.055307 83.756166 
L 64.792161 83.756166 
z
" clip-path="url(#p0b20da2097)" style="fill: #0f4d92; opacity: 0.5; stroke: #ffffff; stroke-width: 0.3; stroke-linejoin: miter"/>
   </g>
   <g id="patch_5">
    <path d="M 69.055307 246.484051 
L 73.318454 246.484051 
L 73.318454 32.964749 
L 69.055307 32.964749 
z
" clip-path="url(#p0b20da2097)" style="fill: #0f4d92; opacity: 0.5; stroke: #ffffff; stroke-width: 0.3; stroke-linejoin: miter"/>
   </g>
   <g id="patch_6">
    <path d="M 73.318454 246.484051 
L 77.581601 246.484051 
L 77.581601 29.44842 
L 73.318454 29.44842 
z
" clip-path="url(#p0b20da2097)" style="fill: #0f4d92; opacity: 0.5; stroke: #ffffff; stroke-width: 0.3; stroke-linejoin: miter"/>
   </g>
   <g id="patch_7">
    <path d="M 77.581601 246.484051 
L 81.844748 246.484051 
L 81.844748 51.718503 
L 77.581601 51.718503 
z
" clip-path="url(#p0b20da2097)" style="fill: #0f4d92; opacity: 0.5; stroke: #ffffff; stroke-width: 0.3; stroke-linejoin: miter"/>
   </g>
   <g id="patch_8">
    <path d="M 81.844748 246.484051 
L 86.107895 246.484051 
L 86.107895 78.286321 
L 81.844748 78.286321 
z
" clip-path="url(#p0b20da2097)" style="fill: #0f4d92; opacity: 0.5; stroke: #ffffff; stroke-width: 0.3; stroke-linejoin: miter"/>
   </g>
   <g id="patch_9">
    <path d="M 86.107895 246.484051 
L 90.371041 246.484051 
L 90.371041 109.151874 
L 86.107895 109.151874 
z
" clip-path="url(#p0b20da2097)" style="fill: #0f4d92; opacity: 0.5; stroke: #ffffff; stroke-width: 0.3; stroke-linejoin: miter"/>
   </g>
   <g id="patch_10">
    <path d="M 90.371041 246.484051 
L 94.634188 246.484051 
L 94.634188 122.240431 
L 90.371041 122.240431 
z
" clip-path="url(#p0b20da2097)" style="fill: #0f4d92; opacity: 0.5; stroke: #ffffff; stroke-width: 0.3; stroke-linejoin: miter"/>
   </g>
   <g id="patch_11">
    <path d="M 94.634188 246.484051 
L 98.897335 246.484051 
L 98.897335 142.947701 
L 94.634188 142.947701 
z
" clip-path="url(#p0b20da2097)" style="fill: #0f4d92; opacity: 0.5; stroke: #ffffff; stroke-width: 0.3; stroke-linejoin: miter"/>
   </g>
   <g id="patch_12">
    <path d="M 98.897335 246.484051 
L 103.160482 246.484051 
L 103.160482 157.013017 
L 98.897335 157.013017 
z
" clip-path="url(#p0b20da2097)" style="fill: #0f4d92; opacity: 0.5; stroke: #ffffff; stroke-width: 0.3; stroke-linejoin: miter"/>
   </g>
   <g id="patch_13">
    <path d="M 103.160482 246.484051 
L 107.423628 246.484051 
L 107.423628 178.501693 
L 103.160482 178.501693 
z
" clip-path="url(#p0b20da2097)" style="fill: #0f4d92; opacity: 0.5; stroke: #ffffff; stroke-width: 0.3; stroke-linejoin: miter"/>
   </g>
   <g id="patch_14">
    <path d="M 107.423628 246.484051 
L 111.686775 246.484051 
L 111.686775 183.385483 
L 107.423628 183.385483 
z
" clip-path="url(#p0b20da2097)" style="fill: #0f4d92; opacity: 0.5; stroke: #ffffff; stroke-width: 0.3; stroke-linejoin: miter"/>
   </g>
   <g id="patch_15">
    <path d="M 111.686775 246.484051 
L 115.949922 246.484051 
L 115.949922 190.418141 
L 111.686775 190.418141 
z
" clip-path="url(#p0b20da2097)" style="fill: #0f4d92; opacity: 0.5; stroke: #ffffff; stroke-width: 0.3; stroke-linejoin: miter"/>
   </g>
   <g id="patch_16">
    <path d="M 115.949922 246.484051 
L 120.213069 246.484051 
L 120.213069 200.576424 
L 115.949922 200.576424 
z
" clip-path="url(#p0b20da2097)" style="fill: #0f4d92; opacity: 0.5; stroke: #ffffff; stroke-width: 0.3; stroke-linejoin: miter"/>
   </g>
   <g id="patch_17">
    <path d="M 120.213069 246.484051 
L 124.476215 246.484051 
L 124.476215 206.046269 
L 120.213069 206.046269 
z
" clip-path="url(#p0b20da2097)" style="fill: #0f4d92; opacity: 0.5; stroke: #ffffff; stroke-width: 0.3; stroke-linejoin: miter"/>
   </g>
   <g id="patch_18">
    <path d="M 124.476215 246.484051 
L 128.739362 246.484051 
L 128.739362 215.813849 
L 124.476215 215.813849 
z
" clip-path="url(#p0b20da2097)" style="fill: #0f4d92; opacity: 0.5; stroke: #ffffff; stroke-width: 0.3; stroke-linejoin: miter"/>
   </g>
   <g id="patch_19">
    <path d="M 128.739362 246.484051 
L 133.002509 246.484051 
L 133.002509 216.204553 
L 128.739362 216.204553 
z
" clip-path="url(#p0b20da2097)" style="fill: #0f4d92; opacity: 0.5; stroke: #ffffff; stroke-width: 0.3; stroke-linejoin: miter"/>
   </g>
   <g id="patch_20">
    <path d="M 133.002509 246.484051 
L 137.265656 246.484051 
L 137.265656 224.40932 
L 133.002509 224.40932 
z
" clip-path="url(#p0b20da2097)" style="fill: #0f4d92; opacity: 0.5; stroke: #ffffff; stroke-width: 0.3; stroke-linejoin: miter"/>
   </g>
   <g id="patch_21">
    <path d="M 137.265656 246.484051 
L 141.528803 246.484051 
L 141.528803 226.948891 
L 137.265656 226.948891 
z
" clip-path="url(#p0b20da2097)" style="fill: #0f4d92; opacity: 0.5; stroke: #ffffff; stroke-width: 0.3; stroke-linejoin: miter"/>
   </g>
   <g id="patch_22">
    <path d="M 141.528803 246.484051 
L 145.791949 246.484051 
L 145.791949 230.46522 
L 141.528803 230.46522 
z
" clip-path="url(#p0b20da2097)" style="fill: #0f4d92; opacity: 0.5; stroke: #ffffff; stroke-width: 0.3; stroke-linejoin: miter"/>
   </g>
   <g id="patch_23">
    <path d="M 145.791949 246.484051 
L 150.055096 246.484051 
L 150.055096 230.269868 
L 145.791949 230.269868 
z
" clip-path="url(#p0b20da2097)" style="fill: #0f4d92; opacity: 0.5; stroke: #ffffff; stroke-width: 0.3; stroke-linejoin: miter"/>
   </g>
   <g id="patch_24">
    <path d="M 150.055096 246.484051 
L 154.318243 246.484051 
L 154.318243 233.590845 
L 150.055096 233.590845 
z
" clip-path="url(#p0b20da2097)" style="fill: #0f4d92; opacity: 0.5; stroke: #ffffff; stroke-width: 0.3; stroke-linejoin: miter"/>
   </g>
   <g id="patch_25">
    <path d="M 154.318243 246.484051 
L 158.58139 246.484051 
L 158.58139 237.302526 
L 154.318243 237.302526 
z
" clip-path="url(#p0b20da2097)" style="fill: #0f4d92; opacity: 0.5; stroke: #ffffff; stroke-width: 0.3; stroke-linejoin: miter"/>
   </g>
   <g id="patch_26">
    <path d="M 158.58139 246.484051 
L 162.844536 246.484051 
L 162.844536 235.153658 
L 158.58139 235.153658 
z
" clip-path="url(#p0b20da2097)" style="fill: #0f4d92; opacity: 0.5; stroke: #ffffff; stroke-width: 0.3; stroke-linejoin: miter"/>
   </g>
   <g id="patch_27">
    <path d="M 162.844536 246.484051 
L 167.107683 246.484051 
L 167.107683 238.669987 
L 162.844536 238.669987 
z
" clip-path="url(#p0b20da2097)" style="fill: #0f4d92; opacity: 0.5; stroke: #ffffff; stroke-width: 0.3; stroke-linejoin: miter"/>
   </g>
   <g id="patch_28">
    <path d="M 167.107683 246.484051 
L 171.37083 246.484051 
L 171.37083 240.037448 
L 167.107683 240.037448 
z
" clip-path="url(#p0b20da2097)" style="fill: #0f4d92; opacity: 0.5; stroke: #ffffff; stroke-width: 0.3; stroke-linejoin: miter"/>
   </g>
   <g id="patch_29">
    <path d="M 171.37083 246.484051 
L 175.633977 246.484051 
L 175.633977 240.818855 
L 171.37083 240.818855 
z
" clip-path="url(#p0b20da2097)" style="fill: #0f4d92; opacity: 0.5; stroke: #ffffff; stroke-width: 0.3; stroke-linejoin: miter"/>
   </g>
   <g id="patch_30">
    <path d="M 175.633977 246.484051 
L 179.897124 246.484051 
L 179.897124 241.600261 
L 175.633977 241.600261 
z
" clip-path="url(#p0b20da2097)" style="fill: #0f4d92; opacity: 0.5; stroke: #ffffff; stroke-width: 0.3; stroke-linejoin: miter"/>
   </g>
   <g id="patch_31">
    <path d="M 179.897124 246.484051 
L 184.16027 246.484051 
L 184.16027 242.577019 
L 179.897124 242.577019 
z
" clip-path="url(#p0b20da2097)" style="fill: #0f4d92; opacity: 0.5; stroke: #ffffff; stroke-width: 0.3; stroke-linejoin: miter"/>
   </g>
   <g id="patch_32">
    <path d="M 184.16027 246.484051 
L 188.423417 246.484051 
L 188.423417 242.967722 
L 184.16027 242.967722 
z
" clip-path="url(#p0b20da2097)" style="fill: #0f4d92; opacity: 0.5; stroke: #ffffff; stroke-width: 0.3; stroke-linejoin: miter"/>
   </g>
   <g id="patch_33">
    <path d="M 188.423417 246.484051 
L 192.686564 246.484051 
L 192.686564 244.335184 
L 188.423417 244.335184 
z
" clip-path="url(#p0b20da2097)" style="fill: #0f4d92; opacity: 0.5; stroke: #ffffff; stroke-width: 0.3; stroke-linejoin: miter"/>
   </g>
   <g id="patch_34">
    <path d="M 192.686564 246.484051 
L 196.949711 246.484051 
L 196.949711 243.163074 
L 192.686564 243.163074 
z
" clip-path="url(#p0b20da2097)" style="fill: #0f4d92; opacity: 0.5; stroke: #ffffff; stroke-width: 0.3; stroke-linejoin: miter"/>
   </g>
   <g id="patch_35">
    <path d="M 196.949711 246.484051 
L 201.212857 246.484051 
L 201.212857 245.311942 
L 196.949711 245.311942 
z
" clip-path="url(#p0b20da2097)" style="fill: #0f4d92; opacity: 0.5; stroke: #ffffff; stroke-width: 0.3; stroke-linejoin: miter"/>
   </g>
   <g id="patch_36">
    <path d="M 201.212857 246.484051 
L 205.476004 246.484051 
L 205.476004 244.335184 
L 201.212857 244.335184 
z
" clip-path="url(#p0b20da2097)" style="fill: #0f4d92; opacity: 0.5; stroke: #ffffff; stroke-width: 0.3; stroke-linejoin: miter"/>
   </g>
   <g id="patch_37">
    <path d="M 205.476004 246.484051 
L 209.739151 246.484051 
L 209.739151 244.725887 
L 205.476004 244.725887 
z
" clip-path="url(#p0b20da2097)" style="fill: #0f4d92; opacity: 0.5; stroke: #ffffff; stroke-width: 0.3; stroke-linejoin: miter"/>
   </g>
   <g id="patch_38">
    <path d="M 209.739151 246.484051 
L 214.002298 246.484051 
L 214.002298 245.897996 
L 209.739151 245.897996 
z
" clip-path="url(#p0b20da2097)" style="fill: #0f4d92; opacity: 0.5; stroke: #ffffff; stroke-width: 0.3; stroke-linejoin: miter"/>
   </g>
   <g id="patch_39">
    <path d="M 214.002298 246.484051 
L 218.265444 246.484051 
L 218.265444 245.311942 
L 214.002298 245.311942 
z
" clip-path="url(#p0b20da2097)" style="fill: #0f4d92; opacity: 0.5; stroke: #ffffff; stroke-width: 0.3; stroke-linejoin: miter"/>
   </g>
   <g id="patch_40">
    <path d="M 218.265444 246.484051 
L 222.528591 246.484051 
L 222.528591 245.702645 
L 218.265444 245.702645 
z
" clip-path="url(#p0b20da2097)" style="fill: #0f4d92; opacity: 0.5; stroke: #ffffff; stroke-width: 0.3; stroke-linejoin: miter"/>
   </g>
   <g id="patch_41">
    <path d="M 222.528591 246.484051 
L 226.791738 246.484051 
L 226.791738 245.507293 
L 222.528591 245.507293 
z
" clip-path="url(#p0b20da2097)" style="fill: #0f4d92; opacity: 0.5; stroke: #ffffff; stroke-width: 0.3; stroke-linejoin: miter"/>
   </g>
   <g id="patch_42">
    <path d="M 226.791738 246.484051 
L 231.054885 246.484051 
L 231.054885 245.897996 
L 226.791738 245.897996 
z
" clip-path="url(#p0b20da2097)" style="fill: #0f4d92; opacity: 0.5; stroke: #ffffff; stroke-width: 0.3; stroke-linejoin: miter"/>
   </g>
   <g id="patch_43">
    <path d="M 231.054885 246.484051 
L 235.318032 246.484051 
L 235.318032 246.2887 
L 231.054885 246.2887 
z
" clip-path="url(#p0b20da2097)" style="fill: #0f4d92; opacity: 0.5; stroke: #ffffff; stroke-width: 0.3; stroke-linejoin: miter"/>
   </g>
   <g id="patch_44">
    <path d="M 235.318032 246.484051 
L 239.581178 246.484051 
L 239.581178 245.897996 
L 235.318032 245.897996 
z
" clip-path="url(#p0b20da2097)" style="fill: #0f4d92; opacity: 0.5; stroke: #ffffff; stroke-width: 0.3; stroke-linejoin: miter"/>
   </g>
   <g id="patch_45">
    <path d="M 239.581178 246.484051 
L 243.844325 246.484051 
L 243.844325 246.2887 
L 239.581178 246.2887 
z
" clip-path="url(#p0b20da2097)" style="fill: #0f4d92; opacity: 0.5; stroke: #ffffff; stroke-width: 0.3; stroke-linejoin: miter"/>
   </g>
   <g id="patch_46">
    <path d="M 243.844325 246.484051 
L 248.107472 246.484051 
L 248.107472 246.093348 
L 243.844325 246.093348 
z
" clip-path="url(#p0b20da2097)" style="fill: #0f4d92; opacity: 0.5; stroke: #ffffff; stroke-width: 0.3; stroke-linejoin: miter"/>
   </g>
   <g id="patch_47">
    <path d="M 248.107472 246.484051 
L 252.370619 246.484051 
L 252.370619 246.093348 
L 248.107472 246.093348 
z
" clip-path="url(#p0b20da2097)" style="fill: #0f4d92; opacity: 0.5; stroke: #ffffff; stroke-width: 0.3; stroke-linejoin: miter"/>
   </g>
   <g id="patch_48">
    <path d="M 252.370619 246.484051 
L 256.633765 246.484051 
L 256.633765 246.093348 
L 252.370619 246.093348 
z
" clip-path="url(#p0b20da2097)" style="fill: #0f4d92; opacity: 0.5; stroke: #ffffff; stroke-width: 0.3; stroke-linejoin: miter"/>
   </g>
   <g id="patch_49">
    <path d="M 256.633765 246.484051 
L 260.896912 246.484051 
L 260.896912 246.093348 
L 256.633765 246.093348 
z
" clip-path="url(#p0b20da2097)" style="fill: #0f4d92; opacity: 0.5; stroke: #ffffff; stroke-width: 0.3; stroke-linejoin: miter"/>
   </g>
   <g id="patch_50">
    <path d="M 260.896912 246.484051 
L 265.160059 246.484051 
L 265.160059 246.2887 
L 260.896912 246.2887 
z
" clip-path="url(#p0b20da2097)" style="fill: #0f4d92; opacity: 0.5; stroke: #ffffff; stroke-width: 0.3; stroke-linejoin: miter"/>
   </g>
   <g id="patch_51">
    <path d="M 265.160059 246.484051 
L 269.423206 246.484051 
L 269.423206 246.484051 
L 265.160059 246.484051 
z
" clip-path="url(#p0b20da2097)" style="fill: #0f4d92; opacity: 0.5; stroke: #ffffff; stroke-width: 0.3; stroke-linejoin: miter"/>
   </g>
   <g id="patch_52">
    <path d="M 269.423206 246.484051 
L 273.686352 246.484051 
L 273.686352 246.2887 
L 269.423206 246.2887 
z
" clip-path="url(#p0b20da2097)" style="fill: #0f4d92; opacity: 0.5; stroke: #ffffff; stroke-width: 0.3; stroke-linejoin: miter"/>
   </g>
   <g id="patch_53">
    <path d="M 273.686352 246.484051 
L 277.949499 246.484051 
L 277.949499 246.2887 
L 273.686352 246.2887 
z
" clip-path="url(#p0b20da2097)" style="fill: #0f4d92; opacity: 0.5; stroke: #ffffff; stroke-width: 0.3; stroke-linejoin: miter"/>
   </g>
   <g id="patch_54">
    <path d="M 277.949499 246.484051 
L 282.212646 246.484051 
L 282.212646 246.2887 
L 277.949499 246.2887 
z
" clip-path="url(#p0b20da2097)" style="fill: #0f4d92; opacity: 0.5; stroke: #ffffff; stroke-width: 0.3; stroke-linejoin: miter"/>
   </g>
   <g id="patch_55">
    <path d="M 282.212646 246.484051 
L 286.475793 246.484051 
L 286.475793 246.484051 
L 282.212646 246.484051 
z
" clip-path="url(#p0b20da2097)" style="fill: #0f4d92; opacity: 0.5; stroke: #ffffff; stroke-width: 0.3; stroke-linejoin: miter"/>
   </g>
   <g id="patch_56">
    <path d="M 286.475793 246.484051 
L 290.73894 246.484051 
L 290.73894 246.2887 
L 286.475793 246.2887 
z
" clip-path="url(#p0b20da2097)" style="fill: #0f4d92; opacity: 0.5; stroke: #ffffff; stroke-width: 0.3; stroke-linejoin: miter"/>
   </g>
   <g id="patch_57">
    <path d="M 290.73894 246.484051 
L 295.002086 246.484051 
L 295.002086 246.484051 
L 290.73894 246.484051 
z
" clip-path="url(#p0b20da2097)" style="fill: #0f4d92; opacity: 0.5; stroke: #ffffff; stroke-width: 0.3; stroke-linejoin: miter"/>
   </g>
   <g id="patch_58">
    <path d="M 295.002086 246.484051 
L 299.265233 246.484051 
L 299.265233 246.2887 
L 295.002086 246.2887 
z
" clip-path="url(#p0b20da2097)" style="fill: #0f4d92; opacity: 0.5; stroke: #ffffff; stroke-width: 0.3; stroke-linejoin: miter"/>
   </g>
   <g id="patch_59">
    <path d="M 299.265233 246.484051 
L 303.52838 246.484051 
L 303.52838 246.484051 
L 299.265233 246.484051 
z
" clip-path="url(#p0b20da2097)" style="fill: #0f4d92; opacity: 0.5; stroke: #ffffff; stroke-width: 0.3; stroke-linejoin: miter"/>
   </g>
   <g id="patch_60">
    <path d="M 303.52838 246.484051 
L 307.791527 246.484051 
L 307.791527 246.484051 
L 303.52838 246.484051 
z
" clip-path="url(#p0b20da2097)" style="fill: #0f4d92; opacity: 0.5; stroke: #ffffff; stroke-width: 0.3; stroke-linejoin: miter"/>
   </g>
   <g id="patch_61">
    <path d="M 307.791527 246.484051 
L 312.054673 246.484051 
L 312.054673 246.2887 
L 307.791527 246.2887 
z
" clip-path="url(#p0b20da2097)" style="fill: #0f4d92; opacity: 0.5; stroke: #ffffff; stroke-width: 0.3; stroke-linejoin: miter"/>
   </g>
   <g id="patch_62">
    <path d="M 312.054673 246.484051 
L 316.31782 246.484051 
L 316.31782 246.484051 
L 312.054673 246.484051 
z
" clip-path="url(#p0b20da2097)" style="fill: #0f4d92; opacity: 0.5; stroke: #ffffff; stroke-width: 0.3; stroke-linejoin: miter"/>
   </g>
   <g id="patch_63">
    <path d="M 316.31782 246.484051 
L 320.580967 246.484051 
L 320.580967 246.484051 
L 316.31782 246.484051 
z
" clip-path="url(#p0b20da2097)" style="fill: #0f4d92; opacity: 0.5; stroke: #ffffff; stroke-width: 0.3; stroke-linejoin: miter"/>
   </g>
   <g id="patch_64">
    <path d="M 320.580967 246.484051 
L 324.844114 246.484051 
L 324.844114 246.484051 
L 320.580967 246.484051 
z
" clip-path="url(#p0b20da2097)" style="fill: #0f4d92; opacity: 0.5; stroke: #ffffff; stroke-width: 0.3; stroke-linejoin: miter"/>
   </g>
   <g id="patch_65">
    <path d="M 324.844114 246.484051 
L 329.107261 246.484051 
L 329.107261 246.484051 
L 324.844114 246.484051 
z
" clip-path="url(#p0b20da2097)" style="fill: #0f4d92; opacity: 0.5; stroke: #ffffff; stroke-width: 0.3; stroke-linejoin: miter"/>
   </g>
   <g id="patch_66">
    <path d="M 329.107261 246.484051 
L 333.370407 246.484051 
L 333.370407 246.484051 
L 329.107261 246.484051 
z
" clip-path="url(#p0b20da2097)" style="fill: #0f4d92; opacity: 0.5; stroke: #ffffff; stroke-width: 0.3; stroke-linejoin: miter"/>
   </g>
   <g id="patch_67">
    <path d="M 333.370407 246.484051 
L 337.633554 246.484051 
L 337.633554 246.2887 
L 333.370407 246.2887 
z
" clip-path="url(#p0b20da2097)" style="fill: #0f4d92; opacity: 0.5; stroke: #ffffff; stroke-width: 0.3; stroke-linejoin: miter"/>
   </g>
   <g id="patch_68">
    <path d="M 337.633554 246.484051 
L 341.896701 246.484051 
L 341.896701 246.484051 
L 337.633554 246.484051 
z
" clip-path="url(#p0b20da2097)" style="fill: #0f4d92; opacity: 0.5; stroke: #ffffff; stroke-width: 0.3; stroke-linejoin: miter"/>
   </g>
   <g id="patch_69">
    <path d="M 341.896701 246.484051 
L 346.159848 246.484051 
L 346.159848 246.484051 
L 341.896701 246.484051 
z
" clip-path="url(#p0b20da2097)" style="fill: #0f4d92; opacity: 0.5; stroke: #ffffff; stroke-width: 0.3; stroke-linejoin: miter"/>
   </g>
   <g id="patch_70">
    <path d="M 346.159848 246.484051 
L 350.422994 246.484051 
L 350.422994 246.484051 
L 346.159848 246.484051 
z
" clip-path="url(#p0b20da2097)" style="fill: #0f4d92; opacity: 0.5; stroke: #ffffff; stroke-width: 0.3; stroke-linejoin: miter"/>
   </g>
   <g id="patch_71">
    <path d="M 350.422994 246.484051 
L 354.686141 246.484051 
L 354.686141 246.2887 
L 350.422994 246.2887 
z
" clip-path="url(#p0b20da2097)" style="fill: #0f4d92; opacity: 0.5; stroke: #ffffff; stroke-width: 0.3; stroke-linejoin: miter"/>
   </g>
   <g id="patch_72">
    <path d="M 354.686141 246.484051 
L 358.949288 246.484051 
L 358.949288 246.484051 
L 354.686141 246.484051 
z
" clip-path="url(#p0b20da2097)" style="fill: #0f4d92; opacity: 0.5; stroke: #ffffff; stroke-width: 0.3; stroke-linejoin: miter"/>
   </g>
   <g id="patch_73">
    <path d="M 358.949288 246.484051 
L 363.212435 246.484051 
L 363.212435 246.484051 
L 358.949288 246.484051 
z
" clip-path="url(#p0b20da2097)" style="fill: #0f4d92; opacity: 0.5; stroke: #ffffff; stroke-width: 0.3; stroke-linejoin: miter"/>
   </g>
   <g id="patch_74">
    <path d="M 363.212435 246.484051 
L 367.475581 246.484051 
L 367.475581 246.484051 
L 363.212435 246.484051 
z
" clip-path="url(#p0b20da2097)" style="fill: #0f4d92; opacity: 0.5; stroke: #ffffff; stroke-width: 0.3; stroke-linejoin: miter"/>
   </g>
   <g id="patch_75">
    <path d="M 367.475581 246.484051 
L 371.738728 246.484051 
L 371.738728 246.484051 
L 367.475581 246.484051 
z
" clip-path="url(#p0b20da2097)" style="fill: #0f4d92; opacity: 0.5; stroke: #ffffff; stroke-width: 0.3; stroke-linejoin: miter"/>
   </g>
   <g id="patch_76">
    <path d="M 371.738728 246.484051 
L 376.001875 246.484051 
L 376.001875 246.484051 
L 371.738728 246.484051 
z
" clip-path="url(#p0b20da2097)" style="fill: #0f4d92; opacity: 0.5; stroke: #ffffff; stroke-width: 0.3; stroke-linejoin: miter"/>
   </g>
   <g id="patch_77">
    <path d="M 376.001875 246.484051 
L 380.265022 246.484051 
L 380.265022 246.484051 
L 376.001875 246.484051 
z
" clip-path="url(#p0b20da2097)" style="fill: #0f4d92; opacity: 0.5; stroke: #ffffff; stroke-width: 0.3; stroke-linejoin: miter"/>
   </g>
   <g id="patch_78">
    <path d="M 380.265022 246.484051 
L 384.528169 246.484051 
L 384.528169 246.484051 
L 380.265022 246.484051 
z
" clip-path="url(#p0b20da2097)" style="fill: #0f4d92; opacity: 0.5; stroke: #ffffff; stroke-width: 0.3; stroke-linejoin: miter"/>
   </g>
   <g id="patch_79">
    <path d="M 384.528169 246.484051 
L 388.791315 246.484051 
L 388.791315 246.484051 
L 384.528169 246.484051 
z
" clip-path="url(#p0b20da2097)" style="fill: #0f4d92; opacity: 0.5; stroke: #ffffff; stroke-width: 0.3; stroke-linejoin: miter"/>
   </g>
   <g id="patch_80">
    <path d="M 388.791315 246.484051 
L 393.054462 246.484051 
L 393.054462 246.484051 
L 388.791315 246.484051 
z
" clip-path="url(#p0b20da2097)" style="fill: #0f4d92; opacity: 0.5; stroke: #ffffff; stroke-width: 0.3; stroke-linejoin: miter"/>
   </g>
   <g id="patch_81">
    <path d="M 393.054462 246.484051 
L 397.317609 246.484051 
L 397.317609 246.484051 
L 393.054462 246.484051 
z
" clip-path="url(#p0b20da2097)" style="fill: #0f4d92; opacity: 0.5; stroke: #ffffff; stroke-width: 0.3; stroke-linejoin: miter"/>
   </g>
   <g id="patch_82">
    <path d="M 397.317609 246.484051 
L 401.580756 246.484051 
L 401.580756 246.2887 
L 397.317609 246.2887 
z
" clip-path="url(#p0b20da2097)" style="fill: #0f4d92; opacity: 0.5; stroke: #ffffff; stroke-width: 0.3; stroke-linejoin: miter"/>
   </g>
   <g id="line2d_31">
    <path d="M 57.205469 246.484051 
L 59.508982 246.45019 
L 60.660739 243.844979 
L 61.812496 229.103789 
L 62.964253 199.263746 
L 65.267766 123.37565 
L 66.419523 90.175496 
L 67.57128 63.718955 
L 68.723037 44.185768 
L 69.874794 30.897384 
L 71.02655 22.865234 
L 72.178307 19.071639 
L 73.330064 18.594479 
L 74.481821 20.649862 
L 75.633578 24.595385 
L 76.785335 29.916556 
L 77.937091 36.207696 
L 80.240605 50.506953 
L 87.151146 95.425035 
L 89.454659 109.033281 
L 91.758173 121.604081 
L 94.061687 133.111986 
L 96.3652 143.585434 
L 98.668714 153.081724 
L 100.972228 161.671946 
L 103.275741 169.432005 
L 105.579255 176.437399 
L 107.882768 182.76031 
L 110.186282 188.468096 
L 112.489796 193.622648 
L 114.793309 198.280245 
L 117.096823 202.491715 
L 119.400337 206.302747 
L 121.70385 209.754289 
L 124.007364 212.882961 
L 126.310877 215.721482 
L 128.614391 218.299065 
L 130.917905 220.641789 
L 134.373175 223.765772 
L 137.828446 226.481544 
L 141.283716 228.846945 
L 144.738986 230.910969 
L 148.194257 232.715202 
L 151.649527 234.295019 
L 156.256555 236.103832 
L 160.863582 237.626473 
L 165.470609 238.911522 
L 171.229393 240.243502 
L 176.988177 241.328013 
L 183.898718 242.370822 
L 190.809259 243.192421 
L 198.871557 243.936723 
L 208.085611 244.575324 
L 219.603179 245.145571 
L 233.424261 245.603095 
L 251.85237 245.974033 
L 277.19102 246.239275 
L 316.350752 246.402817 
L 398.125485 246.475192 
L 401.580756 246.475968 
L 401.580756 246.475968 
" clip-path="url(#p0b20da2097)" style="fill: none; stroke: #b64342; stroke-width: 1.2; stroke-linecap: square"/>
   </g>
   <g id="patch_83">
    <path d="M 57.205469 246.484051 
L 57.205469 7.2 
" style="fill: none; stroke: #000000; stroke-width: 0.85; stroke-linejoin: miter; stroke-linecap: square"/>
   </g>
   <g id="patch_84">
    <path d="M 57.205469 246.484051 
L 418.79952 246.484051 
" style="fill: none; stroke: #000000; stroke-width: 0.85; stroke-linejoin: miter; stroke-linecap: square"/>
   </g>
   <g id="text_18">
    <g id="patch_85">
     <path d="M 365.235139 36.017862 
L 412.767639 36.017862 
L 412.767639 15.571362 
L 365.235139 15.571362 
z
" style="fill: #ffffff; opacity: 0.88"/>
    </g>
    <text style="font-size: 8px; font-family: 'Microsoft YaHei', 'Arial', 'DejaVu Sans', sans-serif; fill: #4d4d4d" transform="translate(374.435139 23.166362)">均值 6809</text>
    <text style="font-size: 8px; font-family: 'Microsoft YaHei', 'Arial', 'DejaVu Sans', sans-serif; fill: #4d4d4d" transform="translate(366.435139 32.829112)">中位数 5322</text>
   </g>
   <g id="legend_1">
    <g id="patch_86">
     <path d="M 356.39952 18.795 
L 369.99952 18.795 
L 369.99952 13.195 
L 356.39952 13.195 
z
" style="fill: #0f4d92; opacity: 0.5; stroke: #ffffff; stroke-width: 0.3; stroke-linejoin: miter"/>
    </g>
    <g id="text_19">
     <text style="font-size: 8px; font-family: 'Microsoft YaHei', 'Arial', 'DejaVu Sans', sans-serif; text-anchor: start" x="373.59952" y="18.795" transform="rotate(-0 373.59952 18.795)">模拟</text>
    </g>
    <g id="line2d_32">
     <path d="M 356.39952 27.17875 
L 363.19952 27.17875 
L 369.99952 27.17875 
" style="fill: none; stroke: #b64342; stroke-width: 1.2; stroke-linecap: square"/>
    </g>
    <g id="text_20">
     <text style="font-size: 8px; font-family: 'Microsoft YaHei', 'Arial', 'DejaVu Sans', sans-serif; text-anchor: start" x="373.59952" y="29.97875" transform="rotate(-0 373.59952 29.97875)">逆高斯拟合</text>
    </g>
   </g>
  </g>
 </g>
 <defs>
  <clipPath id="p0b20da2097">
   <rect x="57.205469" y="7.2" width="361.594051" height="239.284051"/>
  </clipPath>
 </defs>
</svg>
