<?xml version="1.0" encoding="utf-8" standalone="no"?>
<!DOCTYPE svg PUBLIC "-//W3C//DTD SVG 1.1//EN"
  "http://www.w3.org/Graphics/SVG/1.1/DTD/svg11.dtd">
<svg xmlns:xlink="http://www.w3.org/1999/xlink" width="454.79952pt" height="296.39952pt" viewBox="0 0 454.79952 296.39952" xmlns="http://www.w3.org/2000/svg" version="1.1">
 <metadata>
  <rdf:RDF xmlns:dc="http://purl.org/dc/elements/1.1/" xmlns:cc="http://creativecommons.org/ns#" xmlns:rdf="http://www.w3.org/1999/02/22-rdf-syntax-ns#">
   <cc:Work>
    <dc:type rdf:resource="http://purl.org/dc/dcmitype/StillImage"/>
    <dc:date>2026-06-04T21:48:20.644841</dc:date>
    <dc:format>image/svg+xml</dc:format>
    <dc:creator>
     <cc:Agent>
      <dc:title>Matplotlib v3.10.0, https://matplotlib.org/</dc:title>
     </cc:Agent>
    </dc:creator>
   </cc:Work>
  </rdf:RDF>
 </metadata>
 <defs>
  <style type="text/css">*{stroke-linejoin: round; stroke-linecap: butt}</style>
 </defs>
 <g id="figure_1">
  <g id="patch_1">
   <path d="M 0 296.39952 
L 454.79952 296.39952 
L 454.79952 0 
L 0 0 
z
" style="fill: #ffffff"/>
  </g>
  <g id="axes_1">
   <g id="patch_2">
    <path d="M 36.514219 260.884051 
L 447.59952 260.884051 
L 447.59952 7.2 
L 36.514219 7.2 
z
" style="fill: #ffffff"/>
   </g>
   <g id="matplotlib.axis_1">
    <g id="xtick_1">
     <g id="line2d_1">
      <path d="M 36.514219 260.884051 
L 36.514219 7.2 
" clip-path="url(#p5fbe20b274)" style="fill: none; stroke: #e6e6e6; stroke-opacity: 0.55; stroke-width: 0.35; stroke-linecap: square"/>
     </g>
     <g id="line2d_2">
      <defs>
       <path id="mc40057527d" d="M 0 0 
L 0 3 
" style="stroke: #000000; stroke-width: 0.8"/>
      </defs>
      <g>
       <use xlink:href="#mc40057527d" x="36.514219" y="260.884051" style="stroke: #000000; stroke-width: 0.8"/>
      </g>
     </g>
     <g id="text_1">
      <text style="font-size: 8px; font-family: 'Microsoft YaHei', 'Arial', 'DejaVu Sans', sans-serif; text-anchor: middle" x="36.514219" y="273.779051" transform="rotate(-0 36.514219 273.779051)">0</text>
     </g>
    </g>
    <g id="xtick_2">
     <g id="line2d_3">
      <path d="M 110.004298 260.884051 
L 110.004298 7.2 
" clip-path="url(#p5fbe20b274)" style="fill: none; stroke: #e6e6e6; stroke-opacity: 0.55; stroke-width: 0.35; stroke-linecap: square"/>
     </g>
     <g id="line2d_4">
      <g>
       <use xlink:href="#mc40057527d" x="110.004298" y="260.884051" style="stroke: #000000; stroke-width: 0.8"/>
      </g>
     </g>
     <g id="text_2">
      <text style="font-size: 8px; font-family: 'Microsoft YaHei', 'Arial', 'DejaVu Sans', sans-serif; text-anchor: middle" x="110.004298" y="273.779051" transform="rotate(-0 110.004298 273.779051)">10</text>
     </g>
    </g>
    <g id="xtick_3">
     <g id="line2d_5">
      <path d="M 183.494377 260.884051 
L 183.494377 7.2 
" clip-path="url(#p5fbe20b274)" style="fill: none; stroke: #e6e6e6; stroke-opacity: 0.55; stroke-width: 0.35; stroke-linecap: square"/>
     </g>
     <g id="line2d_6">
      <g>
       <use xlink:href="#mc40057527d" x="183.494377" y="260.884051" style="stroke: #000000; stroke-width: 0.8"/>
      </g>
     </g>
     <g id="text_3">
      <text style="font-size: 8px; font-family: 'Microsoft YaHei', 'Arial', 'DejaVu Sans', sans-serif; text-anchor: middle" x="183.494377" y="273.779051" transform="rotate(-0 183.494377 273.779051)">20</text>
     </g>
    </g>
    <g id="xtick_4">
     <g id="line2d_7">
      <path d="M 256.984456 260.884051 
L 256.984456 7.2 
" clip-path="url(#p5fbe20b274)" style="fill: none; stroke: #e6e6e6; stroke-opacity: 0.55; stroke-width: 0.35; stroke-linecap: square"/>
     </g>
     <g id="line2d_8">
      <g>
       <use xlink:href="#mc40057527d" x="256.984456" y="260.884051" style="stroke: #000000; stroke-width: 0.8"/>
      </g>
     </g>
     <g id="text_4">
      <text style="font-size: 8px; font-family: 'Microsoft YaHei', 'Arial', 'DejaVu Sans', sans-serif; text-anchor: middle" x="256.984456" y="273.779051" transform="rotate(-0 256.984456 273.779051)">30</text>
     </g>
    </g>
    <g id="xtick_5">
     <g id="line2d_9">
      <path d="M 330.474535 260.884051 
L 330.474535 7.2 
" clip-path="url(#p5fbe20b274)" style="fill: none; stroke: #e6e6e6; stroke-opacity: 0.55; stroke-width: 0.35; stroke-linecap: square"/>
     </g>
     <g id="line2d_10">
      <g>
       <use xlink:href="#mc40057527d" x="330.474535" y="260.884051" style="stroke: #000000; stroke-width: 0.8"/>
      </g>
     </g>
     <g id="text_5">
      <text style="font-size: 8px; font-family: 'Microsoft YaHei', 'Arial', 'DejaVu Sans', sans-serif; text-anchor: middle" x="330.474535" y="273.779051" transform="rotate(-0 330.474535 273.779051)">40</text>
     </g>
    </g>
    <g id="xtick_6">
     <g id="line2d_11">
      <path d="M 403.964614 260.884051 
L 403.964614 7.2 
" clip-path="url(#p5fbe20b274)" style="fill: none; stroke: #e6e6e6; stroke-opacity: 0.55; stroke-width: 0.35; stroke-linecap: square"/>
     </g>
     <g id="line2d_12">
      <g>
       <use xlink:href="#mc40057527d" x="403.964614" y="260.884051" style="stroke: #000000; stroke-width: 0.8"/>
      </g>
     </g>
     <g id="text_6">
      <text style="font-size: 8px; font-family: 'Microsoft YaHei', 'Arial', 'DejaVu Sans', sans-serif; text-anchor: middle" x="403.964614" y="273.779051" transform="rotate(-0 403.964614 273.779051)">50</text>
     </g>
    </g>
    <g id="text_7">
     <!-- 时间 $t$ -->
     <g transform="translate(229.951869 286.962176)">
      <text>
       <tspan x="0" y="-0.515625" style="font-size: 9px; font-family: 'Microsoft YaHei'">时</tspan>
       <tspan x="9" y="-0.515625" style="font-size: 9px; font-family: 'Microsoft YaHei'">间</tspan>
       <tspan x="18" y="-0.515625" style="font-size: 9px; font-family: 'Microsoft YaHei'"> </tspan>
       <tspan x="20.663086" y="-0.515625" style="font-style: oblique; font-size: 9px; font-family: 'DejaVu Sans'">t</tspan>
      </text>
     </g>
    </g>
   </g>
   <g id="matplotlib.axis_2">
    <g id="ytick_1">
     <g id="line2d_13">
      <path d="M 36.514219 259.670829 
L 447.59952 259.670829 
" clip-path="url(#p5fbe20b274)" style="fill: none; stroke: #e6e6e6; stroke-opacity: 0.55; stroke-width: 0.35; stroke-linecap: square"/>
     </g>
     <g id="line2d_14">
      <defs>
       <path id="m7b2d23fc42" d="M 0 0 
L -3 0 
" style="stroke: #000000; stroke-width: 0.8"/>
      </defs>
      <g>
       <use xlink:href="#m7b2d23fc42" x="36.514219" y="259.670829" style="stroke: #000000; stroke-width: 0.8"/>
      </g>
     </g>
     <g id="text_8">
      <text style="font-size: 8px; font-family: 'Microsoft YaHei', 'Arial', 'DejaVu Sans', sans-serif; text-anchor: end" x="30.014219" y="262.868329" transform="rotate(-0 30.014219 262.868329)">-5</text>
     </g>
    </g>
    <g id="ytick_2">
     <g id="line2d_15">
      <path d="M 36.514219 227.833715 
L 447.59952 227.833715 
" clip-path="url(#p5fbe20b274)" style="fill: none; stroke: #e6e6e6; stroke-opacity: 0.55; stroke-width: 0.35; stroke-linecap: square"/>
     </g>
     <g id="line2d_16">
      <g>
       <use xlink:href="#m7b2d23fc42" x="36.514219" y="227.833715" style="stroke: #000000; stroke-width: 0.8"/>
      </g>
     </g>
     <g id="text_9">
      <text style="font-size: 8px; font-family: 'Microsoft YaHei', 'Arial', 'DejaVu Sans', sans-serif; text-anchor: end" x="30.014219" y="231.031215" transform="rotate(-0 30.014219 231.031215)">0</text>
     </g>
    </g>
    <g id="ytick_3">
     <g id="line2d_17">
      <path d="M 36.514219 195.996602 
L 447.59952 195.996602 
" clip-path="url(#p5fbe20b274)" style="fill: none; stroke: #e6e6e6; stroke-opacity: 0.55; stroke-width: 0.35; stroke-linecap: square"/>
     </g>
     <g id="line2d_18">
      <g>
       <use xlink:href="#m7b2d23fc42" x="36.514219" y="195.996602" style="stroke: #000000; stroke-width: 0.8"/>
      </g>
     </g>
     <g id="text_10">
      <text style="font-size: 8px; font-family: 'Microsoft YaHei', 'Arial', 'DejaVu Sans', sans-serif; text-anchor: end" x="30.014219" y="199.194102" transform="rotate(-0 30.014219 199.194102)">5</text>
     </g>
    </g>
    <g id="ytick_4">
     <g id="line2d_19">
      <path d="M 36.514219 164.159488 
L 447.59952 164.159488 
" clip-path="url(#p5fbe20b274)" style="fill: none; stroke: #e6e6e6; stroke-opacity: 0.55; stroke-width: 0.35; stroke-linecap: square"/>
     </g>
     <g id="line2d_20">
      <g>
       <use xlink:href="#m7b2d23fc42" x="36.514219" y="164.159488" style="stroke: #000000; stroke-width: 0.8"/>
      </g>
     </g>
     <g id="text_11">
      <text style="font-size: 8px; font-family: 'Microsoft YaHei', 'Arial', 'DejaVu Sans', sans-serif; text-anchor: end" x="30.014219" y="167.356988" transform="rotate(-0 30.014219 167.356988)">10</text>
     </g>
    </g>
    <g id="ytick_5">
     <g id="line2d_21">
      <path d="M 36.514219 132.322375 
L 447.59952 132.322375 
" clip-path="url(#p5fbe20b274)" style="fill: none; stroke: #e6e6e6; stroke-opacity: 0.55; stroke-width: 0.35; stroke-linecap: square"/>
     </g>
     <g id="line2d_22">
      <g>
       <use xlink:href="#m7b2d23fc42" x="36.514219" y="132.322375" style="stroke: #000000; stroke-width: 0.8"/>
      </g>
     </g>
     <g id="text_12">
      <text style="font-size: 8px; font-family: 'Microsoft YaHei', 'Arial', 'DejaVu Sans', sans-serif; text-anchor: end" x="30.014219" y="135.519875" transform="rotate(-0 30.014219 135.519875)">15</text>
     </g>
    </g>
    <g id="ytick_6">
     <g id="line2d_23">
      <path d="M 36.514219 100.485261 
L 447.59952 100.485261 
" clip-path="url(#p5fbe20b274)" style="fill: none; stroke: #e6e6e6; stroke-opacity: 0.55; stroke-width: 0.35; stroke-linecap: square"/>
     </g>
     <g id="line2d_24">
      <g>
       <use xlink:href="#m7b2d23fc42" x="36.514219" y="100.485261" style="stroke: #000000; stroke-width: 0.8"/>
      </g>
     </g>
     <g id="text_13">
      <text style="font-size: 8px; font-family: 'Microsoft YaHei', 'Arial', 'DejaVu Sans', sans-serif; text-anchor: end" x="30.014219" y="103.682761" transform="rotate(-0 30.014219 103.682761)">20</text>
     </g>
    </g>
    <g id="ytick_7">
     <g id="line2d_25">
      <path d="M 36.514219 68.648148 
L 447.59952 68.648148 
" clip-path="url(#p5fbe20b274)" style="fill: none; stroke: #e6e6e6; stroke-opacity: 0.55; stroke-width: 0.35; stroke-linecap: square"/>
     </g>
     <g id="line2d_26">
      <g>
       <use xlink:href="#m7b2d23fc42" x="36.514219" y="68.648148" style="stroke: #000000; stroke-width: 0.8"/>
      </g>
     </g>
     <g id="text_14">
      <text style="font-size: 8px; font-family: 'Microsoft YaHei', 'Arial', 'DejaVu Sans', sans-serif; text-anchor: end" x="30.014219" y="71.845648" transform="rotate(-0 30.014219 71.845648)">25</text>
     </g>
    </g>
    <g id="ytick_8">
     <g id="line2d_27">
      <path d="M 36.514219 36.811034 
L 447.59952 36.811034 
" clip-path="url(#p5fbe20b274)" style="fill: none; stroke: #e6e6e6; stroke-opacity: 0.55; stroke-width: 0.35; stroke-linecap: square"/>
     </g>
     <g id="line2d_28">
      <g>
       <use xlink:href="#m7b2d23fc42" x="36.514219" y="36.811034" style="stroke: #000000; stroke-width: 0.8"/>
      </g>
     </g>
     <g id="text_15">
      <text style="font-size: 8px; font-family: 'Microsoft YaHei', 'Arial', 'DejaVu Sans', sans-serif; text-anchor: end" x="30.014219" y="40.008534" transform="rotate(-0 30.014219 40.008534)">30</text>
     </g>
    </g>
    <g id="text_16">
     <!-- 盈余 $U_t$ -->
     <g transform="translate(14.394375 149.027026) rotate(-90)">
      <text>
       <tspan x="0" y="-0.578125" style="font-size: 9px; font-family: 'Microsoft YaHei'">盈</tspan>
       <tspan x="9" y="-0.578125" style="font-size: 9px; font-family: 'Microsoft YaHei'">余</tspan>
       <tspan x="18" y="-0.578125" style="font-size: 9px; font-family: 'Microsoft YaHei'"> </tspan>
       <tspan x="20.663086" y="-0.578125" style="font-style: oblique; font-size: 9px; font-family: 'DejaVu Sans'">U</tspan>
       <tspan x="27.250488" y="0.898438" style="font-style: oblique; font-size: 6.3px; font-family: 'DejaVu Sans'">t</tspan>
      </text>
     </g>
    </g>
   </g>
   <g id="line2d_29">
    <path d="M 36.514219 195.996602 
L 49.642704 195.996602 
L 49.642704 182.346659 
L 49.642704 183.866484 
L 51.117495 183.866484 
L 51.117495 182.333115 
L 51.117495 183.623227 
L 53.783375 183.623227 
L 53.783375 180.85146 
L 53.783375 185.588363 
L 57.939511 185.588363 
L 57.939511 181.267147 
L 57.939511 183.45896 
L 64.894399 183.45896 
L 64.894399 176.227828 
L 64.894399 177.184434 
L 67.433595 177.184434 
L 67.433595 174.544383 
L 67.433595 177.449692 
L 71.908661 177.449692 
L 71.908661 172.796879 
L 71.908661 182.589568 
L 73.545548 182.589568 
L 73.545548 180.887664 
L 73.545548 185.485128 
L 80.141317 185.485128 
L 80.141317 178.627378 
L 80.141317 178.930237 
L 87.015087 178.930237 
L 87.015087 171.783444 
L 87.015087 172.973906 
L 87.50941 172.973906 
L 87.50941 172.459948 
L 87.50941 191.394675 
L 112.280199 191.394675 
L 112.280199 165.640002 
L 112.280199 176.161095 
L 114.950005 176.161095 
L 114.950005 173.385246 
L 114.950005 174.039673 
L 123.421579 174.039673 
L 123.421579 165.231611 
L 123.421579 168.925295 
L 124.378069 168.925295 
L 124.378069 167.930814 
L 124.378069 172.283248 
L 124.635238 172.283248 
L 124.635238 172.015864 
L 124.635238 187.300371 
L 126.835956 187.300371 
L 126.835956 185.012242 
L 126.835956 191.928892 
L 129.581153 191.928892 
L 129.581153 189.074657 
L 129.581153 193.749052 
L 135.395863 193.749052 
L 135.395863 187.703384 
L 135.395863 189.004813 
L 161.06453 189.004813 
L 161.06453 162.316597 
L 161.06453 171.818354 
L 181.679191 171.818354 
L 181.679191 150.384888 
L 181.679191 164.725292 
L 188.374537 164.725292 
L 188.374537 157.76401 
L 188.374537 173.997342 
L 189.055463 173.997342 
L 189.055463 173.289371 
L 189.055463 174.678326 
L 189.395589 174.678326 
L 189.395589 174.32469 
L 189.395589 176.830475 
L 193.012259 176.830475 
L 193.012259 173.070153 
L 193.012259 175.085828 
L 205.980008 175.085828 
L 205.980008 161.603005 
L 205.980008 164.412483 
L 208.403732 164.412483 
L 208.403732 161.89249 
L 208.403732 166.874407 
L 209.520033 166.874407 
L 209.520033 165.713767 
L 209.520033 176.032071 
L 210.089403 176.032071 
L 210.089403 175.440086 
L 210.089403 203.037427 
L 220.962141 203.037427 
L 220.962141 191.732829 
L 221.002836 203.86144 
L 230.020773 203.86144 
L 230.020773 194.485314 
L 230.020773 202.799022 
L 240.862137 202.799022 
L 240.862137 191.527045 
L 240.862137 192.016886 
L 244.124307 192.016886 
L 244.124307 188.625143 
L 244.124307 189.409292 
L 258.738027 189.409292 
L 258.738027 174.215122 
L 258.738027 180.431644 
L 261.690996 180.431644 
L 261.690996 177.361384 
L 261.690996 177.77952 
L 264.428416 177.77952 
L 264.428416 174.933372 
L 264.428416 177.437769 
L 274.040006 177.437769 
L 274.040006 167.444412 
L 274.040006 173.906641 
L 290.077392 173.906641 
L 290.077392 157.232257 
L 290.077392 161.301461 
L 291.013453 161.301461 
L 291.013453 160.32822 
L 291.013453 168.281936 
L 301.525421 168.281936 
L 301.525421 157.352438 
L 301.525421 162.598478 
L 312.35705 162.598478 
L 312.35705 151.336621 
L 312.35705 155.671656 
L 317.792955 155.671656 
L 317.792955 150.019839 
L 317.792955 153.571678 
L 317.982176 153.571678 
L 317.982176 153.374941 
L 317.982176 154.101894 
L 318.216857 154.101894 
L 318.216857 153.857891 
L 318.216857 160.300001 
L 320.990348 160.300001 
L 320.990348 157.416348 
L 320.990348 161.940001 
L 338.490287 161.940001 
L 338.490287 143.744972 
L 338.490287 145.57076 
L 342.372636 145.57076 
L 342.372636 141.534206 
L 342.372636 150.504307 
L 344.281946 150.504307 
L 344.281946 148.51916 
L 344.281946 149.029218 
L 346.796338 149.029218 
L 346.796338 146.414956 
L 346.796338 147.534402 
L 366.307587 147.534402 
L 366.307587 127.248175 
L 366.307587 137.760071 
L 373.682274 137.760071 
L 373.682274 130.092464 
L 373.682274 143.155358 
L 385.64623 143.155358 
L 385.64623 130.716198 
L 385.64623 132.031042 
L 402.040496 132.031042 
L 402.040496 114.985604 
L 402.040496 119.920993 
L 414.146871 119.920993 
L 414.146871 107.333757 
L 414.146871 121.751147 
L 414.146871 121.751147 
" clip-path="url(#p5fbe20b274)" style="fill: none; stroke: #4d4d4d; stroke-opacity: 0.28; stroke-width: 0.7; stroke-linecap: square"/>
   </g>
   <g id="line2d_30">
    <path d="M 36.514219 195.996602 
L 39.32691 195.996602 
L 39.32691 193.072192 
L 39.32691 193.814583 
L 41.228001 193.814583 
L 41.228001 191.837982 
L 41.228001 195.385004 
L 53.749459 195.385004 
L 53.749459 182.366199 
L 53.800729 199.417198 
L 57.771201 199.417198 
L 57.771201 195.28902 
L 57.771201 196.888309 
L 58.709526 196.888309 
L 58.709526 195.912715 
L 58.709526 198.535511 
L 79.750625 198.535511 
L 79.750625 176.658668 
L 79.750625 179.144406 
L 85.126078 179.144406 
L 85.126078 173.555443 
L 85.126078 181.286048 
L 88.447642 181.286048 
L 88.447642 177.832553 
L 88.447642 200.550232 
L 112.567159 200.550232 
L 112.567159 175.472699 
L 112.567159 177.319642 
L 117.620772 177.319642 
L 117.620772 172.065301 
L 117.620772 174.344396 
L 120.084525 174.344396 
L 120.084525 171.782784 
L 120.084525 172.0221 
L 126.996208 172.0221 
L 126.996208 164.835888 
L 126.996208 169.283657 
L 127.384611 169.283657 
L 127.384611 168.879827 
L 127.384611 170.959592 
L 144.940369 170.959592 
L 144.940369 152.706527 
L 144.940369 154.450313 
L 146.090716 154.450313 
L 146.090716 153.254275 
L 146.090716 157.534916 
L 177.280177 157.534916 
L 177.280177 125.106623 
L 177.280177 126.871321 
L 185.47546 126.871321 
L 185.47546 118.350525 
L 185.47546 127.480694 
L 187.46949 127.480694 
L 187.46949 125.407462 
L 187.46949 133.702616 
L 190.839177 133.702616 
L 190.839177 130.199085 
L 190.839177 136.569716 
L 198.21639 136.569716 
L 198.21639 128.899484 
L 198.21639 133.78575 
L 198.91182 133.78575 
L 198.91182 133.062698 
L 198.91182 144.547266 
L 201.754492 144.547266 
L 201.754492 141.591685 
L 201.754492 142.906125 
L 202.060429 142.906125 
L 202.060429 142.588036 
L 202.060429 148.279101 
L 210.378417 148.279101 
L 210.378417 139.630727 
L 210.378417 139.737235 
L 215.65229 139.737235 
L 215.65229 134.253886 
L 215.65229 135.889194 
L 223.266776 135.889194 
L 223.266776 127.972264 
L 223.266776 129.192289 
L 231.896073 129.192289 
L 231.896073 120.22024 
L 231.896073 123.333647 
L 252.181861 123.333647 
L 252.181861 102.242115 
L 252.181861 103.18414 
L 255.247371 103.18414 
L 255.247371 99.99687 
L 255.247371 100.763789 
L 274.253304 100.763789 
L 274.253304 81.002949 
L 274.253304 94.363926 
L 276.445715 94.363926 
L 276.445715 92.084434 
L 276.445715 98.953373 
L 288.935237 98.953373 
L 288.935237 85.967773 
L 288.935237 91.126228 
L 294.478442 91.126228 
L 294.478442 85.362849 
L 294.478442 87.125842 
L 295.196632 87.125842 
L 295.196632 86.379126 
L 295.196632 100.865797 
L 312.149136 100.865797 
L 312.149136 83.239948 
L 312.149136 89.624371 
L 315.191967 89.624371 
L 315.191967 86.46068 
L 315.191967 89.195918 
L 324.705003 89.195918 
L 324.705003 79.305028 
L 324.705003 93.785167 
L 340.734164 93.785167 
L 340.734164 77.119335 
L 340.734164 86.756826 
L 348.283878 86.756826 
L 348.283878 78.90724 
L 348.283878 79.466884 
L 349.579466 79.466884 
L 349.579466 78.119836 
L 349.579466 92.689967 
L 356.432371 92.689967 
L 356.432371 85.564867 
L 356.432371 85.6237 
L 357.218692 85.6237 
L 357.218692 84.806146 
L 357.255984 92.81884 
L 363.103574 92.81884 
L 363.103574 86.738987 
L 363.103574 94.235451 
L 370.860022 94.235451 
L 370.860022 86.17092 
L 370.860022 87.787926 
L 380.012603 87.787926 
L 380.012603 78.271808 
L 380.012603 79.996258 
L 382.90543 79.996258 
L 382.90543 76.98853 
L 382.90543 85.726911 
L 390.612877 85.726911 
L 390.612877 77.713327 
L 390.612877 89.760211 
L 398.489641 89.760211 
L 398.489641 81.570585 
L 398.489641 86.919503 
L 399.212468 86.919503 
L 399.212468 86.167965 
L 399.212468 89.086896 
L 401.477139 89.086896 
L 401.477139 86.732273 
L 401.477139 88.513242 
L 428.024029 88.513242 
L 428.024029 60.911921 
L 428.024029 64.091732 
" clip-path="url(#p5fbe20b274)" style="fill: none; stroke: #4d4d4d; stroke-opacity: 0.28; stroke-width: 0.7; stroke-linecap: square"/>
   </g>
   <g id="line2d_31">
    <path d="M 36.514219 195.996602 
L 52.873516 195.996602 
L 52.873516 178.98752 
L 52.873516 185.33797 
L 64.51306 185.33797 
L 64.51306 173.236108 
L 64.51306 177.683341 
L 70.834353 177.683341 
L 70.834353 171.11097 
L 70.834353 175.429951 
L 72.430667 175.429951 
L 72.430667 173.770232 
L 72.430667 181.931751 
L 74.852734 181.931751 
L 74.852734 179.413481 
L 74.852734 179.570224 
L 82.473425 179.570224 
L 82.473425 171.646842 
L 82.473425 172.888067 
L 103.205588 172.888067 
L 103.205588 151.332432 
L 103.205588 170.928573 
L 121.309941 170.928573 
L 121.309941 152.105122 
L 121.309941 155.048701 
L 121.424419 155.048701 
L 121.424419 154.929677 
L 121.424419 171.711169 
L 125.532061 171.711169 
L 125.532061 167.440373 
L 125.532061 189.094972 
L 149.884729 189.094972 
L 149.884729 163.775026 
L 149.884729 175.98384 
L 152.447887 175.98384 
L 152.447887 173.318874 
L 152.447887 176.415301 
L 166.445739 176.415301 
L 166.445739 161.861461 
L 166.445739 164.28838 
L 167.810586 164.28838 
L 167.810586 162.869321 
L 167.810586 168.050729 
L 188.029864 168.050729 
L 188.029864 147.028351 
L 188.029864 154.61084 
L 194.233252 154.61084 
L 194.233252 148.161056 
L 194.233252 148.811987 
L 201.248106 148.811987 
L 201.248106 141.518506 
L 201.248106 170.875952 
L 202.357222 170.875952 
L 202.357222 169.722782 
L 202.357222 174.374155 
L 217.779914 174.374155 
L 217.779914 158.338881 
L 217.779914 166.935119 
L 226.555176 166.935119 
L 226.555176 157.811308 
L 226.555176 165.530455 
L 229.829103 165.530455 
L 229.829103 162.126489 
L 229.829103 164.339564 
L 242.009161 164.339564 
L 242.009161 151.675719 
L 242.009161 162.254098 
L 256.839092 162.254098 
L 256.839092 146.835129 
L 256.839092 162.401032 
L 262.101667 162.401032 
L 262.101667 156.92943 
L 262.101667 161.36233 
L 273.867061 161.36233 
L 273.867061 149.12962 
L 273.867061 155.813625 
L 282.763407 155.813625 
L 282.763407 146.56392 
L 282.763407 156.679332 
L 298.985045 156.679332 
L 298.985045 139.813378 
L 298.985045 142.439828 
L 302.445963 142.439828 
L 302.445963 138.841443 
L 302.445963 139.469883 
L 308.791199 139.469883 
L 308.791199 132.872616 
L 308.791199 133.10569 
L 313.396139 133.10569 
L 313.396139 128.317845 
L 313.396139 133.299045 
L 315.877389 133.299045 
L 315.877389 130.71924 
L 315.877389 136.409376 
L 316.105025 136.409376 
L 316.105025 136.172699 
L 316.105025 136.415065 
L 328.814042 136.415065 
L 328.814042 123.201252 
L 328.814042 126.044847 
L 329.812692 126.044847 
L 329.812692 125.006532 
L 329.812692 129.709851 
L 340.613146 129.709851 
L 340.613146 118.480408 
L 340.613146 120.028443 
L 347.780043 120.028443 
L 347.780043 112.57688 
L 347.780043 113.144925 
L 348.170018 113.144925 
L 348.170018 112.739459 
L 348.170018 117.565386 
L 353.886888 117.565386 
L 353.886888 111.621444 
L 353.886888 118.081433 
L 363.403564 118.081433 
L 363.403564 108.186759 
L 363.403564 131.896221 
L 368.741083 131.896221 
L 368.741083 126.346698 
L 368.741083 128.830118 
L 380.394067 128.830118 
L 380.394067 116.714283 
L 380.394067 118.725443 
L 384.641671 118.725443 
L 384.641671 114.309125 
L 384.641671 114.829377 
L 384.830376 114.829377 
L 384.830376 114.633176 
L 384.830376 135.565314 
L 398.115675 135.565314 
L 398.115675 121.752329 
L 398.115675 129.333655 
L 401.980222 129.333655 
L 401.980222 125.31561 
L 401.980222 126.527372 
L 403.23044 126.527372 
L 403.23044 125.227495 
L 403.23044 127.061351 
L 409.086061 127.061351 
L 409.086061 120.973148 
L 409.086061 128.956936 
L 409.086061 128.956936 
" clip-path="url(#p5fbe20b274)" style="fill: none; stroke: #4d4d4d; stroke-opacity: 0.28; stroke-width: 0.7; stroke-linecap: square"/>
   </g>
   <g id="line2d_32">
    <path d="M 36.514219 195.996602 
L 44.446667 195.996602 
L 44.446667 187.74908 
L 44.446667 189.84022 
L 67.214654 189.84022 
L 67.214654 166.167899 
L 67.214654 174.693988 
L 73.154346 174.693988 
L 73.154346 168.518374 
L 73.154346 174.54215 
L 77.152485 174.54215 
L 77.152485 170.385207 
L 77.152485 172.197766 
L 80.386152 172.197766 
L 80.386152 168.835659 
L 80.492699 178.540659 
L 80.838796 178.540659 
L 80.838796 178.180815 
L 80.838796 178.445582 
L 95.053269 178.445582 
L 95.053269 163.666516 
L 95.053269 171.410834 
L 99.777098 171.410834 
L 99.777098 166.499376 
L 99.777098 167.154947 
L 104.748834 167.154947 
L 104.748834 161.985736 
L 104.748834 166.070121 
L 106.146576 166.070121 
L 106.146576 164.616861 
L 106.146576 168.239282 
L 109.882346 168.239282 
L 109.882346 164.355129 
L 109.882346 170.446985 
L 117.290988 170.446985 
L 117.290988 162.744076 
L 117.290988 163.039284 
L 120.740495 163.039284 
L 120.740495 159.452764 
L 120.740495 165.712737 
L 125.880681 165.712737 
L 125.880681 160.368385 
L 125.880681 172.729777 
L 133.780679 172.729777 
L 133.780679 164.515995 
L 133.780679 165.648459 
L 134.318497 165.648459 
L 134.318497 165.089279 
L 134.318497 171.637499 
L 134.515958 171.637499 
L 134.515958 171.432195 
L 134.515958 177.044107 
L 155.219991 177.044107 
L 155.219991 155.517719 
L 155.219991 160.973215 
L 158.830563 160.973215 
L 158.830563 157.219232 
L 158.830563 163.782944 
L 163.335182 163.782944 
L 163.335182 159.099405 
L 163.335182 164.122119 
L 184.192601 164.122119 
L 184.192601 142.436253 
L 184.192601 145.543094 
L 208.070202 145.543094 
L 208.070202 120.717084 
L 208.070202 135.728768 
L 209.671524 135.728768 
L 209.671524 134.063843 
L 209.671524 134.52156 
L 210.452175 134.52156 
L 210.452175 133.709902 
L 210.452175 133.826998 
L 211.181233 133.826998 
L 211.181233 133.068982 
L 211.181233 140.384354 
L 211.723954 140.384354 
L 211.723954 139.820076 
L 211.723954 142.266167 
L 225.419022 142.266167 
L 225.419022 128.027137 
L 225.419022 128.177071 
L 237.79865 128.177071 
L 237.79865 115.30573 
L 237.79865 117.413878 
L 238.722789 117.413878 
L 238.722789 116.453033 
L 238.722789 124.050358 
L 246.008589 124.050358 
L 246.008589 116.475169 
L 246.008589 129.843037 
L 255.770229 129.843037 
L 255.770229 119.693668 
L 255.770229 130.053439 
L 258.205204 130.053439 
L 258.205204 127.521747 
L 258.205204 128.765517 
L 268.411186 128.765517 
L 268.411186 118.154158 
L 268.411186 128.623533 
L 302.635552 128.623533 
L 302.635552 93.039791 
L 302.635552 96.427765 
L 306.054633 96.427765 
L 306.054633 92.872879 
L 306.054633 102.410989 
L 309.117212 102.410989 
L 309.117212 99.226765 
L 309.117212 116.228662 
L 323.48334 116.228662 
L 323.48334 101.291917 
L 323.48334 104.859939 
L 333.696879 104.859939 
L 333.696879 94.240722 
L 333.696879 103.184614 
L 334.496727 103.184614 
L 334.496727 102.352997 
L 334.496727 117.179195 
L 339.668279 117.179195 
L 339.668279 111.802231 
L 339.668279 122.953706 
L 342.503052 122.953706 
L 342.503052 120.006337 
L 342.503052 134.389011 
L 346.126028 134.389011 
L 346.126028 130.622132 
L 346.126028 130.691517 
L 363.454307 130.691517 
L 363.454307 112.674966 
L 363.454307 113.284491 
L 366.28113 113.284491 
L 366.28113 110.345389 
L 366.28113 129.428379 
L 388.386575 129.428379 
L 388.386575 106.444915 
L 388.386575 111.869942 
L 395.729924 111.869942 
L 395.729924 104.234918 
L 395.729924 108.023628 
L 398.280198 108.023628 
L 398.280198 105.372059 
L 398.280198 107.90939 
L 406.484068 107.90939 
L 406.484068 99.379665 
L 406.484068 108.267554 
L 406.484068 108.267554 
" clip-path="url(#p5fbe20b274)" style="fill: none; stroke: #4d4d4d; stroke-opacity: 0.28; stroke-width: 0.7; stroke-linecap: square"/>
   </g>
   <g id="line2d_33">
    <path d="M 36.514219 195.996602 
L 42.027027 195.996602 
L 42.027027 190.264827 
L 42.027027 221.82705 
L 42.590412 221.82705 
L 42.590412 221.241287 
L 42.590412 226.380496 
L 68.191234 226.380496 
L 68.191234 199.762821 
L 68.191234 204.47754 
L 75.486067 204.47754 
L 75.486067 196.892959 
L 75.486067 204.469564 
L 79.940505 204.469564 
L 79.940505 199.838198 
L 79.940505 206.127137 
L 86.391654 206.127137 
L 86.391654 199.419751 
L 86.391654 214.155449 
L 86.733467 214.155449 
L 86.733467 213.800059 
L 86.733467 215.900307 
L 108.809858 215.900307 
L 108.809858 192.947052 
L 108.809858 207.016992 
L 113.279343 207.016992 
L 113.279343 202.369982 
L 113.279343 208.53322 
L 115.66684 208.53322 
L 115.66684 206.050893 
L 115.66684 207.37789 
L 120.245703 207.37789 
L 120.245703 202.617157 
L 120.245703 205.393058 
L 126.685224 205.393058 
L 126.685224 198.697761 
L 126.685224 199.213027 
L 153.619045 199.213027 
L 153.619045 171.209407 
L 153.619045 198.48659 
L 162.422157 198.48659 
L 162.422157 189.333823 
L 162.422157 194.224503 
L 165.144077 194.224503 
L 165.144077 191.394469 
L 165.144077 202.097515 
L 173.627254 202.097515 
L 173.627254 193.27739 
L 173.627254 194.40744 
L 191.399368 194.40744 
L 191.399368 175.929426 
L 191.399368 186.938665 
L 213.385678 186.938665 
L 213.385678 164.079068 
L 213.385678 172.315991 
L 220.370205 172.315991 
L 220.370205 165.054043 
L 220.370205 168.503291 
L 240.205312 168.503291 
L 240.205312 147.880342 
L 240.205312 160.68136 
L 240.545372 160.68136 
L 240.545372 160.327793 
L 240.545372 160.497936 
L 244.01666 160.497936 
L 244.01666 156.888771 
L 244.01666 167.481919 
L 276.089755 167.481919 
L 276.089755 134.134895 
L 276.089755 135.172845 
L 282.716532 135.172845 
L 282.716532 128.282855 
L 282.716532 131.335867 
L 308.465314 131.335867 
L 308.465314 104.564354 
L 308.465314 116.318064 
L 321.856603 116.318064 
L 321.856603 102.394879 
L 321.856603 106.421736 
L 325.794459 106.421736 
L 325.794459 102.327471 
L 325.794459 104.361155 
L 326.220899 104.361155 
L 326.220899 103.917777 
L 326.220899 116.655335 
L 338.538699 116.655335 
L 338.538699 103.848278 
L 338.538699 155.885693 
L 380.390369 155.885693 
L 380.390369 112.371694 
L 380.390369 117.533455 
L 391.158746 117.533455 
L 391.158746 106.337363 
L 391.158746 124.778512 
L 405.083441 124.778512 
L 405.083441 110.300735 
L 405.083441 112.110054 
" clip-path="url(#p5fbe20b274)" style="fill: none; stroke: #4d4d4d; stroke-opacity: 0.28; stroke-width: 0.7; stroke-linecap: square"/>
   </g>
   <g id="line2d_34">
    <path d="M 36.514219 195.996602 
L 56.282966 195.996602 
L 56.282966 175.442649 
L 56.282966 180.7449 
L 65.049382 180.7449 
L 65.049382 171.630286 
L 65.049382 187.914774 
L 74.076885 187.914774 
L 74.076885 178.528703 
L 74.076885 179.582578 
L 80.387494 179.582578 
L 80.387494 173.021315 
L 80.387494 178.963527 
L 84.443224 178.963527 
L 84.443224 174.746705 
L 84.443224 183.237601 
L 104.459547 183.237601 
L 104.459547 162.426239 
L 104.459547 178.968015 
L 108.86428 178.968015 
L 108.86428 174.388328 
L 108.86428 175.153556 
L 139.650553 175.153556 
L 139.650553 143.144466 
L 139.650553 154.769585 
L 140.629043 154.769585 
L 140.629043 153.752229 
L 140.629043 169.901974 
L 155.616786 169.901974 
L 155.616786 154.318925 
L 155.616786 158.977022 
L 162.192045 158.977022 
L 162.192045 152.140597 
L 162.192045 155.382665 
L 162.605927 155.382665 
L 162.605927 154.952343 
L 162.605927 157.551938 
L 174.539304 157.551938 
L 174.539304 145.144572 
L 174.539304 145.174135 
L 177.520899 145.174135 
L 177.520899 142.074113 
L 177.520899 145.307351 
L 183.186124 145.307351 
L 183.186124 139.417105 
L 183.186124 155.488005 
L 186.310754 155.488005 
L 186.310754 152.239266 
L 186.310754 154.952467 
L 196.140118 154.952467 
L 196.140118 144.732685 
L 196.140118 148.565095 
L 198.009577 148.565095 
L 198.009577 146.621382 
L 198.009577 150.456368 
L 199.125303 150.456368 
L 199.125303 149.296326 
L 199.125303 150.531953 
L 204.195295 150.531953 
L 204.195295 145.260583 
L 204.195295 148.717305 
L 222.298053 148.717305 
L 222.298053 129.895514 
L 222.298053 132.761074 
L 228.683624 132.761074 
L 228.683624 126.121872 
L 228.780491 139.326899 
L 230.221327 139.326899 
L 230.221327 137.828834 
L 230.221327 158.497477 
L 231.404127 158.497477 
L 231.404127 157.267696 
L 231.404127 160.677458 
L 232.059757 160.677458 
L 232.059757 159.995787 
L 232.059757 196.7236 
L 237.186035 196.7236 
L 237.186035 191.39371 
L 237.186035 197.155077 
L 237.696292 197.155077 
L 237.696292 196.624553 
L 237.696292 205.450668 
L 239.427739 205.450668 
L 239.427739 203.650449 
L 239.427739 218.18928 
L 241.114989 218.18928 
L 241.114989 216.435013 
L 241.114989 217.782171 
L 241.388624 217.782171 
L 241.388624 217.497667 
L 241.388624 221.565086 
L 247.503323 221.565086 
L 247.503323 215.207514 
L 247.503323 215.640288 
L 258.48276 215.640288 
L 258.48276 204.224753 
L 258.48276 208.069624 
L 263.944231 208.069624 
L 263.944231 202.391225 
L 263.944231 206.091853 
L 267.707645 206.091853 
L 267.707645 202.178958 
L 267.707645 207.401286 
L 268.947445 207.401286 
L 268.947445 206.112242 
L 268.947445 207.390852 
L 283.490759 207.390852 
L 283.490759 192.269884 
L 283.490759 210.868564 
L 286.924967 210.868564 
L 286.924967 207.297951 
L 286.924967 209.308346 
L 294.515193 209.308346 
L 294.515193 201.416639 
L 294.515193 204.762654 
L 294.704166 204.762654 
L 294.704166 204.566174 
L 294.704166 205.647258 
L 303.95424 205.647258 
L 303.95424 196.029776 
L 303.95424 202.878893 
L 304.156116 202.878893 
L 304.156116 202.668998 
L 304.156116 204.267177 
L 306.087153 204.267177 
L 306.087153 202.25944 
L 306.087153 209.355389 
L 306.233452 209.355389 
L 306.233452 209.203279 
L 306.233452 209.903288 
L 318.058141 209.903288 
L 318.058141 197.608928 
L 318.058141 198.861258 
L 325.83118 198.861258 
L 325.83118 190.779477 
L 325.83118 192.511726 
L 326.600916 192.511726 
L 326.600916 191.711417 
L 326.600916 193.485505 
L 336.015692 193.485505 
L 336.015692 183.696779 
L 336.015692 196.023067 
L 349.047327 196.023067 
L 349.047327 182.47382 
L 349.047327 185.696644 
L 357.152377 185.696644 
L 357.152377 177.269664 
L 357.152377 178.730309 
L 359.701995 178.730309 
L 359.701995 176.079422 
L 359.798173 190.980981 
L 361.510861 190.980981 
L 361.510861 189.200266 
L 361.510861 189.371489 
L 362.982155 189.371489 
L 362.982155 187.841756 
L 362.982155 193.411779 
L 367.003431 193.411779 
L 367.003431 189.230779 
L 367.003431 203.441994 
L 379.501859 203.441994 
L 379.501859 190.447134 
L 379.501859 193.110454 
L 381.708959 193.110454 
L 381.708959 190.815689 
L 381.708959 193.856387 
L 388.266609 193.856387 
L 388.266609 187.03827 
L 388.266609 189.025299 
L 395.458071 189.025299 
L 395.458071 181.548195 
L 395.458071 184.901509 
L 401.359819 184.901509 
L 401.359819 178.765346 
L 401.359819 182.413404 
L 403.923153 182.413404 
L 403.923153 179.748256 
L 403.923153 198.629366 
L 414.522293 198.629366 
L 414.522293 187.609233 
L 414.522293 188.570424 
" clip-path="url(#p5fbe20b274)" style="fill: none; stroke: #4d4d4d; stroke-opacity: 0.28; stroke-width: 0.7; stroke-linecap: square"/>
   </g>
   <g id="line2d_35">
    <path d="M 36.514219 195.996602 
L 51.421718 195.996602 
L 51.421718 180.496984 
L 51.421718 184.752462 
L 67.953601 184.752462 
L 67.953601 167.563939 
L 67.953601 177.807304 
L 72.023163 177.807304 
L 72.023163 173.576101 
L 72.023163 173.720805 
L 74.322671 173.720805 
L 74.322671 171.329961 
L 74.322671 176.297109 
L 81.698851 176.297109 
L 81.698851 168.627951 
L 81.698851 170.527065 
L 82.801749 170.527065 
L 82.801749 169.38036 
L 82.801749 180.850553 
L 113.378209 180.850553 
L 113.378209 149.05961 
L 113.378209 153.809035 
L 114.76243 153.809035 
L 114.76243 152.369833 
L 114.76243 154.393887 
L 114.898842 154.393887 
L 114.898842 154.252058 
L 114.898842 169.896105 
L 115.819533 169.896105 
L 115.819533 168.938845 
L 115.819533 174.409993 
L 118.173283 174.409993 
L 118.173283 171.962753 
L 118.173283 177.106583 
L 125.918319 177.106583 
L 125.918319 169.053918 
L 125.918319 180.327053 
L 127.617428 180.327053 
L 127.617428 178.560456 
L 127.617428 178.630859 
L 128.699262 178.630859 
L 128.699262 177.506055 
L 128.699262 192.168775 
L 143.916127 192.168775 
L 143.916127 176.347502 
L 143.916127 182.140865 
L 150.659457 182.140865 
L 150.659457 175.129693 
L 150.659457 182.093962 
L 152.076508 182.093962 
L 152.076508 180.620626 
L 152.076508 196.273086 
L 156.06415 196.273086 
L 156.06415 192.127056 
L 156.06415 195.203226 
L 161.441544 195.203226 
L 161.441544 189.612245 
L 161.441544 189.918548 
L 162.778047 189.918548 
L 162.778047 188.52896 
L 162.778047 197.058371 
L 163.413209 197.058371 
L 163.413209 196.397981 
L 163.413209 202.282767 
L 165.481955 202.282767 
L 165.481955 200.131851 
L 165.481955 203.271897 
L 167.985411 203.271897 
L 167.985411 200.669005 
L 167.985411 203.467796 
L 177.315447 203.467796 
L 177.315447 193.767175 
L 177.315447 196.012147 
L 183.456597 196.012147 
L 183.456597 189.627072 
L 183.456597 193.742718 
L 191.464561 193.742718 
L 191.464561 185.416682 
L 191.464561 203.003005 
L 201.157206 203.003005 
L 201.157206 192.925372 
L 201.157206 194.46626 
L 201.39002 194.46626 
L 201.39002 194.224199 
L 201.39002 196.160973 
L 208.033969 196.160973 
L 208.033969 189.25313 
L 208.033969 189.589299 
L 213.074698 189.589299 
L 213.074698 184.348356 
L 213.074698 190.132706 
L 216.064508 190.132706 
L 216.064508 187.024141 
L 216.064508 196.407494 
L 216.89288 196.407494 
L 216.89288 195.546219 
L 216.89288 196.043582 
L 226.466047 196.043582 
L 226.466047 186.090173 
L 226.466047 190.446575 
L 235.035303 190.446575 
L 235.035303 181.536951 
L 235.035303 185.170355 
L 237.11431 185.170355 
L 237.11431 183.008771 
L 237.11431 193.895941 
L 248.92065 193.895941 
L 248.92065 181.620659 
L 248.92065 189.17528 
L 251.255089 189.17528 
L 251.255089 186.748118 
L 251.255089 192.428884 
L 254.546048 192.428884 
L 254.546048 189.007209 
L 254.546048 189.618805 
L 272.864919 189.618805 
L 272.864919 170.572317 
L 272.864919 171.509158 
L 294.915548 171.509158 
L 294.915548 148.582688 
L 294.915548 152.343294 
L 296.420113 152.343294 
L 296.420113 150.778969 
L 296.420113 155.749824 
L 311.582158 155.749824 
L 311.582158 139.985549 
L 311.582158 148.375314 
L 323.655063 148.375314 
L 323.655063 135.822879 
L 323.655063 142.669372 
L 332.316264 142.669372 
L 332.316264 133.664152 
L 332.316264 145.709863 
L 334.42719 145.709863 
L 334.42719 143.515093 
L 334.42719 147.795387 
L 336.264538 147.795387 
L 336.264538 145.88506 
L 336.264538 173.873438 
L 357.455136 173.873438 
L 357.455136 151.841159 
L 357.455136 152.097289 
L 366.441 152.097289 
L 366.441 142.754511 
L 366.441 159.268954 
L 367.904576 159.268954 
L 367.904576 157.747245 
L 367.904576 163.090805 
L 386.062984 163.090805 
L 386.062984 144.211153 
L 386.062984 144.431055 
L 394.848065 144.431055 
L 394.848065 135.297035 
L 394.848065 137.544066 
L 413.825031 137.544066 
L 413.825031 117.813343 
L 413.825031 140.369747 
L 413.825031 140.369747 
" clip-path="url(#p5fbe20b274)" style="fill: none; stroke: #4d4d4d; stroke-opacity: 0.28; stroke-width: 0.7; stroke-linecap: square"/>
   </g>
   <g id="line2d_36">
    <path d="M 36.514219 195.996602 
L 57.732081 195.996602 
L 57.732081 173.935976 
L 57.732081 178.029346 
L 72.289075 178.029346 
L 72.289075 162.894155 
L 72.289075 174.746649 
L 75.113596 174.746649 
L 75.113596 171.809939 
L 75.113596 183.052245 
L 75.390726 183.052245 
L 75.390726 182.764108 
L 75.390726 188.539415 
L 77.311582 188.539415 
L 77.311582 186.542264 
L 77.311582 187.360336 
L 77.900056 187.360336 
L 77.900056 186.748488 
L 77.900056 194.336405 
L 80.95229 194.336405 
L 80.95229 191.162937 
L 80.95229 199.377781 
L 81.449009 199.377781 
L 81.449009 198.861333 
L 81.449009 201.27306 
L 87.147603 201.27306 
L 87.147603 195.348121 
L 87.147603 205.30739 
L 89.96837 205.30739 
L 89.96837 202.374584 
L 89.96837 208.635091 
L 105.925724 208.635091 
L 105.925724 192.043918 
L 105.925724 198.135992 
L 107.874795 198.135992 
L 107.874795 196.109503 
L 107.874795 196.2668 
L 122.873986 196.2668 
L 122.873986 180.671849 
L 122.873986 180.808741 
L 138.1383 180.808741 
L 138.1383 164.938135 
L 138.1383 169.7313 
L 158.700764 169.7313 
L 158.700764 148.352104 
L 158.700764 158.561455 
L 204.13376 158.561455 
L 204.13376 111.323881 
L 204.13376 114.073834 
L 214.845124 114.073834 
L 214.845124 102.937019 
L 214.845124 106.210186 
L 219.649077 106.210186 
L 219.649077 101.215422 
L 219.649077 107.503462 
L 234.853543 107.503462 
L 234.853543 91.695081 
L 234.853543 118.058739 
L 245.599241 118.058739 
L 245.599241 106.886227 
L 245.599241 110.330265 
L 249.61966 110.330265 
L 249.61966 106.150157 
L 249.61966 114.668609 
L 251.624683 114.668609 
L 251.624683 112.583947 
L 251.624683 113.329359 
L 254.842956 113.329359 
L 254.842956 109.983259 
L 254.842956 112.139326 
L 257.425505 112.139326 
L 257.425505 109.454199 
L 257.425505 111.148323 
L 257.741548 111.148323 
L 257.741548 110.819727 
L 257.741548 110.934567 
L 290.077021 110.934567 
L 290.077021 77.314744 
L 290.077021 80.869165 
L 293.641574 80.869165 
L 293.641574 77.163029 
L 293.641574 84.411274 
L 295.451086 84.411274 
L 295.451086 82.52989 
L 295.451086 101.600042 
L 306.793491 101.600042 
L 306.793491 89.807121 
L 306.793491 90.403517 
L 310.766106 90.403517 
L 310.766106 86.273112 
L 310.766106 99.727113 
L 332.045611 99.727113 
L 332.045611 77.602395 
L 332.045611 81.613792 
L 339.030066 81.613792 
L 339.030066 74.351918 
L 339.030066 75.515643 
L 373.786792 75.515643 
L 373.786792 39.378395 
L 373.786792 41.056454 
L 394.805023 41.056454 
L 394.805023 19.203388 
L 394.805023 25.881624 
L 401.682388 25.881624 
L 401.682388 18.731093 
L 401.682388 23.308326 
L 403.609555 23.308326 
L 403.609555 21.304613 
L 403.609555 22.54133 
L 405.440082 22.54133 
L 405.440082 20.638096 
L 405.440082 21.951908 
" clip-path="url(#p5fbe20b274)" style="fill: none; stroke: #4d4d4d; stroke-opacity: 0.28; stroke-width: 0.7; stroke-linecap: square"/>
   </g>
   <g id="line2d_37">
    <path d="M 36.514219 227.833715 
L 447.59952 227.833715 
" clip-path="url(#p5fbe20b274)" style="fill: none; stroke-dasharray: 3.145,1.36; stroke-dashoffset: 0; stroke: #b64342; stroke-opacity: 0.8; stroke-width: 0.85"/>
   </g>
   <g id="patch_3">
    <path d="M 36.514219 260.884051 
L 36.514219 7.2 
" style="fill: none; stroke: #000000; stroke-width: 0.85; stroke-linejoin: miter; stroke-linecap: square"/>
   </g>
   <g id="patch_4">
    <path d="M 36.514219 260.884051 
L 447.59952 260.884051 
" style="fill: none; stroke: #000000; stroke-width: 0.85; stroke-linejoin: miter; stroke-linecap: square"/>
   </g>
   <g id="text_17">
    <!-- 破产线 $U=0$ -->
    <g style="fill: #b64342" transform="translate(392.177814 222.800757)">
     <text>
      <tspan x="0" y="-0.3125" style="font-size: 8px; font-family: 'Microsoft YaHei'; fill: #b64342">破</tspan>
      <tspan x="8" y="-0.3125" style="font-size: 8px; font-family: 'Microsoft YaHei'; fill: #b64342">产</tspan>
      <tspan x="16" y="-0.3125" style="font-size: 8px; font-family: 'Microsoft YaHei'; fill: #b64342">线</tspan>
      <tspan x="24" y="-0.3125" style="font-size: 8px; font-family: 'Microsoft YaHei'; fill: #b64342"> </tspan>
      <tspan x="26.367188" y="-0.3125" style="font-style: oblique; font-size: 8px; font-family: 'DejaVu Sans'; fill: #b64342">U</tspan>
      <tspan x="33.78125" y="-0.3125" style="font-size: 8px; font-family: 'DejaVu Sans'; fill: #b64342">=</tspan>
      <tspan x="42.042969" y="-0.3125" style="font-size: 8px; font-family: 'DejaVu Sans'; fill: #b64342">0</tspan>
     </text>
    </g>
   </g>
   <g id="text_18">
    <g id="patch_5">
     <path d="M 352.897814 36.593862 
L 440.577814 36.593862 
L 440.577814 16.147362 
L 352.897814 16.147362 
z
" style="fill: #ffffff; opacity: 0.88"/>
    </g>
    <!-- $\theta=0.2,\ u=5,\ T=50$ -->
    <g style="fill: #4d4d4d" transform="translate(354.097814 23.742362)">
     <text>
      <tspan x="0" y="-0.859375" style="font-style: oblique; font-size: 8px; font-family: 'DejaVu Sans'; fill: #4d4d4d">θ</tspan>
      <tspan x="33.761693" y="-0.859375" style="font-style: oblique; font-size: 8px; font-family: 'DejaVu Sans'; fill: #4d4d4d">u</tspan>
      <tspan x="60.441354" y="-0.859375" style="font-style: oblique; font-size: 8px; font-family: 'DejaVu Sans'; fill: #4d4d4d">T</tspan>
      <tspan x="6.453125" y="-0.859375" style="font-size: 8px; font-family: 'DejaVu Sans'; fill: #4d4d4d">=</tspan>
      <tspan x="14.714844" y="-0.859375" style="font-size: 8px; font-family: 'DejaVu Sans'; fill: #4d4d4d">0</tspan>
      <tspan x="19.804688" y="-0.859375" style="font-size: 8px; font-family: 'DejaVu Sans'; fill: #4d4d4d">.</tspan>
      <tspan x="21.972656" y="-0.859375" style="font-size: 8px; font-family: 'DejaVu Sans'; fill: #4d4d4d">2</tspan>
      <tspan x="27.0625" y="-0.859375" style="font-size: 8px; font-family: 'DejaVu Sans'; fill: #4d4d4d">,</tspan>
      <tspan x="40.390599" y="-0.859375" style="font-size: 8px; font-family: 'DejaVu Sans'; fill: #4d4d4d">=</tspan>
      <tspan x="48.652318" y="-0.859375" style="font-size: 8px; font-family: 'DejaVu Sans'; fill: #4d4d4d">5</tspan>
      <tspan x="53.742162" y="-0.859375" style="font-size: 8px; font-family: 'DejaVu Sans'; fill: #4d4d4d">,</tspan>
      <tspan x="66.886667" y="-0.859375" style="font-size: 8px; font-family: 'DejaVu Sans'; fill: #4d4d4d">=</tspan>
      <tspan x="75.148386" y="-0.859375" style="font-size: 8px; font-family: 'DejaVu Sans'; fill: #4d4d4d">5</tspan>
      <tspan x="80.238229" y="-0.859375" style="font-size: 8px; font-family: 'DejaVu Sans'; fill: #4d4d4d">0</tspan>
     </text>
    </g>
    <text style="font-size: 8px; font-family: 'Microsoft YaHei', 'Arial', 'DejaVu Sans', sans-serif; fill: #4d4d4d" transform="translate(403.519064 33.405112)">破产 7/15</text>
   </g>
   <g id="line2d_38">
    <path d="M 36.514219 195.996602 
L 39.962874 195.996602 
L 39.962874 192.410968 
L 39.962874 192.410968 
L 39.962874 211.577683 
L 49.639648 211.577683 
L 49.639648 201.516552 
L 49.639648 201.516552 
L 49.639648 207.329643 
L 50.886223 207.329643 
L 50.886223 206.033555 
L 50.886223 206.033555 
L 50.886223 207.113446 
L 51.325978 207.113446 
L 51.325978 206.656224 
L 51.325978 206.656224 
L 51.325978 219.462581 
L 58.08032 219.462581 
L 58.08032 212.439959 
L 58.08032 212.439959 
L 58.08032 220.279849 
L 58.233175 220.279849 
L 58.233175 220.120923 
L 58.233175 220.120923 
L 58.233175 242.429555 
" clip-path="url(#p5fbe20b274)" style="fill: none; stroke: #b64342; stroke-opacity: 0.82; stroke-width: 0.85; stroke-linecap: square"/>
   </g>
   <g id="line2d_39">
    <path d="M 36.514219 195.996602 
L 48.038899 195.996602 
L 48.038899 184.014166 
L 48.038899 184.014166 
L 48.038899 193.939902 
L 48.741736 193.939902 
L 48.741736 193.209149 
L 48.741736 193.209149 
L 48.741736 197.552047 
L 49.177398 197.552047 
L 49.177398 197.099081 
L 49.177398 197.099081 
L 49.177398 202.176855 
L 53.458601 202.176855 
L 53.458601 197.725604 
L 53.458601 197.725604 
L 53.458601 211.648729 
L 56.634781 211.648729 
L 56.634781 208.346393 
L 56.634781 208.346393 
L 56.634781 209.139175 
L 57.768789 209.139175 
L 57.768789 207.960125 
L 57.768789 207.960125 
L 57.768789 217.087383 
L 64.84519 217.087383 
L 64.84519 209.72991 
L 64.84519 209.72991 
L 64.84519 210.408733 
L 65.490841 210.408733 
L 65.490841 209.737437 
L 65.490841 209.737437 
L 65.490841 217.424243 
L 66.04603 217.424243 
L 66.04603 216.847003 
L 66.04603 216.847003 
L 66.04603 227.83199 
L 75.048563 227.83199 
L 75.048563 218.471881 
L 75.048563 218.471881 
L 75.048563 219.012149 
L 75.700081 219.012149 
L 75.700081 218.334753 
L 75.700081 218.334753 
L 75.700081 245.813101 
" clip-path="url(#p5fbe20b274)" style="fill: none; stroke: #b64342; stroke-opacity: 0.82; stroke-width: 0.85; stroke-linecap: square"/>
   </g>
   <g id="line2d_40">
    <path d="M 36.514219 195.996602 
L 39.95971 195.996602 
L 39.95971 192.414257 
L 39.95971 192.414257 
L 39.95971 195.362726 
L 52.273527 195.362726 
L 52.273527 182.55981 
L 52.273527 182.55981 
L 52.273527 201.293815 
L 83.64478 201.293815 
L 83.64478 168.676509 
L 83.64478 168.676509 
L 83.64478 177.590259 
L 87.113666 177.590259 
L 87.113666 173.983591 
L 87.113666 173.983591 
L 87.113666 174.538792 
L 98.14631 174.538792 
L 98.14631 163.067937 
L 98.14631 163.067937 
L 98.14631 168.272416 
L 102.203205 168.272416 
L 102.203205 164.054382 
L 102.203205 164.054382 
L 102.203205 179.133952 
L 103.069508 179.133952 
L 103.069508 178.233241 
L 103.069508 178.233241 
L 103.069508 182.553569 
L 103.153423 182.553569 
L 103.153423 182.466321 
L 103.153423 182.466321 
L 103.153423 186.492789 
L 103.579301 186.492789 
L 103.579301 186.049995 
L 103.579301 186.049995 
L 103.579301 186.855416 
L 104.49812 186.855416 
L 104.49812 185.900103 
L 104.49812 185.900103 
L 104.49812 192.570413 
L 114.570654 192.570413 
L 114.570654 182.097803 
L 114.570654 182.097803 
L 114.570654 187.672824 
L 138.636598 187.672824 
L 138.636598 162.650991 
L 138.636598 162.650991 
L 138.636598 165.642384 
L 141.109313 165.642384 
L 141.109313 163.071455 
L 141.109313 163.071455 
L 141.109313 175.994155 
L 142.969215 175.994155 
L 142.969215 174.060379 
L 142.969215 174.060379 
L 142.969215 195.091149 
L 143.059086 195.091149 
L 143.059086 194.997708 
L 143.059086 194.997708 
L 143.059086 217.299778 
L 143.383316 217.299778 
L 143.383316 216.962669 
L 143.383316 216.962669 
L 143.383316 231.083837 
" clip-path="url(#p5fbe20b274)" style="fill: none; stroke: #b64342; stroke-opacity: 0.82; stroke-width: 0.85; stroke-linecap: square"/>
   </g>
   <g id="line2d_41">
    <path d="M 36.514219 195.996602 
L 40.915002 195.996602 
L 40.915002 191.421022 
L 40.915002 192.301613 
L 63.551591 192.301613 
L 63.551591 168.765909 
L 63.551591 174.699377 
L 65.459421 174.699377 
L 65.459421 172.715769 
L 65.459421 179.807992 
L 72.534093 179.807992 
L 72.534093 172.452317 
L 72.534093 175.275762 
L 73.419936 175.275762 
L 73.419936 174.354734 
L 73.419936 181.444485 
L 78.818594 181.444485 
L 78.818594 175.831395 
L 78.818594 185.253953 
L 84.215043 185.253953 
L 84.215043 179.643159 
L 84.215043 191.816207 
L 90.114489 191.816207 
L 90.114489 185.682438 
L 90.114489 190.923556 
L 105.494189 190.923556 
L 105.494189 174.932981 
L 105.494189 178.222693 
L 106.551623 178.222693 
L 106.551623 177.123259 
L 106.551623 177.309219 
L 116.892099 177.309219 
L 116.892099 166.558024 
L 116.892099 172.72423 
L 125.840732 172.72423 
L 125.840732 163.420162 
L 125.840732 164.945041 
L 126.918188 164.945041 
L 126.918188 163.824789 
L 126.918188 163.918081 
L 130.090661 163.918081 
L 130.090661 160.619598 
L 130.090661 166.295502 
L 133.750334 166.295502 
L 133.750334 162.490469 
L 133.750334 166.153772 
L 150.98421 166.153772 
L 150.98421 148.235374 
L 150.98421 150.961285 
L 156.286703 150.961285 
L 156.286703 145.448179 
L 156.286703 155.195886 
L 159.998541 155.195886 
L 159.998541 151.336616 
L 159.998541 157.532694 
L 174.572657 157.532694 
L 174.572657 142.3797 
L 174.572657 161.394037 
L 175.741751 161.394037 
L 175.741751 160.178507 
L 175.741751 176.808068 
L 180.720724 176.808068 
L 180.720724 171.631332 
L 180.720724 173.533507 
L 185.237329 173.533507 
L 185.237329 168.837505 
L 185.237329 193.757389 
L 190.223567 193.757389 
L 190.223567 188.5731 
L 190.223567 191.111256 
L 197.598195 191.111256 
L 197.598195 183.443711 
L 197.598195 185.192386 
L 198.177998 185.192386 
L 198.177998 184.589555 
L 198.177998 185.468101 
L 199.184947 185.468101 
L 199.184947 184.421156 
L 199.184947 185.470252 
L 200.28333 185.470252 
L 200.28333 184.328242 
L 200.28333 190.849018 
L 201.758617 190.849018 
L 201.758617 189.315133 
L 201.758617 192.015808 
L 218.448024 192.015808 
L 218.448024 174.663505 
L 218.448024 178.753817 
L 226.541406 178.753817 
L 226.541406 170.338969 
L 226.541406 171.543231 
L 228.110794 171.543231 
L 228.110794 169.911507 
L 228.110794 170.177202 
L 229.470708 170.177202 
L 229.470708 168.763273 
L 229.470708 170.842543 
L 230.902382 170.842543 
L 230.902382 169.354004 
L 230.902382 169.945447 
L 231.847142 169.945447 
L 231.847142 168.963161 
L 231.847142 172.895868 
L 233.545441 172.895868 
L 233.545441 171.130114 
L 233.545441 174.014436 
L 238.689784 174.014436 
L 238.689784 168.665762 
L 238.689784 176.131294 
L 238.984522 176.131294 
L 238.984522 175.82485 
L 238.984522 186.054078 
L 246.249704 186.054078 
L 246.249704 178.500325 
L 246.249704 179.043437 
L 261.448443 179.043437 
L 261.448443 163.241012 
L 261.448443 179.393212 
L 261.911598 179.393212 
L 261.911598 178.91166 
L 261.911598 180.975831 
L 273.970844 180.975831 
L 273.970844 168.437598 
L 273.970844 177.220548 
L 275.469892 177.220548 
L 275.469892 175.661959 
L 275.469892 177.15766 
L 278.870903 177.15766 
L 278.870903 173.621562 
L 278.870903 177.841015 
L 285.948011 177.841015 
L 285.948011 170.482807 
L 285.948011 173.413812 
L 290.510945 173.413812 
L 290.510945 168.66964 
L 290.510945 177.432672 
L 290.785599 177.432672 
L 290.785599 177.147108 
L 290.785599 178.999625 
L 299.968125 178.999625 
L 299.968125 169.452373 
L 299.968125 183.815794 
L 305.23574 183.815794 
L 305.23574 178.338951 
L 305.23574 183.175197 
L 306.068833 183.175197 
L 306.068833 182.309013 
L 306.068833 186.085807 
L 311.658539 186.085807 
L 311.658539 180.274081 
L 311.658539 182.042268 
L 313.963736 182.042268 
L 313.963736 179.64551 
L 313.963736 182.661535 
L 314.11274 182.661535 
L 314.11274 182.506613 
L 314.11274 184.981788 
L 315.858547 184.981788 
L 315.858547 183.166637 
L 315.858547 185.692907 
L 316.79601 185.692907 
L 316.79601 184.718209 
L 316.79601 198.803457 
L 323.413048 198.803457 
L 323.413048 191.923593 
L 323.413048 199.161016 
L 334.853315 199.161016 
L 334.853315 187.266346 
L 334.853315 191.6601 
L 335.521575 191.6601 
L 335.521575 190.965296 
L 335.521575 195.869857 
L 342.017533 195.869857 
L 342.017533 189.115883 
L 342.017533 197.827897 
L 346.169977 197.827897 
L 346.169977 193.510519 
L 346.169977 194.379575 
L 348.622798 194.379575 
L 348.622798 191.829329 
L 348.622798 194.701768 
L 356.252719 194.701768 
L 356.252719 186.76879 
L 356.252719 192.154239 
L 359.487802 192.154239 
L 359.487802 188.79066 
L 359.487802 216.210029 
L 366.328501 216.210029 
L 366.328501 209.09762 
L 366.328501 210.821884 
L 367.117366 210.821884 
L 367.117366 210.001686 
L 367.117366 211.057967 
L 369.192041 211.057967 
L 369.192041 208.900886 
L 369.192041 210.016235 
L 370.70955 210.016235 
L 370.70955 208.438451 
L 370.70955 210.575395 
L 372.108819 210.575395 
L 372.108819 209.120548 
L 372.108819 223.579382 
L 372.723459 223.579382 
L 372.723459 222.940329 
L 372.723459 227.67395 
L 376.60598 227.67395 
L 376.60598 223.637216 
L 376.60598 249.352958 
L 376.60598 249.352958 
" clip-path="url(#p5fbe20b274)" style="fill: none; stroke: #b64342; stroke-opacity: 0.82; stroke-width: 0.85; stroke-linecap: square"/>
   </g>
   <g id="line2d_42">
    <path d="M 36.514219 195.996602 
L 37.387482 195.996602 
L 37.387482 195.088653 
L 37.387482 195.088653 
L 37.387482 198.318579 
L 63.028609 198.318579 
L 63.028609 171.658998 
L 63.028609 171.658998 
L 63.028609 184.433602 
L 75.512097 184.433602 
L 75.512097 171.454275 
L 75.512097 171.454275 
L 75.512097 173.353519 
L 76.889298 173.353519 
L 76.889298 171.921616 
L 76.889298 171.921616 
L 76.889298 178.954814 
L 96.366999 178.954814 
L 96.366999 158.703467 
L 96.366999 158.703467 
L 96.366999 163.884324 
L 102.596955 163.884324 
L 102.596955 157.406916 
L 102.596955 157.406916 
L 102.596955 159.498455 
L 113.381431 159.498455 
L 113.381431 148.285624 
L 113.381431 148.285624 
L 113.381431 149.604178 
L 116.255539 149.604178 
L 116.255539 146.615912 
L 116.255539 146.615912 
L 116.255539 150.144384 
L 121.4622 150.144384 
L 121.4622 144.730917 
L 121.4622 144.730917 
L 121.4622 146.498593 
L 122.358657 146.498593 
L 122.358657 145.56653 
L 122.358657 145.56653 
L 122.358657 151.572281 
L 124.861459 151.572281 
L 124.861459 148.970068 
L 124.861459 148.970068 
L 124.861459 154.512611 
L 126.093629 154.512611 
L 126.093629 153.2315 
L 126.093629 153.2315 
L 126.093629 157.409302 
L 131.682897 157.409302 
L 131.682897 151.598031 
L 131.682897 151.598031 
L 131.682897 151.936871 
L 134.698809 151.936871 
L 134.698809 148.801168 
L 134.698809 148.801168 
L 134.698809 149.720301 
L 135.179965 149.720301 
L 135.179965 149.220034 
L 135.179965 149.220034 
L 135.179965 178.517828 
L 138.039685 178.517828 
L 138.039685 175.544521 
L 138.039685 175.544521 
L 138.039685 186.114893 
L 140.199476 186.114893 
L 140.199476 183.869315 
L 140.199476 183.869315 
L 140.199476 191.154547 
L 150.694346 191.154547 
L 150.694346 180.242825 
L 150.694346 180.242825 
L 150.694346 186.008187 
L 155.38196 186.008187 
L 155.38196 181.134383 
L 155.38196 181.134383 
L 155.38196 184.513942 
L 158.535002 184.513942 
L 158.535002 181.235662 
L 158.535002 181.235662 
L 158.535002 198.125608 
L 171.583953 198.125608 
L 171.583953 184.558359 
L 171.583953 184.558359 
L 171.583953 205.90945 
L 172.559376 205.90945 
L 172.559376 204.895284 
L 172.559376 204.895284 
L 172.559376 213.252853 
L 193.034647 213.252853 
L 193.034647 191.964313 
L 193.034647 191.964313 
L 193.034647 193.237517 
L 193.540335 193.237517 
L 193.540335 192.711743 
L 193.540335 192.711743 
L 193.540335 201.316635 
L 199.819527 201.316635 
L 199.819527 194.788036 
L 199.819527 194.788036 
L 199.819527 206.530055 
L 200.92598 206.530055 
L 200.92598 205.379653 
L 200.92598 205.379653 
L 200.92598 215.478705 
L 202.580828 215.478705 
L 202.580828 213.758127 
L 202.580828 213.758127 
L 202.580828 214.896082 
L 203.899568 214.896082 
L 203.899568 213.524962 
L 203.899568 213.524962 
L 203.899568 224.254727 
L 211.940953 224.254727 
L 211.940953 215.893942 
L 211.940953 215.893942 
L 211.940953 220.608229 
L 215.207303 220.608229 
L 215.207303 217.21214 
L 215.207303 217.21214 
L 215.207303 230.565916 
" clip-path="url(#p5fbe20b274)" style="fill: none; stroke: #b64342; stroke-opacity: 0.82; stroke-width: 0.85; stroke-linecap: square"/>
   </g>
   <g id="line2d_43">
    <path d="M 36.514219 195.996602 
L 40.176323 195.996602 
L 40.176323 192.18904 
L 40.176323 192.18904 
L 40.176323 202.988716 
L 44.42607 202.988716 
L 44.42607 198.570171 
L 44.42607 198.570171 
L 44.42607 201.582723 
L 48.990987 201.582723 
L 48.990987 196.836489 
L 48.990987 196.836489 
L 48.990987 199.120135 
L 59.108935 199.120135 
L 59.108935 188.600307 
L 59.108935 188.600307 
L 59.108935 193.048607 
L 61.050855 193.048607 
L 61.050855 191.029554 
L 61.050855 191.029554 
L 61.050855 205.664055 
L 64.610213 205.664055 
L 64.610213 201.963322 
L 64.610213 201.963322 
L 64.610213 206.957179 
L 82.023655 206.957179 
L 82.023655 188.852083 
L 82.023655 188.852083 
L 82.023655 195.084512 
L 82.937244 195.084512 
L 82.937244 194.134635 
L 82.937244 194.134635 
L 82.937244 212.03102 
L 90.198629 212.03102 
L 90.198629 204.481216 
L 90.198629 204.481216 
L 90.198629 207.078018 
L 91.30081 207.078018 
L 91.30081 205.932059 
L 91.30081 205.932059 
L 91.30081 215.992596 
L 98.413 215.992596 
L 98.413 208.597913 
L 98.413 208.597913 
L 98.413 213.452524 
L 114.899054 213.452524 
L 114.899054 196.311652 
L 114.899054 196.311652 
L 114.899054 206.206563 
L 116.107902 206.206563 
L 116.107902 204.9497 
L 116.107902 204.9497 
L 116.107902 207.328331 
L 118.20729 207.328331 
L 118.20729 205.145556 
L 118.20729 205.145556 
L 118.20729 213.820329 
L 118.457947 213.820329 
L 118.457947 213.559716 
L 118.457947 213.559716 
L 118.457947 218.931997 
L 129.021511 218.931997 
L 129.021511 207.948852 
L 129.021511 207.948852 
L 129.021511 221.280117 
L 132.098354 221.280117 
L 132.098354 218.081064 
L 132.098354 218.081064 
L 132.098354 229.044543 
" clip-path="url(#p5fbe20b274)" style="fill: none; stroke: #b64342; stroke-opacity: 0.82; stroke-width: 0.85; stroke-linecap: square"/>
   </g>
   <g id="line2d_44">
    <path d="M 36.514219 195.996602 
L 37.375845 195.996602 
L 37.375845 195.100752 
L 37.375845 195.100752 
L 37.375845 207.031672 
L 38.3781 207.031672 
L 38.3781 205.989608 
L 38.3781 205.989608 
L 38.3781 209.213527 
L 50.107156 209.213527 
L 50.107156 197.018598 
L 50.107156 197.018598 
L 50.107156 198.052806 
L 52.020786 198.052806 
L 52.020786 196.063167 
L 52.020786 196.063167 
L 52.020786 204.22011 
L 61.37678 204.22011 
L 61.37678 194.492501 
L 61.37678 194.492501 
L 61.37678 201.018117 
L 70.078018 201.018117 
L 70.078018 191.97127 
L 70.078018 191.97127 
L 70.078018 196.953581 
L 72.209846 196.953581 
L 72.209846 194.737079 
L 72.209846 194.737079 
L 72.209846 197.438032 
L 73.682596 197.438032 
L 73.682596 195.906785 
L 73.682596 195.906785 
L 73.682596 211.130504 
L 80.117454 211.130504 
L 80.117454 204.440056 
L 80.117454 204.440056 
L 80.117454 207.701741 
L 84.673159 207.701741 
L 84.673159 202.965085 
L 84.673159 202.965085 
L 84.673159 221.703288 
L 85.896545 221.703288 
L 85.896545 220.431309 
L 85.896545 220.431309 
L 85.896545 226.050207 
L 91.077555 226.050207 
L 91.077555 220.66341 
L 91.077555 220.66341 
L 91.077555 226.682817 
L 91.211867 226.682817 
L 91.211867 226.54317 
L 91.211867 226.54317 
L 91.211867 239.639007 
" clip-path="url(#p5fbe20b274)" style="fill: none; stroke: #b64342; stroke-opacity: 0.82; stroke-width: 0.85; stroke-linecap: square"/>
   </g>
   <g id="legend_1">
    <g id="line2d_45">
     <path d="M 401.19952 15.995 
L 407.99952 15.995 
L 414.79952 15.995 
" style="fill: none; stroke: #4d4d4d; stroke-opacity: 0.7; stroke-width: 0.8; stroke-linecap: square"/>
    </g>
    <g id="text_19">
     <text style="font-size: 8px; font-family: 'Microsoft YaHei', 'Arial', 'DejaVu Sans', sans-serif; text-anchor: start" x="418.39952" y="18.795" transform="rotate(-0 418.39952 18.795)">未破产</text>
    </g>
    <g id="line2d_46">
     <path d="M 401.19952 27.17875 
L 407.99952 27.17875 
L 414.79952 27.17875 
" style="fill: none; stroke: #b64342; stroke-width: 0.8; stroke-linecap: square"/>
    </g>
    <g id="text_20">
     <text style="font-size: 8px; font-family: 'Microsoft YaHei', 'Arial', 'DejaVu Sans', sans-serif; text-anchor: start" x="418.39952" y="29.97875" transform="rotate(-0 418.39952 29.97875)">破产</text>
    </g>
   </g>
   <g id="PathCollection_1">
    <defs>
     <path id="m0587dab249" d="M -2.12132 2.12132 
L 2.12132 -2.12132 
M -2.12132 -2.12132 
L 2.12132 2.12132 
" style="stroke: #b64342; stroke-width: 1.15"/>
    </defs>
    <g clip-path="url(#p5fbe20b274)">
     <use xlink:href="#m0587dab249" x="58.233175" y="242.429555" style="fill: #b64342; stroke: #b64342; stroke-width: 1.15"/>
    </g>
   </g>
   <g id="PathCollection_2">
    <g clip-path="url(#p5fbe20b274)">
     <use xlink:href="#m0587dab249" x="75.700081" y="245.813101" style="fill: #b64342; stroke: #b64342; stroke-width: 1.15"/>
    </g>
   </g>
   <g id="PathCollection_3">
    <g clip-path="url(#p5fbe20b274)">
     <use xlink:href="#m0587dab249" x="143.383316" y="231.083837" style="fill: #b64342; stroke: #b64342; stroke-width: 1.15"/>
    </g>
   </g>
   <g id="PathCollection_4">
    <g clip-path="url(#p5fbe20b274)">
     <use xlink:href="#m0587dab249" x="376.60598" y="249.352958" style="fill: #b64342; stroke: #b64342; stroke-width: 1.15"/>
    </g>
   </g>
   <g id="PathCollection_5">
    <g clip-path="url(#p5fbe20b274)">
     <use xlink:href="#m0587dab249" x="215.207303" y="230.565916" style="fill: #b64342; stroke: #b64342; stroke-width: 1.15"/>
    </g>
   </g>
   <g id="PathCollection_6">
    <g clip-path="url(#p5fbe20b274)">
     <use xlink:href="#m0587dab249" x="132.098354" y="229.044543" style="fill: #b64342; stroke: #b64342; stroke-width: 1.15"/>
    </g>
   </g>
   <g id="PathCollection_7">
    <g clip-path="url(#p5fbe20b274)">
     <use xlink:href="#m0587dab249" x="91.211867" y="239.639007" style="fill: #b64342; stroke: #b64342; stroke-width: 1.15"/>
    </g>
   </g>
  </g>
 </g>
 <defs>
  <clipPath id="p5fbe20b274">
   <rect x="36.514219" y="7.2" width="411.085301" height="253.684051"/>
  </clipPath>
 </defs>
</svg>
