<?xml version="1.0" encoding="utf-8" standalone="no"?>
<!DOCTYPE svg PUBLIC "-//W3C//DTD SVG 1.1//EN"
  "http://www.w3.org/Graphics/SVG/1.1/DTD/svg11.dtd">
<svg xmlns:xlink="http://www.w3.org/1999/xlink" width="454.79952pt" height="353.99952pt" viewBox="0 0 454.79952 353.99952" xmlns="http://www.w3.org/2000/svg" version="1.1">
 <metadata>
  <rdf:RDF xmlns:dc="http://purl.org/dc/elements/1.1/" xmlns:cc="http://creativecommons.org/ns#" xmlns:rdf="http://www.w3.org/1999/02/22-rdf-syntax-ns#">
   <cc:Work>
    <dc:type rdf:resource="http://purl.org/dc/dcmitype/StillImage"/>
    <dc:date>2026-06-04T21:48:23.167074</dc:date>
    <dc:format>image/svg+xml</dc:format>
    <dc:creator>
     <cc:Agent>
      <dc:title>Matplotlib v3.10.0, https://matplotlib.org/</dc:title>
     </cc:Agent>
    </dc:creator>
   </cc:Work>
  </rdf:RDF>
 </metadata>
 <defs>
  <style type="text/css">*{stroke-linejoin: round; stroke-linecap: butt}</style>
 </defs>
 <g id="figure_1">
  <g id="patch_1">
   <path d="M 0 353.99952 
L 454.79952 353.99952 
L 454.79952 0 
L 0 0 
z
" style="fill: #ffffff"/>
  </g>
  <g id="axes_1">
   <g id="patch_2">
    <path d="M 38.63875 150.606764 
L 447.59952 150.606764 
L 447.59952 7.2 
L 38.63875 7.2 
z
" style="fill: #ffffff"/>
   </g>
   <g id="matplotlib.axis_1">
    <g id="xtick_1">
     <g id="line2d_1">
      <path d="M 38.63875 150.606764 
L 38.63875 7.2 
" clip-path="url(#pa258acd295)" style="fill: none; stroke: #e6e6e6; stroke-opacity: 0.55; stroke-width: 0.35; stroke-linecap: square"/>
     </g>
     <g id="line2d_2">
      <defs>
       <path id="mde05e43035" d="M 0 0 
L 0 3 
" style="stroke: #000000; stroke-width: 0.8"/>
      </defs>
      <g>
       <use xlink:href="#mde05e43035" x="38.63875" y="150.606764" style="stroke: #000000; stroke-width: 0.8"/>
      </g>
     </g>
     <g id="text_1">
      <text style="font-size: 8px; font-family: 'Microsoft YaHei', 'Arial', 'DejaVu Sans', sans-serif; text-anchor: middle" x="38.63875" y="163.501764" transform="rotate(-0 38.63875 163.501764)">0</text>
     </g>
    </g>
    <g id="xtick_2">
     <g id="line2d_3">
      <path d="M 116.46253 150.606764 
L 116.46253 7.2 
" clip-path="url(#pa258acd295)" style="fill: none; stroke: #e6e6e6; stroke-opacity: 0.55; stroke-width: 0.35; stroke-linecap: square"/>
     </g>
     <g id="line2d_4">
      <g>
       <use xlink:href="#mde05e43035" x="116.46253" y="150.606764" style="stroke: #000000; stroke-width: 0.8"/>
      </g>
     </g>
     <g id="text_2">
      <text style="font-size: 8px; font-family: 'Microsoft YaHei', 'Arial', 'DejaVu Sans', sans-serif; text-anchor: middle" x="116.46253" y="163.501764" transform="rotate(-0 116.46253 163.501764)">20</text>
     </g>
    </g>
    <g id="xtick_3">
     <g id="line2d_5">
      <path d="M 194.28631 150.606764 
L 194.28631 7.2 
" clip-path="url(#pa258acd295)" style="fill: none; stroke: #e6e6e6; stroke-opacity: 0.55; stroke-width: 0.35; stroke-linecap: square"/>
     </g>
     <g id="line2d_6">
      <g>
       <use xlink:href="#mde05e43035" x="194.28631" y="150.606764" style="stroke: #000000; stroke-width: 0.8"/>
      </g>
     </g>
     <g id="text_3">
      <text style="font-size: 8px; font-family: 'Microsoft YaHei', 'Arial', 'DejaVu Sans', sans-serif; text-anchor: middle" x="194.28631" y="163.501764" transform="rotate(-0 194.28631 163.501764)">40</text>
     </g>
    </g>
    <g id="xtick_4">
     <g id="line2d_7">
      <path d="M 272.110089 150.606764 
L 272.110089 7.2 
" clip-path="url(#pa258acd295)" style="fill: none; stroke: #e6e6e6; stroke-opacity: 0.55; stroke-width: 0.35; stroke-linecap: square"/>
     </g>
     <g id="line2d_8">
      <g>
       <use xlink:href="#mde05e43035" x="272.110089" y="150.606764" style="stroke: #000000; stroke-width: 0.8"/>
      </g>
     </g>
     <g id="text_4">
      <text style="font-size: 8px; font-family: 'Microsoft YaHei', 'Arial', 'DejaVu Sans', sans-serif; text-anchor: middle" x="272.110089" y="163.501764" transform="rotate(-0 272.110089 163.501764)">60</text>
     </g>
    </g>
    <g id="xtick_5">
     <g id="line2d_9">
      <path d="M 349.933869 150.606764 
L 349.933869 7.2 
" clip-path="url(#pa258acd295)" style="fill: none; stroke: #e6e6e6; stroke-opacity: 0.55; stroke-width: 0.35; stroke-linecap: square"/>
     </g>
     <g id="line2d_10">
      <g>
       <use xlink:href="#mde05e43035" x="349.933869" y="150.606764" style="stroke: #000000; stroke-width: 0.8"/>
      </g>
     </g>
     <g id="text_5">
      <text style="font-size: 8px; font-family: 'Microsoft YaHei', 'Arial', 'DejaVu Sans', sans-serif; text-anchor: middle" x="349.933869" y="163.501764" transform="rotate(-0 349.933869 163.501764)">80</text>
     </g>
    </g>
    <g id="xtick_6">
     <g id="line2d_11">
      <path d="M 427.757649 150.606764 
L 427.757649 7.2 
" clip-path="url(#pa258acd295)" style="fill: none; stroke: #e6e6e6; stroke-opacity: 0.55; stroke-width: 0.35; stroke-linecap: square"/>
     </g>
     <g id="line2d_12">
      <g>
       <use xlink:href="#mde05e43035" x="427.757649" y="150.606764" style="stroke: #000000; stroke-width: 0.8"/>
      </g>
     </g>
     <g id="text_6">
      <text style="font-size: 8px; font-family: 'Microsoft YaHei', 'Arial', 'DejaVu Sans', sans-serif; text-anchor: middle" x="427.757649" y="163.501764" transform="rotate(-0 427.757649 163.501764)">100</text>
     </g>
    </g>
   </g>
   <g id="matplotlib.axis_2">
    <g id="ytick_1">
     <g id="line2d_13">
      <path d="M 38.63875 144.088275 
L 447.59952 144.088275 
" clip-path="url(#pa258acd295)" style="fill: none; stroke: #e6e6e6; stroke-opacity: 0.55; stroke-width: 0.35; stroke-linecap: square"/>
     </g>
     <g id="line2d_14">
      <defs>
       <path id="m8df85c9515" d="M 0 0 
L -3 0 
" style="stroke: #000000; stroke-width: 0.8"/>
      </defs>
      <g>
       <use xlink:href="#m8df85c9515" x="38.63875" y="144.088275" style="stroke: #000000; stroke-width: 0.8"/>
      </g>
     </g>
     <g id="text_7">
      <text style="font-size: 8px; font-family: 'Microsoft YaHei', 'Arial', 'DejaVu Sans', sans-serif; text-anchor: end" x="32.13875" y="147.285775" transform="rotate(-0 32.13875 147.285775)">0</text>
     </g>
    </g>
    <g id="ytick_2">
     <g id="line2d_15">
      <path d="M 38.63875 109.093448 
L 447.59952 109.093448 
" clip-path="url(#pa258acd295)" style="fill: none; stroke: #e6e6e6; stroke-opacity: 0.55; stroke-width: 0.35; stroke-linecap: square"/>
     </g>
     <g id="line2d_16">
      <g>
       <use xlink:href="#m8df85c9515" x="38.63875" y="109.093448" style="stroke: #000000; stroke-width: 0.8"/>
      </g>
     </g>
     <g id="text_8">
      <text style="font-size: 8px; font-family: 'Microsoft YaHei', 'Arial', 'DejaVu Sans', sans-serif; text-anchor: end" x="32.13875" y="112.290948" transform="rotate(-0 32.13875 112.290948)">5</text>
     </g>
    </g>
    <g id="ytick_3">
     <g id="line2d_17">
      <path d="M 38.63875 74.098622 
L 447.59952 74.098622 
" clip-path="url(#pa258acd295)" style="fill: none; stroke: #e6e6e6; stroke-opacity: 0.55; stroke-width: 0.35; stroke-linecap: square"/>
     </g>
     <g id="line2d_18">
      <g>
       <use xlink:href="#m8df85c9515" x="38.63875" y="74.098622" style="stroke: #000000; stroke-width: 0.8"/>
      </g>
     </g>
     <g id="text_9">
      <text style="font-size: 8px; font-family: 'Microsoft YaHei', 'Arial', 'DejaVu Sans', sans-serif; text-anchor: end" x="32.13875" y="77.296122" transform="rotate(-0 32.13875 77.296122)">10</text>
     </g>
    </g>
    <g id="ytick_4">
     <g id="line2d_19">
      <path d="M 38.63875 39.103796 
L 447.59952 39.103796 
" clip-path="url(#pa258acd295)" style="fill: none; stroke: #e6e6e6; stroke-opacity: 0.55; stroke-width: 0.35; stroke-linecap: square"/>
     </g>
     <g id="line2d_20">
      <g>
       <use xlink:href="#m8df85c9515" x="38.63875" y="39.103796" style="stroke: #000000; stroke-width: 0.8"/>
      </g>
     </g>
     <g id="text_10">
      <text style="font-size: 8px; font-family: 'Microsoft YaHei', 'Arial', 'DejaVu Sans', sans-serif; text-anchor: end" x="32.13875" y="42.301296" transform="rotate(-0 32.13875 42.301296)">15</text>
     </g>
    </g>
    <g id="text_11">
     <!-- 盈余 $U_t$ -->
     <g transform="translate(16.518906 93.888382) rotate(-90)">
      <text>
       <tspan x="0" y="-0.578125" style="font-size: 9px; font-family: 'Microsoft YaHei'">盈</tspan>
       <tspan x="9" y="-0.578125" style="font-size: 9px; font-family: 'Microsoft YaHei'">余</tspan>
       <tspan x="18" y="-0.578125" style="font-size: 9px; font-family: 'Microsoft YaHei'"> </tspan>
       <tspan x="20.663086" y="-0.578125" style="font-style: oblique; font-size: 9px; font-family: 'DejaVu Sans'">U</tspan>
       <tspan x="27.250488" y="0.898438" style="font-style: oblique; font-size: 6.3px; font-family: 'DejaVu Sans'">t</tspan>
      </text>
     </g>
    </g>
   </g>
   <g id="line2d_21">
    <path d="M 38.63875 109.093448 
L 43.278106 109.093448 
L 43.278106 99.079843 
L 43.278106 101.438966 
L 44.279247 101.438966 
L 44.279247 99.278099 
L 44.279247 104.887306 
L 49.225224 104.887306 
L 49.225224 94.211888 
L 49.225224 98.062002 
L 64.599242 98.062002 
L 64.599242 64.878658 
L 64.599242 72.95996 
L 67.150774 72.95996 
L 67.150774 67.452724 
L 67.150774 70.936625 
L 68.786405 70.936625 
L 68.786405 67.406272 
L 68.786405 76.54566 
L 71.03268 76.54566 
L 71.03268 71.697291 
L 71.03268 72.127957 
L 73.007736 72.127957 
L 73.007736 67.864987 
L 73.007736 77.239354 
L 73.791788 77.239354 
L 73.791788 75.547053 
L 73.791788 76.89729 
L 76.742589 76.89729 
L 76.742589 70.52827 
L 76.742589 75.839915 
L 80.657974 75.839915 
L 80.657974 67.388933 
L 80.657974 80.640347 
L 85.673738 80.640347 
L 85.673738 69.814302 
L 85.673738 76.422979 
L 90.661193 76.422979 
L 90.661193 65.658036 
L 90.661193 68.387796 
L 92.40867 68.387796 
L 92.40867 64.616032 
L 92.40867 66.429547 
L 93.761773 66.429547 
L 93.761773 63.509004 
L 93.761773 70.48623 
L 94.137765 70.48623 
L 94.137765 69.674687 
L 94.137765 73.654533 
L 96.33097 73.654533 
L 96.33097 68.920709 
L 96.33097 73.68418 
L 98.48992 73.68418 
L 98.48992 69.024295 
L 98.48992 71.644331 
L 100.652402 71.644331 
L 100.652402 66.976821 
L 100.652402 82.644496 
L 111.879514 82.644496 
L 111.879514 58.411851 
L 111.879514 63.288921 
L 115.685256 63.288921 
L 115.685256 55.074591 
L 115.685256 55.93453 
L 117.170439 55.93453 
L 117.170439 52.728905 
L 117.170439 56.479275 
L 125.000388 56.479275 
L 125.000388 39.579081 
L 125.000388 41.596809 
L 127.567712 41.596809 
L 127.567712 36.055487 
L 127.567712 65.71527 
L 130.419553 65.71527 
L 130.419553 59.559845 
L 130.419553 66.202269 
L 130.919757 66.202269 
L 130.919757 65.122626 
L 130.919757 77.375438 
L 134.515101 77.375438 
L 134.515101 69.615233 
L 134.515101 75.12767 
L 136.148279 75.12767 
L 136.148279 71.602611 
L 136.148279 74.14029 
L 138.247989 74.14029 
L 138.247989 69.608268 
L 138.247989 77.611637 
L 146.353736 77.611637 
L 146.353736 60.116159 
L 146.353736 65.114905 
L 150.659669 65.114905 
L 150.659669 55.820962 
L 150.659669 61.992202 
L 154.47526 61.992202 
L 154.47526 53.756615 
L 154.47526 61.61627 
L 161.66357 61.61627 
L 161.66357 46.100992 
L 161.66357 46.708926 
L 167.276923 46.708926 
L 167.276923 34.593041 
L 167.276923 36.547661 
L 168.117218 36.547661 
L 168.117218 34.733964 
L 168.117218 40.680987 
L 168.508703 40.680987 
L 168.508703 39.836005 
L 168.508703 54.993448 
L 172.348701 54.993448 
L 172.348701 46.705179 
L 172.411975 61.880305 
L 175.578238 61.880305 
L 175.578238 55.046229 
L 175.578238 56.257859 
L 176.224712 56.257859 
L 176.224712 54.862508 
L 176.224712 63.185546 
L 177.718345 63.185546 
L 177.718345 59.961682 
L 177.718345 68.203377 
L 180.863578 68.203377 
L 180.863578 61.414694 
L 180.863578 64.862226 
L 190.949677 64.862226 
L 190.949677 43.092349 
L 190.949677 55.991958 
L 192.670473 55.991958 
L 192.670473 52.277783 
L 192.670473 52.589728 
L 194.084959 52.589728 
L 194.084959 49.536697 
L 194.084959 53.090816 
L 198.834701 53.090816 
L 198.834701 42.838952 
L 198.834701 80.44239 
L 200.54653 80.44239 
L 200.54653 76.747571 
L 200.54653 86.810607 
L 204.046175 86.810607 
L 204.046175 79.256958 
L 204.046175 87.492555 
L 204.683732 87.492555 
L 204.683732 86.11645 
L 204.683732 89.678605 
L 205.756002 89.678605 
L 205.756002 87.364212 
L 205.756002 90.309136 
L 208.556702 90.309136 
L 208.556702 84.264093 
L 208.556702 91.952358 
L 208.99231 91.952358 
L 208.99231 91.012141 
L 208.99231 91.994035 
L 210.504346 91.994035 
L 210.504346 88.730451 
L 210.504346 96.313278 
L 217.796805 96.313278 
L 217.796805 80.573205 
L 217.796805 86.212779 
L 225.296109 86.212779 
L 225.296109 70.02625 
L 225.296109 73.426832 
L 226.778457 73.426832 
L 226.778457 70.227326 
L 226.778457 73.288432 
L 227.508576 73.288432 
L 227.508576 71.712541 
L 227.508576 84.077967 
L 229.117597 84.077967 
L 229.117597 80.605051 
L 229.117597 86.230738 
L 232.479808 86.230738 
L 232.479808 78.973727 
L 232.490282 115.27032 
L 241.663684 115.27032 
L 241.663684 95.470412 
L 241.663684 97.09931 
L 243.010046 97.09931 
L 243.010046 94.193317 
L 243.010046 99.33049 
L 252.044934 99.33049 
L 252.044934 79.829549 
L 252.044934 108.611806 
L 253.203688 108.611806 
L 253.203688 106.110748 
L 253.203688 111.926446 
L 259.604316 111.926446 
L 259.604316 98.111305 
L 259.604316 101.621189 
L 264.714674 101.621189 
L 264.714674 90.59097 
L 264.714674 91.820176 
L 268.286936 91.820176 
L 268.286936 84.109791 
L 268.286936 98.170044 
L 284.263012 98.170044 
L 284.263012 63.687216 
L 284.263012 64.265978 
L 286.439057 64.265978 
L 286.439057 59.569194 
L 286.439057 61.170826 
L 288.769859 61.170826 
L 288.769859 56.140012 
L 288.769859 61.694042 
L 289.151091 61.694042 
L 289.151091 60.87119 
L 289.151091 63.336228 
L 299.366751 63.336228 
L 299.366751 41.286704 
L 299.366751 47.177424 
L 301.745844 47.177424 
L 301.745844 42.042382 
L 301.745844 51.844424 
L 307.015531 51.844424 
L 307.015531 40.470308 
L 307.015531 40.818847 
L 311.814895 40.818847 
L 311.814895 30.45988 
L 311.814895 43.253034 
L 312.520941 43.253034 
L 312.520941 41.729101 
L 312.520941 52.358248 
L 313.834701 52.358248 
L 313.834701 49.522625 
L 313.834701 52.083969 
L 318.09324 52.083969 
L 318.09324 42.892321 
L 318.09324 43.718894 
L 322.347259 43.718894 
L 322.347259 34.537001 
L 322.347259 49.850587 
L 326.984591 49.850587 
L 326.984591 39.84135 
L 326.984591 43.903579 
L 329.228387 43.903579 
L 329.228387 39.060561 
L 329.228387 49.199114 
L 332.473196 49.199114 
L 332.473196 42.195505 
L 332.473196 42.816498 
L 335.87363 42.816498 
L 335.87363 35.476986 
L 335.87363 47.281126 
L 337.473222 47.281126 
L 337.473222 43.828561 
L 337.473222 62.202423 
L 342.878731 62.202423 
L 342.878731 50.53515 
L 342.878731 56.508527 
L 348.298737 56.508527 
L 348.298737 44.809963 
L 348.298737 45.387077 
L 355.932311 45.387077 
L 355.932311 28.910741 
L 355.932311 40.971286 
L 365.296537 40.971286 
L 365.296537 20.759501 
L 365.296537 21.723188 
L 365.628527 21.723188 
L 365.628527 21.00662 
L 365.628527 22.049341 
L 367.612219 22.049341 
L 367.612219 17.767732 
L 367.612219 21.632425 
L 370.826478 21.632425 
L 370.826478 14.694756 
L 370.826478 15.607323 
L 371.701585 15.607323 
L 371.701585 13.718489 
L 371.701585 25.402725 
L 374.157269 25.402725 
L 374.157269 20.102366 
L 374.186274 37.201164 
L 384.642873 37.201164 
L 384.642873 14.631599 
L 384.642873 20.739552 
L 385.54093 20.739552 
L 385.54093 18.801182 
L 385.54093 27.654795 
L 387.394698 27.654795 
L 387.394698 23.653615 
L 387.394698 31.378915 
L 387.510492 31.378915 
L 387.510492 31.128984 
L 387.510492 38.200232 
L 387.637842 38.200232 
L 387.637842 37.92536 
L 387.637842 47.483371 
L 390.129719 47.483371 
L 390.129719 42.104893 
L 390.129719 43.013561 
L 393.173701 43.013561 
L 393.173701 36.443418 
L 393.173701 36.927105 
L 397.296348 36.927105 
L 397.296348 28.028767 
L 397.296348 66.825984 
L 403.004952 66.825984 
L 403.004952 54.504509 
L 403.004952 60.473128 
L 403.42634 60.473128 
L 403.42634 59.563602 
L 403.42634 67.986296 
L 407.637581 67.986296 
L 407.637581 58.896736 
L 407.637581 59.249087 
L 413.753196 59.249087 
L 413.753196 46.049118 
L 413.753196 51.167454 
L 415.912399 51.167454 
L 415.912399 46.507022 
L 415.912399 57.369782 
L 417.975881 57.369782 
L 417.975881 52.915954 
L 417.975881 57.50659 
L 418.755828 57.50659 
L 418.755828 55.823148 
L 418.755828 58.535975 
L 426.023693 58.535975 
L 426.023693 42.848986 
L 426.023693 44.297112 
L 428.125198 44.297112 
L 428.125198 39.761216 
L 428.125198 71.34756 
L 428.125198 71.34756 
" clip-path="url(#pa258acd295)" style="fill: none; stroke: #0f4d92; stroke-width: 0.8; stroke-linecap: square"/>
   </g>
   <g id="line2d_22">
    <path d="M 38.63875 144.088275 
L 447.59952 144.088275 
" clip-path="url(#pa258acd295)" style="fill: none; stroke-dasharray: 3.145,1.36; stroke-dashoffset: 0; stroke: #b64342; stroke-opacity: 0.8; stroke-width: 0.85"/>
   </g>
   <g id="patch_3">
    <path d="M 38.63875 150.606764 
L 38.63875 7.2 
" style="fill: none; stroke: #000000; stroke-width: 0.85; stroke-linejoin: miter; stroke-linecap: square"/>
   </g>
   <g id="patch_4">
    <path d="M 38.63875 150.606764 
L 447.59952 150.606764 
" style="fill: none; stroke: #000000; stroke-width: 0.85; stroke-linejoin: miter; stroke-linecap: square"/>
   </g>
   <g id="text_12">
    <g id="patch_5">
     <path d="M 398.220305 22.520021 
L 440.620305 22.520021 
L 440.620305 11.736271 
L 398.220305 11.736271 
z
" style="fill: #ffffff; opacity: 0.88"/>
    </g>
    <text style="font-size: 8px; font-family: 'Microsoft YaHei', 'Arial', 'DejaVu Sans', sans-serif; text-anchor: end; fill: #4d4d4d" x="439.420305" y="19.331271" transform="rotate(-0 439.420305 19.331271)">正漂移向上</text>
   </g>
   <g id="text_13">
    <!-- 破产线 $U=0$ -->
    <g style="fill: #b64342" transform="translate(392.220305 140.378643)">
     <text>
      <tspan x="0" y="-0.3125" style="font-size: 8px; font-family: 'Microsoft YaHei'; fill: #b64342">破</tspan>
      <tspan x="8" y="-0.3125" style="font-size: 8px; font-family: 'Microsoft YaHei'; fill: #b64342">产</tspan>
      <tspan x="16" y="-0.3125" style="font-size: 8px; font-family: 'Microsoft YaHei'; fill: #b64342">线</tspan>
      <tspan x="24" y="-0.3125" style="font-size: 8px; font-family: 'Microsoft YaHei'; fill: #b64342"> </tspan>
      <tspan x="26.367188" y="-0.3125" style="font-style: oblique; font-size: 8px; font-family: 'DejaVu Sans'; fill: #b64342">U</tspan>
      <tspan x="33.78125" y="-0.3125" style="font-size: 8px; font-family: 'DejaVu Sans'; fill: #b64342">=</tspan>
      <tspan x="42.042969" y="-0.3125" style="font-size: 8px; font-family: 'DejaVu Sans'; fill: #b64342">0</tspan>
     </text>
    </g>
   </g>
  </g>
  <g id="axes_2">
   <g id="patch_6">
    <path d="M 38.63875 318.484051 
L 447.59952 318.484051 
L 447.59952 175.077287 
L 38.63875 175.077287 
z
" style="fill: #ffffff"/>
   </g>
   <g id="matplotlib.axis_3">
    <g id="xtick_7">
     <g id="line2d_23">
      <path d="M 38.63875 318.484051 
L 38.63875 175.077287 
" clip-path="url(#p54fdf7b507)" style="fill: none; stroke: #e6e6e6; stroke-opacity: 0.55; stroke-width: 0.35; stroke-linecap: square"/>
     </g>
     <g id="line2d_24">
      <g>
       <use xlink:href="#mde05e43035" x="38.63875" y="318.484051" style="stroke: #000000; stroke-width: 0.8"/>
      </g>
     </g>
     <g id="text_14">
      <text style="font-size: 8px; font-family: 'Microsoft YaHei', 'Arial', 'DejaVu Sans', sans-serif; text-anchor: middle" x="38.63875" y="331.379051" transform="rotate(-0 38.63875 331.379051)">0</text>
     </g>
    </g>
    <g id="xtick_8">
     <g id="line2d_25">
      <path d="M 116.46253 318.484051 
L 116.46253 175.077287 
" clip-path="url(#p54fdf7b507)" style="fill: none; stroke: #e6e6e6; stroke-opacity: 0.55; stroke-width: 0.35; stroke-linecap: square"/>
     </g>
     <g id="line2d_26">
      <g>
       <use xlink:href="#mde05e43035" x="116.46253" y="318.484051" style="stroke: #000000; stroke-width: 0.8"/>
      </g>
     </g>
     <g id="text_15">
      <text style="font-size: 8px; font-family: 'Microsoft YaHei', 'Arial', 'DejaVu Sans', sans-serif; text-anchor: middle" x="116.46253" y="331.379051" transform="rotate(-0 116.46253 331.379051)">20</text>
     </g>
    </g>
    <g id="xtick_9">
     <g id="line2d_27">
      <path d="M 194.28631 318.484051 
L 194.28631 175.077287 
" clip-path="url(#p54fdf7b507)" style="fill: none; stroke: #e6e6e6; stroke-opacity: 0.55; stroke-width: 0.35; stroke-linecap: square"/>
     </g>
     <g id="line2d_28">
      <g>
       <use xlink:href="#mde05e43035" x="194.28631" y="318.484051" style="stroke: #000000; stroke-width: 0.8"/>
      </g>
     </g>
     <g id="text_16">
      <text style="font-size: 8px; font-family: 'Microsoft YaHei', 'Arial', 'DejaVu Sans', sans-serif; text-anchor: middle" x="194.28631" y="331.379051" transform="rotate(-0 194.28631 331.379051)">40</text>
     </g>
    </g>
    <g id="xtick_10">
     <g id="line2d_29">
      <path d="M 272.110089 318.484051 
L 272.110089 175.077287 
" clip-path="url(#p54fdf7b507)" style="fill: none; stroke: #e6e6e6; stroke-opacity: 0.55; stroke-width: 0.35; stroke-linecap: square"/>
     </g>
     <g id="line2d_30">
      <g>
       <use xlink:href="#mde05e43035" x="272.110089" y="318.484051" style="stroke: #000000; stroke-width: 0.8"/>
      </g>
     </g>
     <g id="text_17">
      <text style="font-size: 8px; font-family: 'Microsoft YaHei', 'Arial', 'DejaVu Sans', sans-serif; text-anchor: middle" x="272.110089" y="331.379051" transform="rotate(-0 272.110089 331.379051)">60</text>
     </g>
    </g>
    <g id="xtick_11">
     <g id="line2d_31">
      <path d="M 349.933869 318.484051 
L 349.933869 175.077287 
" clip-path="url(#p54fdf7b507)" style="fill: none; stroke: #e6e6e6; stroke-opacity: 0.55; stroke-width: 0.35; stroke-linecap: square"/>
     </g>
     <g id="line2d_32">
      <g>
       <use xlink:href="#mde05e43035" x="349.933869" y="318.484051" style="stroke: #000000; stroke-width: 0.8"/>
      </g>
     </g>
     <g id="text_18">
      <text style="font-size: 8px; font-family: 'Microsoft YaHei', 'Arial', 'DejaVu Sans', sans-serif; text-anchor: middle" x="349.933869" y="331.379051" transform="rotate(-0 349.933869 331.379051)">80</text>
     </g>
    </g>
    <g id="xtick_12">
     <g id="line2d_33">
      <path d="M 427.757649 318.484051 
L 427.757649 175.077287 
" clip-path="url(#p54fdf7b507)" style="fill: none; stroke: #e6e6e6; stroke-opacity: 0.55; stroke-width: 0.35; stroke-linecap: square"/>
     </g>
     <g id="line2d_34">
      <g>
       <use xlink:href="#mde05e43035" x="427.757649" y="318.484051" style="stroke: #000000; stroke-width: 0.8"/>
      </g>
     </g>
     <g id="text_19">
      <text style="font-size: 8px; font-family: 'Microsoft YaHei', 'Arial', 'DejaVu Sans', sans-serif; text-anchor: middle" x="427.757649" y="331.379051" transform="rotate(-0 427.757649 331.379051)">100</text>
     </g>
    </g>
    <g id="text_20">
     <!-- 时间 $t$ -->
     <g transform="translate(231.014135 344.562176)">
      <text>
       <tspan x="0" y="-0.515625" style="font-size: 9px; font-family: 'Microsoft YaHei'">时</tspan>
       <tspan x="9" y="-0.515625" style="font-size: 9px; font-family: 'Microsoft YaHei'">间</tspan>
       <tspan x="18" y="-0.515625" style="font-size: 9px; font-family: 'Microsoft YaHei'"> </tspan>
       <tspan x="20.663086" y="-0.515625" style="font-style: oblique; font-size: 9px; font-family: 'DejaVu Sans'">t</tspan>
      </text>
     </g>
    </g>
   </g>
   <g id="matplotlib.axis_4">
    <g id="ytick_5">
     <g id="line2d_35">
      <path d="M 38.63875 318.086756 
L 447.59952 318.086756 
" clip-path="url(#p54fdf7b507)" style="fill: none; stroke: #e6e6e6; stroke-opacity: 0.55; stroke-width: 0.35; stroke-linecap: square"/>
     </g>
     <g id="line2d_36">
      <g>
       <use xlink:href="#m8df85c9515" x="38.63875" y="318.086756" style="stroke: #000000; stroke-width: 0.8"/>
      </g>
     </g>
     <g id="text_21">
      <text style="font-size: 8px; font-family: 'Microsoft YaHei', 'Arial', 'DejaVu Sans', sans-serif; text-anchor: end" x="32.13875" y="321.284256" transform="rotate(-0 32.13875 321.284256)">0.0</text>
     </g>
    </g>
    <g id="ytick_6">
     <g id="line2d_37">
      <path d="M 38.63875 290.78856 
L 447.59952 290.78856 
" clip-path="url(#p54fdf7b507)" style="fill: none; stroke: #e6e6e6; stroke-opacity: 0.55; stroke-width: 0.35; stroke-linecap: square"/>
     </g>
     <g id="line2d_38">
      <g>
       <use xlink:href="#m8df85c9515" x="38.63875" y="290.78856" style="stroke: #000000; stroke-width: 0.8"/>
      </g>
     </g>
     <g id="text_22">
      <text style="font-size: 8px; font-family: 'Microsoft YaHei', 'Arial', 'DejaVu Sans', sans-serif; text-anchor: end" x="32.13875" y="293.98606" transform="rotate(-0 32.13875 293.98606)">0.2</text>
     </g>
    </g>
    <g id="ytick_7">
     <g id="line2d_39">
      <path d="M 38.63875 263.490364 
L 447.59952 263.490364 
" clip-path="url(#p54fdf7b507)" style="fill: none; stroke: #e6e6e6; stroke-opacity: 0.55; stroke-width: 0.35; stroke-linecap: square"/>
     </g>
     <g id="line2d_40">
      <g>
       <use xlink:href="#m8df85c9515" x="38.63875" y="263.490364" style="stroke: #000000; stroke-width: 0.8"/>
      </g>
     </g>
     <g id="text_23">
      <text style="font-size: 8px; font-family: 'Microsoft YaHei', 'Arial', 'DejaVu Sans', sans-serif; text-anchor: end" x="32.13875" y="266.687864" transform="rotate(-0 32.13875 266.687864)">0.4</text>
     </g>
    </g>
    <g id="ytick_8">
     <g id="line2d_41">
      <path d="M 38.63875 236.192168 
L 447.59952 236.192168 
" clip-path="url(#p54fdf7b507)" style="fill: none; stroke: #e6e6e6; stroke-opacity: 0.55; stroke-width: 0.35; stroke-linecap: square"/>
     </g>
     <g id="line2d_42">
      <g>
       <use xlink:href="#m8df85c9515" x="38.63875" y="236.192168" style="stroke: #000000; stroke-width: 0.8"/>
      </g>
     </g>
     <g id="text_24">
      <text style="font-size: 8px; font-family: 'Microsoft YaHei', 'Arial', 'DejaVu Sans', sans-serif; text-anchor: end" x="32.13875" y="239.389668" transform="rotate(-0 32.13875 239.389668)">0.6</text>
     </g>
    </g>
    <g id="ytick_9">
     <g id="line2d_43">
      <path d="M 38.63875 208.893972 
L 447.59952 208.893972 
" clip-path="url(#p54fdf7b507)" style="fill: none; stroke: #e6e6e6; stroke-opacity: 0.55; stroke-width: 0.35; stroke-linecap: square"/>
     </g>
     <g id="line2d_44">
      <g>
       <use xlink:href="#m8df85c9515" x="38.63875" y="208.893972" style="stroke: #000000; stroke-width: 0.8"/>
      </g>
     </g>
     <g id="text_25">
      <text style="font-size: 8px; font-family: 'Microsoft YaHei', 'Arial', 'DejaVu Sans', sans-serif; text-anchor: end" x="32.13875" y="212.091472" transform="rotate(-0 32.13875 212.091472)">0.8</text>
     </g>
    </g>
    <g id="ytick_10">
     <g id="line2d_45">
      <path d="M 38.63875 181.595777 
L 447.59952 181.595777 
" clip-path="url(#p54fdf7b507)" style="fill: none; stroke: #e6e6e6; stroke-opacity: 0.55; stroke-width: 0.35; stroke-linecap: square"/>
     </g>
     <g id="line2d_46">
      <g>
       <use xlink:href="#m8df85c9515" x="38.63875" y="181.595777" style="stroke: #000000; stroke-width: 0.8"/>
      </g>
     </g>
     <g id="text_26">
      <text style="font-size: 8px; font-family: 'Microsoft YaHei', 'Arial', 'DejaVu Sans', sans-serif; text-anchor: end" x="32.13875" y="184.793277" transform="rotate(-0 32.13875 184.793277)">1.0</text>
     </g>
    </g>
    <g id="text_27">
     <!-- $M_t = e^{-R U_t}$ -->
     <g transform="translate(14.592656 268.740669) rotate(-90)">
      <text>
       <tspan x="0" y="-0.960938" style="font-style: oblique; font-size: 9px; font-family: 'DejaVu Sans'">M</tspan>
       <tspan x="21.529248" y="-0.960938" style="font-style: oblique; font-size: 9px; font-family: 'DejaVu Sans'">e</tspan>
       <tspan x="7.765137" y="0.515625" style="font-style: oblique; font-size: 6.3px; font-family: 'DejaVu Sans'">t</tspan>
       <tspan x="32.764521" y="-4.40625" style="font-style: oblique; font-size: 6.3px; font-family: 'DejaVu Sans'">R</tspan>
       <tspan x="37.141914" y="-4.40625" style="font-style: oblique; font-size: 6.3px; font-family: 'DejaVu Sans'">U</tspan>
       <tspan x="12.234814" y="-0.960938" style="font-size: 9px; font-family: 'DejaVu Sans'">=</tspan>
       <tspan x="27.485811" y="-4.40625" style="font-size: 6.3px; font-family: 'DejaVu Sans'">−</tspan>
       <tspan x="41.753096" y="-3.372656" style="font-style: oblique; font-size: 4.41px; font-family: 'DejaVu Sans'">t</tspan>
      </text>
     </g>
    </g>
   </g>
   <g id="line2d_47">
    <path d="M 38.63875 258.768021 
L 43.278106 258.768021 
L 43.278106 271.352811 
L 43.278106 268.65225 
L 44.279247 268.65225 
L 44.279247 271.131654 
L 44.279247 264.421588 
L 49.225224 264.421588 
L 49.225224 276.46804 
L 49.225224 272.471926 
L 64.599242 272.471926 
L 64.599242 297.388768 
L 64.599242 292.996568 
L 67.150774 292.996568 
L 67.150774 296.080367 
L 67.150774 294.176796 
L 68.786405 294.176796 
L 68.786405 296.104696 
L 68.786405 290.760082 
L 71.03268 290.760082 
L 71.03268 293.73975 
L 71.03268 293.488776 
L 73.007736 293.488776 
L 73.007736 295.863261 
L 73.007736 290.304924 
L 73.791788 290.304924 
L 73.791788 291.402241 
L 73.791788 290.530304 
L 76.742589 290.530304 
L 76.742589 294.408174 
L 76.742589 291.215495 
L 80.657974 291.215495 
L 80.657974 296.113771 
L 80.657974 287.961308 
L 85.673738 287.961308 
L 85.673738 294.807349 
L 85.673738 290.839798 
L 90.661193 290.839798 
L 90.661193 297.00104 
L 90.661193 295.584857 
L 92.40867 295.584857 
L 92.40867 297.517808 
L 92.40867 296.610073 
L 93.761773 296.610073 
L 93.761773 298.052956 
L 93.761773 294.431867 
L 94.137765 294.431867 
L 94.137765 294.884616 
L 94.137765 292.578128 
L 96.33097 292.578128 
L 96.33097 295.297481 
L 96.33097 292.560112 
L 98.48992 292.560112 
L 98.48992 295.241198 
L 98.48992 293.770436 
L 100.652402 293.770436 
L 100.652402 296.328351 
L 100.652402 286.488715 
L 111.879514 286.488715 
L 111.879514 300.34285 
L 111.879514 298.157676 
L 115.685256 298.157676 
L 115.685256 301.698388 
L 115.685256 301.359331 
L 117.170439 301.359331 
L 117.170439 302.588711 
L 117.170439 301.140929 
L 125.000388 301.140929 
L 125.000388 306.755368 
L 125.000388 306.197623 
L 127.567712 306.197623 
L 127.567712 307.66736 
L 127.567712 296.972282 
L 130.419553 296.972282 
L 130.419553 299.85109 
L 130.419553 296.725994 
L 130.919757 296.725994 
L 130.919757 297.268171 
L 130.919757 290.21475 
L 134.515101 290.21475 
L 134.515101 294.917442 
L 134.515101 291.667408 
L 136.148279 291.667408 
L 136.148279 293.794582 
L 136.148279 292.281347 
L 138.247989 292.281347 
L 138.247989 294.921284 
L 138.247989 290.057538 
L 146.353736 290.057538 
L 146.353736 299.607905 
L 146.353736 297.271999 
L 150.659669 297.271999 
L 150.659669 301.404508 
L 150.659669 298.763658 
L 154.47526 298.763658 
L 154.47526 302.20475 
L 154.47526 298.935868 
L 161.66357 298.935868 
L 161.66357 304.851514 
L 161.66357 304.658517 
L 167.276923 304.658517 
L 167.276923 308.023973 
L 167.276923 307.544525 
L 168.117218 307.544525 
L 168.117218 307.990148 
L 168.117218 306.4541 
L 168.508703 306.4541 
L 168.508703 306.685829 
L 168.508703 301.730024 
L 172.348701 301.730024 
L 172.348701 304.659715 
L 172.411975 298.815078 
L 175.578238 298.815078 
L 175.578238 301.709453 
L 175.578238 301.230042 
L 176.224712 301.230042 
L 176.224712 301.780947 
L 176.224712 298.206674 
L 177.718345 298.206674 
L 177.718345 299.675756 
L 177.718345 295.683459 
L 180.863578 295.683459 
L 180.863578 299.027575 
L 180.863578 297.396866 
L 190.949677 297.396866 
L 190.949677 305.766581 
L 190.949677 301.33644 
L 192.670473 301.33644 
L 192.670473 302.754309 
L 192.670473 302.63999 
L 194.084959 302.63999 
L 194.084959 303.723149 
L 194.084959 302.454569 
L 198.834701 302.454569 
L 198.834701 305.840699 
L 198.834701 288.102984 
L 200.54653 288.102984 
L 200.54653 290.628375 
L 200.54653 283.193174 
L 204.046175 283.193174 
L 204.046175 288.937554 
L 204.046175 282.621902 
L 204.683732 282.621902 
L 204.683732 283.765223 
L 204.683732 280.726828 
L 205.756002 280.726828 
L 205.756002 282.730125 
L 205.756002 280.161641 
L 208.556702 280.161641 
L 208.556702 285.24625 
L 208.556702 278.64821 
L 208.99231 278.64821 
L 208.99231 279.521405 
L 208.99231 278.609049 
L 210.504346 278.609049 
L 210.504346 281.560905 
L 210.504346 274.332431 
L 217.796805 274.332431 
L 217.796805 288.009436 
L 217.796805 283.686403 
L 225.296109 283.686403 
L 225.296109 294.689557 
L 225.296109 292.716067 
L 226.778457 292.716067 
L 226.778457 294.577257 
L 226.778457 292.799544 
L 227.508576 292.799544 
L 227.508576 293.730907 
L 227.508576 285.391485 
L 229.117597 285.391485 
L 229.117597 287.986618 
L 229.117597 283.671688 
L 232.479808 283.671688 
L 232.479808 289.133492 
L 232.490282 249.368472 
L 241.663684 249.368472 
L 241.663684 275.20188 
L 241.663684 273.505733 
L 243.010046 273.505733 
L 243.010046 276.486441 
L 243.010046 271.073037 
L 252.044934 271.073037 
L 252.044934 288.537378 
L 252.044934 259.444482 
L 253.203688 259.444482 
L 253.203688 262.835116 
L 253.203688 254.62817 
L 259.604316 254.62817 
L 259.604316 272.41834 
L 259.604316 268.437274 
L 264.714674 268.437274 
L 264.714674 279.906258 
L 264.714674 278.772154 
L 268.286936 278.772154 
L 268.286936 285.366698 
L 268.286936 272.354417 
L 284.263012 272.354417 
L 284.263012 297.967757 
L 284.263012 297.688555 
L 286.439057 297.688555 
L 286.439057 299.84703 
L 286.439057 299.137935 
L 288.769859 299.137935 
L 288.769859 301.277281 
L 288.769859 298.900368 
L 289.151091 298.900368 
L 289.151091 299.272659 
L 289.151091 298.135212 
L 299.366751 298.135212 
L 299.366751 306.285095 
L 299.366751 304.507868 
L 301.745844 304.507868 
L 301.745844 306.070802 
L 301.745844 302.91172 
L 307.015531 302.91172 
L 307.015531 306.512314 
L 307.015531 306.415849 
L 311.814895 306.415849 
L 311.814895 308.967204 
L 311.814895 305.719349 
L 312.520941 305.719349 
L 312.520941 306.16011 
L 312.520941 302.724902 
L 313.834701 302.724902 
L 313.834701 303.727962 
L 313.834701 302.82491 
L 318.09324 302.82491 
L 318.09324 305.825126 
L 318.09324 305.581387 
L 322.347259 305.581387 
L 322.347259 308.037393 
L 322.347259 303.615384 
L 326.984591 303.615384 
L 326.984591 306.684377 
L 326.984591 305.526268 
L 329.228387 305.526268 
L 329.228387 306.894423 
L 329.228387 303.838154 
L 332.473196 303.838154 
L 332.473196 306.026908 
L 332.473196 305.847245 
L 335.87363 305.847245 
L 335.87363 307.809912 
L 335.87363 304.474294 
L 337.473222 304.474294 
L 337.473222 305.548686 
L 337.473222 298.666684 
L 342.878731 298.666684 
L 342.878731 303.377545 
L 342.878731 301.129121 
L 348.298737 301.129121 
L 348.298737 305.252218 
L 348.298737 305.074618 
L 355.932311 305.074618 
L 355.932311 309.297493 
L 355.932311 306.373406 
L 365.296537 306.373406 
L 365.296537 310.848176 
L 365.296537 310.680142 
L 365.628527 310.680142 
L 365.628527 310.805454 
L 365.628527 310.622393 
L 367.612219 310.622393 
L 367.612219 311.345933 
L 367.612219 310.696133 
L 370.826478 310.696133 
L 370.826478 311.82159 
L 370.826478 311.683952 
L 371.701585 311.683952 
L 371.701585 311.965562 
L 371.701585 310.001886 
L 374.157269 310.001886 
L 374.157269 310.960566 
L 374.186274 307.379184 
L 384.642873 307.379184 
L 384.642873 311.831006 
L 384.642873 310.851614 
L 385.54093 310.851614 
L 385.54093 311.177986 
L 385.54093 309.556469 
L 387.394698 309.556469 
L 387.394698 310.331718 
L 387.394698 308.765423 
L 387.510492 308.765423 
L 387.510492 308.820735 
L 387.510492 307.121388 
L 387.637842 307.121388 
L 387.637842 307.192928 
L 387.637842 304.408578 
L 390.129719 304.408578 
L 390.129719 306.052902 
L 390.129719 305.789674 
L 393.173701 305.789674 
L 393.173701 307.570662 
L 393.173701 307.448837 
L 397.296348 307.448837 
L 397.296348 309.480164 
L 397.296348 296.406364 
L 403.004952 296.406364 
L 403.004952 301.919363 
L 403.004952 299.450156 
L 403.42634 299.450156 
L 403.42634 299.849458 
L 403.42634 295.798971 
L 407.637581 295.798971 
L 407.637581 300.136781 
L 407.637581 299.985538 
L 413.753196 299.985538 
L 413.753196 304.867853 
L 413.753196 303.154391 
L 415.912399 303.154391 
L 415.912399 304.722925 
L 415.912399 300.777744 
L 417.975881 300.777744 
L 417.975881 302.519526 
L 417.975881 300.721263 
L 418.755828 300.721263 
L 418.755828 301.403639 
L 418.755828 300.290326 
L 426.023693 300.290326 
L 426.023693 305.837773 
L 426.023693 305.408008 
L 428.125198 305.408008 
L 428.125198 306.706115 
L 428.125198 293.941674 
L 428.125198 293.941674 
" clip-path="url(#p54fdf7b507)" style="fill: none; stroke: #3775ba; stroke-width: 0.8; stroke-linecap: square"/>
   </g>
   <g id="line2d_48">
    <path d="M 38.63875 181.595777 
L 447.59952 181.595777 
" clip-path="url(#p54fdf7b507)" style="fill: none; stroke-dasharray: 0.85,1.4025; stroke-dashoffset: 0; stroke: #4d4d4d; stroke-opacity: 0.8; stroke-width: 0.85"/>
   </g>
   <g id="patch_7">
    <path d="M 38.63875 318.484051 
L 38.63875 175.077287 
" style="fill: none; stroke: #000000; stroke-width: 0.85; stroke-linejoin: miter; stroke-linecap: square"/>
   </g>
   <g id="patch_8">
    <path d="M 38.63875 318.484051 
L 447.59952 318.484051 
" style="fill: none; stroke: #000000; stroke-width: 0.85; stroke-linejoin: miter; stroke-linecap: square"/>
   </g>
   <g id="text_28">
    <!-- $M_t=1$ -->
    <g style="fill: #4d4d4d" transform="translate(415.180305 177.886146)">
     <text>
      <tspan x="0" y="-0.171875" style="font-style: oblique; font-size: 8px; font-family: 'DejaVu Sans'; fill: #4d4d4d">M</tspan>
      <tspan x="6.902344" y="1.140625" style="font-style: oblique; font-size: 5.6px; font-family: 'DejaVu Sans'; fill: #4d4d4d">t</tspan>
      <tspan x="10.875391" y="-0.171875" style="font-size: 8px; font-family: 'DejaVu Sans'; fill: #4d4d4d">=</tspan>
      <tspan x="19.137109" y="-0.171875" style="font-size: 8px; font-family: 'DejaVu Sans'; fill: #4d4d4d">1</tspan>
     </text>
    </g>
   </g>
   <g id="text_29">
    <g id="patch_9">
     <path d="M 394.780305 200.060058 
L 440.620305 200.060058 
L 440.620305 179.613558 
L 394.780305 179.613558 
z
" style="fill: #ffffff; opacity: 0.88"/>
    </g>
    <!-- $R=0.1667$ -->
    <g style="fill: #4d4d4d" transform="translate(395.980305 187.208558)">
     <text>
      <tspan x="0" y="-0.0625" style="font-style: oblique; font-size: 8px; font-family: 'DejaVu Sans'; fill: #4d4d4d">R</tspan>
      <tspan x="7.117188" y="-0.0625" style="font-size: 8px; font-family: 'DejaVu Sans'; fill: #4d4d4d">=</tspan>
      <tspan x="15.378906" y="-0.0625" style="font-size: 8px; font-family: 'DejaVu Sans'; fill: #4d4d4d">0</tspan>
      <tspan x="20.46875" y="-0.0625" style="font-size: 8px; font-family: 'DejaVu Sans'; fill: #4d4d4d">.</tspan>
      <tspan x="23.011719" y="-0.0625" style="font-size: 8px; font-family: 'DejaVu Sans'; fill: #4d4d4d">1</tspan>
      <tspan x="28.101562" y="-0.0625" style="font-size: 8px; font-family: 'DejaVu Sans'; fill: #4d4d4d">6</tspan>
      <tspan x="33.191406" y="-0.0625" style="font-size: 8px; font-family: 'DejaVu Sans'; fill: #4d4d4d">6</tspan>
      <tspan x="38.28125" y="-0.0625" style="font-size: 8px; font-family: 'DejaVu Sans'; fill: #4d4d4d">7</tspan>
     </text>
    </g>
    <text style="font-size: 8px; font-family: 'Microsoft YaHei', 'Arial', 'DejaVu Sans', sans-serif; fill: #4d4d4d" transform="translate(397.994055 196.871308)">围绕 1 波动</text>
   </g>
  </g>
 </g>
 <defs>
  <clipPath id="pa258acd295">
   <rect x="38.63875" y="7.2" width="408.96077" height="143.406764"/>
  </clipPath>
  <clipPath id="p54fdf7b507">
   <rect x="38.63875" y="175.077287" width="408.96077" height="143.406764"/>
  </clipPath>
 </defs>
</svg>
