<?xml version="1.0" encoding="utf-8" standalone="no"?>
<!DOCTYPE svg PUBLIC "-//W3C//DTD SVG 1.1//EN"
  "http://www.w3.org/Graphics/SVG/1.1/DTD/svg11.dtd">
<svg xmlns:xlink="http://www.w3.org/1999/xlink" width="425.99952pt" height="281.99952pt" viewBox="0 0 425.99952 281.99952" xmlns="http://www.w3.org/2000/svg" version="1.1">
 <metadata>
  <rdf:RDF xmlns:dc="http://purl.org/dc/elements/1.1/" xmlns:cc="http://creativecommons.org/ns#" xmlns:rdf="http://www.w3.org/1999/02/22-rdf-syntax-ns#">
   <cc:Work>
    <dc:type rdf:resource="http://purl.org/dc/dcmitype/StillImage"/>
    <dc:date>2026-06-04T21:48:27.573971</dc:date>
    <dc:format>image/svg+xml</dc:format>
    <dc:creator>
     <cc:Agent>
      <dc:title>Matplotlib v3.10.0, https://matplotlib.org/</dc:title>
     </cc:Agent>
    </dc:creator>
   </cc:Work>
  </rdf:RDF>
 </metadata>
 <defs>
  <style type="text/css">*{stroke-linejoin: round; stroke-linecap: butt}</style>
 </defs>
 <g id="figure_1">
  <g id="patch_1">
   <path d="M 0 281.99952 
L 425.99952 281.99952 
L 425.99952 0 
L 0 0 
z
" style="fill: #ffffff"/>
  </g>
  <g id="axes_1">
   <g id="patch_2">
    <path d="M 44.251719 246.484051 
L 418.79952 246.484051 
L 418.79952 7.2 
L 44.251719 7.2 
z
" style="fill: #ffffff"/>
   </g>
   <g id="matplotlib.axis_1">
    <g id="xtick_1">
     <g id="line2d_1">
      <path d="M 61.276619 246.484051 
L 61.276619 7.2 
" clip-path="url(#pabf033f1c9)" style="fill: none; stroke: #e6e6e6; stroke-opacity: 0.65; stroke-width: 0.45; stroke-linecap: square"/>
     </g>
     <g id="line2d_2">
      <defs>
       <path id="m659fc90752" d="M 0 0 
L 0 3 
" style="stroke: #000000; stroke-width: 0.8"/>
      </defs>
      <g>
       <use xlink:href="#m659fc90752" x="61.276619" y="246.484051" style="stroke: #000000; stroke-width: 0.8"/>
      </g>
     </g>
     <g id="text_1">
      <!-- $\mathdefault{10^{0}}$ -->
      <g transform="translate(54.796619 259.379051)">
       <text>
        <tspan x="0" y="-0.660938" style="font-size: 8px; font-family: 'Microsoft YaHei'">1</tspan>
        <tspan x="4.691406" y="-0.660938" style="font-size: 8px; font-family: 'Microsoft YaHei'">0</tspan>
        <tspan x="9.458555" y="-3.690625" style="font-size: 5.6px; font-family: 'Microsoft YaHei'">0</tspan>
       </text>
      </g>
     </g>
    </g>
    <g id="xtick_2">
     <g id="line2d_3">
      <path d="M 153.328731 246.484051 
L 153.328731 7.2 
" clip-path="url(#pabf033f1c9)" style="fill: none; stroke: #e6e6e6; stroke-opacity: 0.65; stroke-width: 0.45; stroke-linecap: square"/>
     </g>
     <g id="line2d_4">
      <g>
       <use xlink:href="#m659fc90752" x="153.328731" y="246.484051" style="stroke: #000000; stroke-width: 0.8"/>
      </g>
     </g>
     <g id="text_2">
      <!-- $\mathdefault{10^{1}}$ -->
      <g transform="translate(146.848731 259.379051)">
       <text>
        <tspan x="0" y="-0.639063" style="font-size: 8px; font-family: 'Microsoft YaHei'">1</tspan>
        <tspan x="4.691406" y="-0.639063" style="font-size: 8px; font-family: 'Microsoft YaHei'">0</tspan>
        <tspan x="9.458555" y="-3.66875" style="font-size: 5.6px; font-family: 'Microsoft YaHei'">1</tspan>
       </text>
      </g>
     </g>
    </g>
    <g id="xtick_3">
     <g id="line2d_5">
      <path d="M 245.380843 246.484051 
L 245.380843 7.2 
" clip-path="url(#pabf033f1c9)" style="fill: none; stroke: #e6e6e6; stroke-opacity: 0.65; stroke-width: 0.45; stroke-linecap: square"/>
     </g>
     <g id="line2d_6">
      <g>
       <use xlink:href="#m659fc90752" x="245.380843" y="246.484051" style="stroke: #000000; stroke-width: 0.8"/>
      </g>
     </g>
     <g id="text_3">
      <!-- $\mathdefault{10^{2}}$ -->
      <g transform="translate(238.900843 259.379051)">
       <text>
        <tspan x="0" y="-0.660938" style="font-size: 8px; font-family: 'Microsoft YaHei'">1</tspan>
        <tspan x="4.691406" y="-0.660938" style="font-size: 8px; font-family: 'Microsoft YaHei'">0</tspan>
        <tspan x="9.458555" y="-3.690625" style="font-size: 5.6px; font-family: 'Microsoft YaHei'">2</tspan>
       </text>
      </g>
     </g>
    </g>
    <g id="xtick_4">
     <g id="line2d_7">
      <path d="M 337.432955 246.484051 
L 337.432955 7.2 
" clip-path="url(#pabf033f1c9)" style="fill: none; stroke: #e6e6e6; stroke-opacity: 0.65; stroke-width: 0.45; stroke-linecap: square"/>
     </g>
     <g id="line2d_8">
      <g>
       <use xlink:href="#m659fc90752" x="337.432955" y="246.484051" style="stroke: #000000; stroke-width: 0.8"/>
      </g>
     </g>
     <g id="text_4">
      <!-- $\mathdefault{10^{3}}$ -->
      <g transform="translate(330.952955 259.379051)">
       <text>
        <tspan x="0" y="-0.660938" style="font-size: 8px; font-family: 'Microsoft YaHei'">1</tspan>
        <tspan x="4.691406" y="-0.660938" style="font-size: 8px; font-family: 'Microsoft YaHei'">0</tspan>
        <tspan x="9.458555" y="-3.690625" style="font-size: 5.6px; font-family: 'Microsoft YaHei'">3</tspan>
       </text>
      </g>
     </g>
    </g>
    <g id="xtick_5">
     <g id="line2d_9">
      <path d="M 47.017566 246.484051 
L 47.017566 7.2 
" clip-path="url(#pabf033f1c9)" style="fill: none; stroke: #e6e6e6; stroke-opacity: 0.3; stroke-width: 0.25; stroke-linecap: square"/>
     </g>
     <g id="line2d_10">
      <defs>
       <path id="m167781f7bb" d="M 0 0 
L 0 2 
" style="stroke: #000000; stroke-width: 0.6"/>
      </defs>
      <g>
       <use xlink:href="#m167781f7bb" x="47.017566" y="246.484051" style="stroke: #000000; stroke-width: 0.6"/>
      </g>
     </g>
    </g>
    <g id="xtick_6">
     <g id="line2d_11">
      <path d="M 52.355847 246.484051 
L 52.355847 7.2 
" clip-path="url(#pabf033f1c9)" style="fill: none; stroke: #e6e6e6; stroke-opacity: 0.3; stroke-width: 0.25; stroke-linecap: square"/>
     </g>
     <g id="line2d_12">
      <g>
       <use xlink:href="#m167781f7bb" x="52.355847" y="246.484051" style="stroke: #000000; stroke-width: 0.6"/>
      </g>
     </g>
    </g>
    <g id="xtick_7">
     <g id="line2d_13">
      <path d="M 57.064545 246.484051 
L 57.064545 7.2 
" clip-path="url(#pabf033f1c9)" style="fill: none; stroke: #e6e6e6; stroke-opacity: 0.3; stroke-width: 0.25; stroke-linecap: square"/>
     </g>
     <g id="line2d_14">
      <g>
       <use xlink:href="#m167781f7bb" x="57.064545" y="246.484051" style="stroke: #000000; stroke-width: 0.6"/>
      </g>
     </g>
    </g>
    <g id="xtick_8">
     <g id="line2d_15">
      <path d="M 88.987066 246.484051 
L 88.987066 7.2 
" clip-path="url(#pabf033f1c9)" style="fill: none; stroke: #e6e6e6; stroke-opacity: 0.3; stroke-width: 0.25; stroke-linecap: square"/>
     </g>
     <g id="line2d_16">
      <g>
       <use xlink:href="#m167781f7bb" x="88.987066" y="246.484051" style="stroke: #000000; stroke-width: 0.6"/>
      </g>
     </g>
    </g>
    <g id="xtick_9">
     <g id="line2d_17">
      <path d="M 105.196638 246.484051 
L 105.196638 7.2 
" clip-path="url(#pabf033f1c9)" style="fill: none; stroke: #e6e6e6; stroke-opacity: 0.3; stroke-width: 0.25; stroke-linecap: square"/>
     </g>
     <g id="line2d_18">
      <g>
       <use xlink:href="#m167781f7bb" x="105.196638" y="246.484051" style="stroke: #000000; stroke-width: 0.6"/>
      </g>
     </g>
    </g>
    <g id="xtick_10">
     <g id="line2d_19">
      <path d="M 116.697513 246.484051 
L 116.697513 7.2 
" clip-path="url(#pabf033f1c9)" style="fill: none; stroke: #e6e6e6; stroke-opacity: 0.3; stroke-width: 0.25; stroke-linecap: square"/>
     </g>
     <g id="line2d_20">
      <g>
       <use xlink:href="#m167781f7bb" x="116.697513" y="246.484051" style="stroke: #000000; stroke-width: 0.6"/>
      </g>
     </g>
    </g>
    <g id="xtick_11">
     <g id="line2d_21">
      <path d="M 125.618284 246.484051 
L 125.618284 7.2 
" clip-path="url(#pabf033f1c9)" style="fill: none; stroke: #e6e6e6; stroke-opacity: 0.3; stroke-width: 0.25; stroke-linecap: square"/>
     </g>
     <g id="line2d_22">
      <g>
       <use xlink:href="#m167781f7bb" x="125.618284" y="246.484051" style="stroke: #000000; stroke-width: 0.6"/>
      </g>
     </g>
    </g>
    <g id="xtick_12">
     <g id="line2d_23">
      <path d="M 132.907085 246.484051 
L 132.907085 7.2 
" clip-path="url(#pabf033f1c9)" style="fill: none; stroke: #e6e6e6; stroke-opacity: 0.3; stroke-width: 0.25; stroke-linecap: square"/>
     </g>
     <g id="line2d_24">
      <g>
       <use xlink:href="#m167781f7bb" x="132.907085" y="246.484051" style="stroke: #000000; stroke-width: 0.6"/>
      </g>
     </g>
    </g>
    <g id="xtick_13">
     <g id="line2d_25">
      <path d="M 139.069678 246.484051 
L 139.069678 7.2 
" clip-path="url(#pabf033f1c9)" style="fill: none; stroke: #e6e6e6; stroke-opacity: 0.3; stroke-width: 0.25; stroke-linecap: square"/>
     </g>
     <g id="line2d_26">
      <g>
       <use xlink:href="#m167781f7bb" x="139.069678" y="246.484051" style="stroke: #000000; stroke-width: 0.6"/>
      </g>
     </g>
    </g>
    <g id="xtick_14">
     <g id="line2d_27">
      <path d="M 144.407959 246.484051 
L 144.407959 7.2 
" clip-path="url(#pabf033f1c9)" style="fill: none; stroke: #e6e6e6; stroke-opacity: 0.3; stroke-width: 0.25; stroke-linecap: square"/>
     </g>
     <g id="line2d_28">
      <g>
       <use xlink:href="#m167781f7bb" x="144.407959" y="246.484051" style="stroke: #000000; stroke-width: 0.6"/>
      </g>
     </g>
    </g>
    <g id="xtick_15">
     <g id="line2d_29">
      <path d="M 149.116657 246.484051 
L 149.116657 7.2 
" clip-path="url(#pabf033f1c9)" style="fill: none; stroke: #e6e6e6; stroke-opacity: 0.3; stroke-width: 0.25; stroke-linecap: square"/>
     </g>
     <g id="line2d_30">
      <g>
       <use xlink:href="#m167781f7bb" x="149.116657" y="246.484051" style="stroke: #000000; stroke-width: 0.6"/>
      </g>
     </g>
    </g>
    <g id="xtick_16">
     <g id="line2d_31">
      <path d="M 181.039178 246.484051 
L 181.039178 7.2 
" clip-path="url(#pabf033f1c9)" style="fill: none; stroke: #e6e6e6; stroke-opacity: 0.3; stroke-width: 0.25; stroke-linecap: square"/>
     </g>
     <g id="line2d_32">
      <g>
       <use xlink:href="#m167781f7bb" x="181.039178" y="246.484051" style="stroke: #000000; stroke-width: 0.6"/>
      </g>
     </g>
    </g>
    <g id="xtick_17">
     <g id="line2d_33">
      <path d="M 197.24875 246.484051 
L 197.24875 7.2 
" clip-path="url(#pabf033f1c9)" style="fill: none; stroke: #e6e6e6; stroke-opacity: 0.3; stroke-width: 0.25; stroke-linecap: square"/>
     </g>
     <g id="line2d_34">
      <g>
       <use xlink:href="#m167781f7bb" x="197.24875" y="246.484051" style="stroke: #000000; stroke-width: 0.6"/>
      </g>
     </g>
    </g>
    <g id="xtick_18">
     <g id="line2d_35">
      <path d="M 208.749625 246.484051 
L 208.749625 7.2 
" clip-path="url(#pabf033f1c9)" style="fill: none; stroke: #e6e6e6; stroke-opacity: 0.3; stroke-width: 0.25; stroke-linecap: square"/>
     </g>
     <g id="line2d_36">
      <g>
       <use xlink:href="#m167781f7bb" x="208.749625" y="246.484051" style="stroke: #000000; stroke-width: 0.6"/>
      </g>
     </g>
    </g>
    <g id="xtick_19">
     <g id="line2d_37">
      <path d="M 217.670396 246.484051 
L 217.670396 7.2 
" clip-path="url(#pabf033f1c9)" style="fill: none; stroke: #e6e6e6; stroke-opacity: 0.3; stroke-width: 0.25; stroke-linecap: square"/>
     </g>
     <g id="line2d_38">
      <g>
       <use xlink:href="#m167781f7bb" x="217.670396" y="246.484051" style="stroke: #000000; stroke-width: 0.6"/>
      </g>
     </g>
    </g>
    <g id="xtick_20">
     <g id="line2d_39">
      <path d="M 224.959197 246.484051 
L 224.959197 7.2 
" clip-path="url(#pabf033f1c9)" style="fill: none; stroke: #e6e6e6; stroke-opacity: 0.3; stroke-width: 0.25; stroke-linecap: square"/>
     </g>
     <g id="line2d_40">
      <g>
       <use xlink:href="#m167781f7bb" x="224.959197" y="246.484051" style="stroke: #000000; stroke-width: 0.6"/>
      </g>
     </g>
    </g>
    <g id="xtick_21">
     <g id="line2d_41">
      <path d="M 231.12179 246.484051 
L 231.12179 7.2 
" clip-path="url(#pabf033f1c9)" style="fill: none; stroke: #e6e6e6; stroke-opacity: 0.3; stroke-width: 0.25; stroke-linecap: square"/>
     </g>
     <g id="line2d_42">
      <g>
       <use xlink:href="#m167781f7bb" x="231.12179" y="246.484051" style="stroke: #000000; stroke-width: 0.6"/>
      </g>
     </g>
    </g>
    <g id="xtick_22">
     <g id="line2d_43">
      <path d="M 236.460071 246.484051 
L 236.460071 7.2 
" clip-path="url(#pabf033f1c9)" style="fill: none; stroke: #e6e6e6; stroke-opacity: 0.3; stroke-width: 0.25; stroke-linecap: square"/>
     </g>
     <g id="line2d_44">
      <g>
       <use xlink:href="#m167781f7bb" x="236.460071" y="246.484051" style="stroke: #000000; stroke-width: 0.6"/>
      </g>
     </g>
    </g>
    <g id="xtick_23">
     <g id="line2d_45">
      <path d="M 241.168769 246.484051 
L 241.168769 7.2 
" clip-path="url(#pabf033f1c9)" style="fill: none; stroke: #e6e6e6; stroke-opacity: 0.3; stroke-width: 0.25; stroke-linecap: square"/>
     </g>
     <g id="line2d_46">
      <g>
       <use xlink:href="#m167781f7bb" x="241.168769" y="246.484051" style="stroke: #000000; stroke-width: 0.6"/>
      </g>
     </g>
    </g>
    <g id="xtick_24">
     <g id="line2d_47">
      <path d="M 273.09129 246.484051 
L 273.09129 7.2 
" clip-path="url(#pabf033f1c9)" style="fill: none; stroke: #e6e6e6; stroke-opacity: 0.3; stroke-width: 0.25; stroke-linecap: square"/>
     </g>
     <g id="line2d_48">
      <g>
       <use xlink:href="#m167781f7bb" x="273.09129" y="246.484051" style="stroke: #000000; stroke-width: 0.6"/>
      </g>
     </g>
    </g>
    <g id="xtick_25">
     <g id="line2d_49">
      <path d="M 289.300862 246.484051 
L 289.300862 7.2 
" clip-path="url(#pabf033f1c9)" style="fill: none; stroke: #e6e6e6; stroke-opacity: 0.3; stroke-width: 0.25; stroke-linecap: square"/>
     </g>
     <g id="line2d_50">
      <g>
       <use xlink:href="#m167781f7bb" x="289.300862" y="246.484051" style="stroke: #000000; stroke-width: 0.6"/>
      </g>
     </g>
    </g>
    <g id="xtick_26">
     <g id="line2d_51">
      <path d="M 300.801737 246.484051 
L 300.801737 7.2 
" clip-path="url(#pabf033f1c9)" style="fill: none; stroke: #e6e6e6; stroke-opacity: 0.3; stroke-width: 0.25; stroke-linecap: square"/>
     </g>
     <g id="line2d_52">
      <g>
       <use xlink:href="#m167781f7bb" x="300.801737" y="246.484051" style="stroke: #000000; stroke-width: 0.6"/>
      </g>
     </g>
    </g>
    <g id="xtick_27">
     <g id="line2d_53">
      <path d="M 309.722508 246.484051 
L 309.722508 7.2 
" clip-path="url(#pabf033f1c9)" style="fill: none; stroke: #e6e6e6; stroke-opacity: 0.3; stroke-width: 0.25; stroke-linecap: square"/>
     </g>
     <g id="line2d_54">
      <g>
       <use xlink:href="#m167781f7bb" x="309.722508" y="246.484051" style="stroke: #000000; stroke-width: 0.6"/>
      </g>
     </g>
    </g>
    <g id="xtick_28">
     <g id="line2d_55">
      <path d="M 317.011309 246.484051 
L 317.011309 7.2 
" clip-path="url(#pabf033f1c9)" style="fill: none; stroke: #e6e6e6; stroke-opacity: 0.3; stroke-width: 0.25; stroke-linecap: square"/>
     </g>
     <g id="line2d_56">
      <g>
       <use xlink:href="#m167781f7bb" x="317.011309" y="246.484051" style="stroke: #000000; stroke-width: 0.6"/>
      </g>
     </g>
    </g>
    <g id="xtick_29">
     <g id="line2d_57">
      <path d="M 323.173902 246.484051 
L 323.173902 7.2 
" clip-path="url(#pabf033f1c9)" style="fill: none; stroke: #e6e6e6; stroke-opacity: 0.3; stroke-width: 0.25; stroke-linecap: square"/>
     </g>
     <g id="line2d_58">
      <g>
       <use xlink:href="#m167781f7bb" x="323.173902" y="246.484051" style="stroke: #000000; stroke-width: 0.6"/>
      </g>
     </g>
    </g>
    <g id="xtick_30">
     <g id="line2d_59">
      <path d="M 328.512183 246.484051 
L 328.512183 7.2 
" clip-path="url(#pabf033f1c9)" style="fill: none; stroke: #e6e6e6; stroke-opacity: 0.3; stroke-width: 0.25; stroke-linecap: square"/>
     </g>
     <g id="line2d_60">
      <g>
       <use xlink:href="#m167781f7bb" x="328.512183" y="246.484051" style="stroke: #000000; stroke-width: 0.6"/>
      </g>
     </g>
    </g>
    <g id="xtick_31">
     <g id="line2d_61">
      <path d="M 333.220881 246.484051 
L 333.220881 7.2 
" clip-path="url(#pabf033f1c9)" style="fill: none; stroke: #e6e6e6; stroke-opacity: 0.3; stroke-width: 0.25; stroke-linecap: square"/>
     </g>
     <g id="line2d_62">
      <g>
       <use xlink:href="#m167781f7bb" x="333.220881" y="246.484051" style="stroke: #000000; stroke-width: 0.6"/>
      </g>
     </g>
    </g>
    <g id="xtick_32">
     <g id="line2d_63">
      <path d="M 365.143402 246.484051 
L 365.143402 7.2 
" clip-path="url(#pabf033f1c9)" style="fill: none; stroke: #e6e6e6; stroke-opacity: 0.3; stroke-width: 0.25; stroke-linecap: square"/>
     </g>
     <g id="line2d_64">
      <g>
       <use xlink:href="#m167781f7bb" x="365.143402" y="246.484051" style="stroke: #000000; stroke-width: 0.6"/>
      </g>
     </g>
    </g>
    <g id="xtick_33">
     <g id="line2d_65">
      <path d="M 381.352974 246.484051 
L 381.352974 7.2 
" clip-path="url(#pabf033f1c9)" style="fill: none; stroke: #e6e6e6; stroke-opacity: 0.3; stroke-width: 0.25; stroke-linecap: square"/>
     </g>
     <g id="line2d_66">
      <g>
       <use xlink:href="#m167781f7bb" x="381.352974" y="246.484051" style="stroke: #000000; stroke-width: 0.6"/>
      </g>
     </g>
    </g>
    <g id="xtick_34">
     <g id="line2d_67">
      <path d="M 392.853849 246.484051 
L 392.853849 7.2 
" clip-path="url(#pabf033f1c9)" style="fill: none; stroke: #e6e6e6; stroke-opacity: 0.3; stroke-width: 0.25; stroke-linecap: square"/>
     </g>
     <g id="line2d_68">
      <g>
       <use xlink:href="#m167781f7bb" x="392.853849" y="246.484051" style="stroke: #000000; stroke-width: 0.6"/>
      </g>
     </g>
    </g>
    <g id="xtick_35">
     <g id="line2d_69">
      <path d="M 401.77462 246.484051 
L 401.77462 7.2 
" clip-path="url(#pabf033f1c9)" style="fill: none; stroke: #e6e6e6; stroke-opacity: 0.3; stroke-width: 0.25; stroke-linecap: square"/>
     </g>
     <g id="line2d_70">
      <g>
       <use xlink:href="#m167781f7bb" x="401.77462" y="246.484051" style="stroke: #000000; stroke-width: 0.6"/>
      </g>
     </g>
    </g>
    <g id="xtick_36">
     <g id="line2d_71">
      <path d="M 409.063421 246.484051 
L 409.063421 7.2 
" clip-path="url(#pabf033f1c9)" style="fill: none; stroke: #e6e6e6; stroke-opacity: 0.3; stroke-width: 0.25; stroke-linecap: square"/>
     </g>
     <g id="line2d_72">
      <g>
       <use xlink:href="#m167781f7bb" x="409.063421" y="246.484051" style="stroke: #000000; stroke-width: 0.6"/>
      </g>
     </g>
    </g>
    <g id="xtick_37">
     <g id="line2d_73">
      <path d="M 415.226014 246.484051 
L 415.226014 7.2 
" clip-path="url(#pabf033f1c9)" style="fill: none; stroke: #e6e6e6; stroke-opacity: 0.3; stroke-width: 0.25; stroke-linecap: square"/>
     </g>
     <g id="line2d_74">
      <g>
       <use xlink:href="#m167781f7bb" x="415.226014" y="246.484051" style="stroke: #000000; stroke-width: 0.6"/>
      </g>
     </g>
    </g>
    <g id="text_5">
     <!-- $t$ -->
     <g transform="translate(229.725619 272.562176)">
      <text>
       <tspan x="0" y="-0.6875" style="font-style: oblique; font-size: 9px; font-family: 'DejaVu Sans'">t</tspan>
      </text>
     </g>
    </g>
   </g>
   <g id="matplotlib.axis_2">
    <g id="ytick_1">
     <g id="line2d_75">
      <path d="M 44.251719 206.176718 
L 418.79952 206.176718 
" clip-path="url(#pabf033f1c9)" style="fill: none; stroke: #e6e6e6; stroke-opacity: 0.65; stroke-width: 0.45; stroke-linecap: square"/>
     </g>
     <g id="line2d_76">
      <defs>
       <path id="m7ca9e5b645" d="M 0 0 
L -3 0 
" style="stroke: #000000; stroke-width: 0.8"/>
      </defs>
      <g>
       <use xlink:href="#m7ca9e5b645" x="44.251719" y="206.176718" style="stroke: #000000; stroke-width: 0.8"/>
      </g>
     </g>
     <g id="text_6">
      <!-- $\mathdefault{10^{-3}}$ -->
      <g transform="translate(20.631719 209.374218)">
       <text>
        <tspan x="0" y="-0.660938" style="font-size: 8px; font-family: 'Microsoft YaHei'">1</tspan>
        <tspan x="4.691406" y="-0.660938" style="font-size: 8px; font-family: 'Microsoft YaHei'">0</tspan>
        <tspan x="9.458555" y="-3.690625" style="font-size: 5.6px; font-family: 'Microsoft YaHei'">−</tspan>
        <tspan x="13.61207" y="-3.690625" style="font-size: 5.6px; font-family: 'Microsoft YaHei'">3</tspan>
       </text>
      </g>
     </g>
    </g>
    <g id="ytick_2">
     <g id="line2d_77">
      <path d="M 44.251719 144.49264 
L 418.79952 144.49264 
" clip-path="url(#pabf033f1c9)" style="fill: none; stroke: #e6e6e6; stroke-opacity: 0.65; stroke-width: 0.45; stroke-linecap: square"/>
     </g>
     <g id="line2d_78">
      <g>
       <use xlink:href="#m7ca9e5b645" x="44.251719" y="144.49264" style="stroke: #000000; stroke-width: 0.8"/>
      </g>
     </g>
     <g id="text_7">
      <!-- $\mathdefault{10^{-2}}$ -->
      <g transform="translate(20.631719 147.69014)">
       <text>
        <tspan x="0" y="-0.660938" style="font-size: 8px; font-family: 'Microsoft YaHei'">1</tspan>
        <tspan x="4.691406" y="-0.660938" style="font-size: 8px; font-family: 'Microsoft YaHei'">0</tspan>
        <tspan x="9.458555" y="-3.690625" style="font-size: 5.6px; font-family: 'Microsoft YaHei'">−</tspan>
        <tspan x="13.61207" y="-3.690625" style="font-size: 5.6px; font-family: 'Microsoft YaHei'">2</tspan>
       </text>
      </g>
     </g>
    </g>
    <g id="ytick_3">
     <g id="line2d_79">
      <path d="M 44.251719 82.808561 
L 418.79952 82.808561 
" clip-path="url(#pabf033f1c9)" style="fill: none; stroke: #e6e6e6; stroke-opacity: 0.65; stroke-width: 0.45; stroke-linecap: square"/>
     </g>
     <g id="line2d_80">
      <g>
       <use xlink:href="#m7ca9e5b645" x="44.251719" y="82.808561" style="stroke: #000000; stroke-width: 0.8"/>
      </g>
     </g>
     <g id="text_8">
      <!-- $\mathdefault{10^{-1}}$ -->
      <g transform="translate(20.631719 86.006061)">
       <text>
        <tspan x="0" y="-0.639063" style="font-size: 8px; font-family: 'Microsoft YaHei'">1</tspan>
        <tspan x="4.691406" y="-0.639063" style="font-size: 8px; font-family: 'Microsoft YaHei'">0</tspan>
        <tspan x="9.458555" y="-3.66875" style="font-size: 5.6px; font-family: 'Microsoft YaHei'">−</tspan>
        <tspan x="13.61207" y="-3.66875" style="font-size: 5.6px; font-family: 'Microsoft YaHei'">1</tspan>
       </text>
      </g>
     </g>
    </g>
    <g id="ytick_4">
     <g id="line2d_81">
      <path d="M 44.251719 21.124482 
L 418.79952 21.124482 
" clip-path="url(#pabf033f1c9)" style="fill: none; stroke: #e6e6e6; stroke-opacity: 0.65; stroke-width: 0.45; stroke-linecap: square"/>
     </g>
     <g id="line2d_82">
      <g>
       <use xlink:href="#m7ca9e5b645" x="44.251719" y="21.124482" style="stroke: #000000; stroke-width: 0.8"/>
      </g>
     </g>
     <g id="text_9">
      <!-- $\mathdefault{10^{0}}$ -->
      <g transform="translate(24.791719 24.321982)">
       <text>
        <tspan x="0" y="-0.660938" style="font-size: 8px; font-family: 'Microsoft YaHei'">1</tspan>
        <tspan x="4.691406" y="-0.660938" style="font-size: 8px; font-family: 'Microsoft YaHei'">0</tspan>
        <tspan x="9.458555" y="-3.690625" style="font-size: 5.6px; font-family: 'Microsoft YaHei'">0</tspan>
       </text>
      </g>
     </g>
    </g>
    <g id="ytick_5">
     <g id="line2d_83">
      <path d="M 44.251719 238.430012 
L 418.79952 238.430012 
" clip-path="url(#pabf033f1c9)" style="fill: none; stroke: #e6e6e6; stroke-opacity: 0.3; stroke-width: 0.25; stroke-linecap: square"/>
     </g>
     <g id="line2d_84">
      <defs>
       <path id="mcb30b3694d" d="M 0 0 
L -2 0 
" style="stroke: #000000; stroke-width: 0.6"/>
      </defs>
      <g>
       <use xlink:href="#mcb30b3694d" x="44.251719" y="238.430012" style="stroke: #000000; stroke-width: 0.6"/>
      </g>
     </g>
    </g>
    <g id="ytick_6">
     <g id="line2d_85">
      <path d="M 44.251719 230.723281 
L 418.79952 230.723281 
" clip-path="url(#pabf033f1c9)" style="fill: none; stroke: #e6e6e6; stroke-opacity: 0.3; stroke-width: 0.25; stroke-linecap: square"/>
     </g>
     <g id="line2d_86">
      <g>
       <use xlink:href="#mcb30b3694d" x="44.251719" y="230.723281" style="stroke: #000000; stroke-width: 0.6"/>
      </g>
     </g>
    </g>
    <g id="ytick_7">
     <g id="line2d_87">
      <path d="M 44.251719 224.745476 
L 418.79952 224.745476 
" clip-path="url(#pabf033f1c9)" style="fill: none; stroke: #e6e6e6; stroke-opacity: 0.3; stroke-width: 0.25; stroke-linecap: square"/>
     </g>
     <g id="line2d_88">
      <g>
       <use xlink:href="#mcb30b3694d" x="44.251719" y="224.745476" style="stroke: #000000; stroke-width: 0.6"/>
      </g>
     </g>
    </g>
    <g id="ytick_8">
     <g id="line2d_89">
      <path d="M 44.251719 219.861254 
L 418.79952 219.861254 
" clip-path="url(#pabf033f1c9)" style="fill: none; stroke: #e6e6e6; stroke-opacity: 0.3; stroke-width: 0.25; stroke-linecap: square"/>
     </g>
     <g id="line2d_90">
      <g>
       <use xlink:href="#mcb30b3694d" x="44.251719" y="219.861254" style="stroke: #000000; stroke-width: 0.6"/>
      </g>
     </g>
    </g>
    <g id="ytick_9">
     <g id="line2d_91">
      <path d="M 44.251719 215.731703 
L 418.79952 215.731703 
" clip-path="url(#pabf033f1c9)" style="fill: none; stroke: #e6e6e6; stroke-opacity: 0.3; stroke-width: 0.25; stroke-linecap: square"/>
     </g>
     <g id="line2d_92">
      <g>
       <use xlink:href="#mcb30b3694d" x="44.251719" y="215.731703" style="stroke: #000000; stroke-width: 0.6"/>
      </g>
     </g>
    </g>
    <g id="ytick_10">
     <g id="line2d_93">
      <path d="M 44.251719 212.154523 
L 418.79952 212.154523 
" clip-path="url(#pabf033f1c9)" style="fill: none; stroke: #e6e6e6; stroke-opacity: 0.3; stroke-width: 0.25; stroke-linecap: square"/>
     </g>
     <g id="line2d_94">
      <g>
       <use xlink:href="#mcb30b3694d" x="44.251719" y="212.154523" style="stroke: #000000; stroke-width: 0.6"/>
      </g>
     </g>
    </g>
    <g id="ytick_11">
     <g id="line2d_95">
      <path d="M 44.251719 208.999227 
L 418.79952 208.999227 
" clip-path="url(#pabf033f1c9)" style="fill: none; stroke: #e6e6e6; stroke-opacity: 0.3; stroke-width: 0.25; stroke-linecap: square"/>
     </g>
     <g id="line2d_96">
      <g>
       <use xlink:href="#mcb30b3694d" x="44.251719" y="208.999227" style="stroke: #000000; stroke-width: 0.6"/>
      </g>
     </g>
    </g>
    <g id="ytick_12">
     <g id="line2d_97">
      <path d="M 44.251719 187.60796 
L 418.79952 187.60796 
" clip-path="url(#pabf033f1c9)" style="fill: none; stroke: #e6e6e6; stroke-opacity: 0.3; stroke-width: 0.25; stroke-linecap: square"/>
     </g>
     <g id="line2d_98">
      <g>
       <use xlink:href="#mcb30b3694d" x="44.251719" y="187.60796" style="stroke: #000000; stroke-width: 0.6"/>
      </g>
     </g>
    </g>
    <g id="ytick_13">
     <g id="line2d_99">
      <path d="M 44.251719 176.745933 
L 418.79952 176.745933 
" clip-path="url(#pabf033f1c9)" style="fill: none; stroke: #e6e6e6; stroke-opacity: 0.3; stroke-width: 0.25; stroke-linecap: square"/>
     </g>
     <g id="line2d_100">
      <g>
       <use xlink:href="#mcb30b3694d" x="44.251719" y="176.745933" style="stroke: #000000; stroke-width: 0.6"/>
      </g>
     </g>
    </g>
    <g id="ytick_14">
     <g id="line2d_101">
      <path d="M 44.251719 169.039202 
L 418.79952 169.039202 
" clip-path="url(#pabf033f1c9)" style="fill: none; stroke: #e6e6e6; stroke-opacity: 0.3; stroke-width: 0.25; stroke-linecap: square"/>
     </g>
     <g id="line2d_102">
      <g>
       <use xlink:href="#mcb30b3694d" x="44.251719" y="169.039202" style="stroke: #000000; stroke-width: 0.6"/>
      </g>
     </g>
    </g>
    <g id="ytick_15">
     <g id="line2d_103">
      <path d="M 44.251719 163.061398 
L 418.79952 163.061398 
" clip-path="url(#pabf033f1c9)" style="fill: none; stroke: #e6e6e6; stroke-opacity: 0.3; stroke-width: 0.25; stroke-linecap: square"/>
     </g>
     <g id="line2d_104">
      <g>
       <use xlink:href="#mcb30b3694d" x="44.251719" y="163.061398" style="stroke: #000000; stroke-width: 0.6"/>
      </g>
     </g>
    </g>
    <g id="ytick_16">
     <g id="line2d_105">
      <path d="M 44.251719 158.177175 
L 418.79952 158.177175 
" clip-path="url(#pabf033f1c9)" style="fill: none; stroke: #e6e6e6; stroke-opacity: 0.3; stroke-width: 0.25; stroke-linecap: square"/>
     </g>
     <g id="line2d_106">
      <g>
       <use xlink:href="#mcb30b3694d" x="44.251719" y="158.177175" style="stroke: #000000; stroke-width: 0.6"/>
      </g>
     </g>
    </g>
    <g id="ytick_17">
     <g id="line2d_107">
      <path d="M 44.251719 154.047624 
L 418.79952 154.047624 
" clip-path="url(#pabf033f1c9)" style="fill: none; stroke: #e6e6e6; stroke-opacity: 0.3; stroke-width: 0.25; stroke-linecap: square"/>
     </g>
     <g id="line2d_108">
      <g>
       <use xlink:href="#mcb30b3694d" x="44.251719" y="154.047624" style="stroke: #000000; stroke-width: 0.6"/>
      </g>
     </g>
    </g>
    <g id="ytick_18">
     <g id="line2d_109">
      <path d="M 44.251719 150.470445 
L 418.79952 150.470445 
" clip-path="url(#pabf033f1c9)" style="fill: none; stroke: #e6e6e6; stroke-opacity: 0.3; stroke-width: 0.25; stroke-linecap: square"/>
     </g>
     <g id="line2d_110">
      <g>
       <use xlink:href="#mcb30b3694d" x="44.251719" y="150.470445" style="stroke: #000000; stroke-width: 0.6"/>
      </g>
     </g>
    </g>
    <g id="ytick_19">
     <g id="line2d_111">
      <path d="M 44.251719 147.315148 
L 418.79952 147.315148 
" clip-path="url(#pabf033f1c9)" style="fill: none; stroke: #e6e6e6; stroke-opacity: 0.3; stroke-width: 0.25; stroke-linecap: square"/>
     </g>
     <g id="line2d_112">
      <g>
       <use xlink:href="#mcb30b3694d" x="44.251719" y="147.315148" style="stroke: #000000; stroke-width: 0.6"/>
      </g>
     </g>
    </g>
    <g id="ytick_20">
     <g id="line2d_113">
      <path d="M 44.251719 125.923882 
L 418.79952 125.923882 
" clip-path="url(#pabf033f1c9)" style="fill: none; stroke: #e6e6e6; stroke-opacity: 0.3; stroke-width: 0.25; stroke-linecap: square"/>
     </g>
     <g id="line2d_114">
      <g>
       <use xlink:href="#mcb30b3694d" x="44.251719" y="125.923882" style="stroke: #000000; stroke-width: 0.6"/>
      </g>
     </g>
    </g>
    <g id="ytick_21">
     <g id="line2d_115">
      <path d="M 44.251719 115.061855 
L 418.79952 115.061855 
" clip-path="url(#pabf033f1c9)" style="fill: none; stroke: #e6e6e6; stroke-opacity: 0.3; stroke-width: 0.25; stroke-linecap: square"/>
     </g>
     <g id="line2d_116">
      <g>
       <use xlink:href="#mcb30b3694d" x="44.251719" y="115.061855" style="stroke: #000000; stroke-width: 0.6"/>
      </g>
     </g>
    </g>
    <g id="ytick_22">
     <g id="line2d_117">
      <path d="M 44.251719 107.355124 
L 418.79952 107.355124 
" clip-path="url(#pabf033f1c9)" style="fill: none; stroke: #e6e6e6; stroke-opacity: 0.3; stroke-width: 0.25; stroke-linecap: square"/>
     </g>
     <g id="line2d_118">
      <g>
       <use xlink:href="#mcb30b3694d" x="44.251719" y="107.355124" style="stroke: #000000; stroke-width: 0.6"/>
      </g>
     </g>
    </g>
    <g id="ytick_23">
     <g id="line2d_119">
      <path d="M 44.251719 101.377319 
L 418.79952 101.377319 
" clip-path="url(#pabf033f1c9)" style="fill: none; stroke: #e6e6e6; stroke-opacity: 0.3; stroke-width: 0.25; stroke-linecap: square"/>
     </g>
     <g id="line2d_120">
      <g>
       <use xlink:href="#mcb30b3694d" x="44.251719" y="101.377319" style="stroke: #000000; stroke-width: 0.6"/>
      </g>
     </g>
    </g>
    <g id="ytick_24">
     <g id="line2d_121">
      <path d="M 44.251719 96.493097 
L 418.79952 96.493097 
" clip-path="url(#pabf033f1c9)" style="fill: none; stroke: #e6e6e6; stroke-opacity: 0.3; stroke-width: 0.25; stroke-linecap: square"/>
     </g>
     <g id="line2d_122">
      <g>
       <use xlink:href="#mcb30b3694d" x="44.251719" y="96.493097" style="stroke: #000000; stroke-width: 0.6"/>
      </g>
     </g>
    </g>
    <g id="ytick_25">
     <g id="line2d_123">
      <path d="M 44.251719 92.363546 
L 418.79952 92.363546 
" clip-path="url(#pabf033f1c9)" style="fill: none; stroke: #e6e6e6; stroke-opacity: 0.3; stroke-width: 0.25; stroke-linecap: square"/>
     </g>
     <g id="line2d_124">
      <g>
       <use xlink:href="#mcb30b3694d" x="44.251719" y="92.363546" style="stroke: #000000; stroke-width: 0.6"/>
      </g>
     </g>
    </g>
    <g id="ytick_26">
     <g id="line2d_125">
      <path d="M 44.251719 88.786366 
L 418.79952 88.786366 
" clip-path="url(#pabf033f1c9)" style="fill: none; stroke: #e6e6e6; stroke-opacity: 0.3; stroke-width: 0.25; stroke-linecap: square"/>
     </g>
     <g id="line2d_126">
      <g>
       <use xlink:href="#mcb30b3694d" x="44.251719" y="88.786366" style="stroke: #000000; stroke-width: 0.6"/>
      </g>
     </g>
    </g>
    <g id="ytick_27">
     <g id="line2d_127">
      <path d="M 44.251719 85.63107 
L 418.79952 85.63107 
" clip-path="url(#pabf033f1c9)" style="fill: none; stroke: #e6e6e6; stroke-opacity: 0.3; stroke-width: 0.25; stroke-linecap: square"/>
     </g>
     <g id="line2d_128">
      <g>
       <use xlink:href="#mcb30b3694d" x="44.251719" y="85.63107" style="stroke: #000000; stroke-width: 0.6"/>
      </g>
     </g>
    </g>
    <g id="ytick_28">
     <g id="line2d_129">
      <path d="M 44.251719 64.239803 
L 418.79952 64.239803 
" clip-path="url(#pabf033f1c9)" style="fill: none; stroke: #e6e6e6; stroke-opacity: 0.3; stroke-width: 0.25; stroke-linecap: square"/>
     </g>
     <g id="line2d_130">
      <g>
       <use xlink:href="#mcb30b3694d" x="44.251719" y="64.239803" style="stroke: #000000; stroke-width: 0.6"/>
      </g>
     </g>
    </g>
    <g id="ytick_29">
     <g id="line2d_131">
      <path d="M 44.251719 53.377776 
L 418.79952 53.377776 
" clip-path="url(#pabf033f1c9)" style="fill: none; stroke: #e6e6e6; stroke-opacity: 0.3; stroke-width: 0.25; stroke-linecap: square"/>
     </g>
     <g id="line2d_132">
      <g>
       <use xlink:href="#mcb30b3694d" x="44.251719" y="53.377776" style="stroke: #000000; stroke-width: 0.6"/>
      </g>
     </g>
    </g>
    <g id="ytick_30">
     <g id="line2d_133">
      <path d="M 44.251719 45.671045 
L 418.79952 45.671045 
" clip-path="url(#pabf033f1c9)" style="fill: none; stroke: #e6e6e6; stroke-opacity: 0.3; stroke-width: 0.25; stroke-linecap: square"/>
     </g>
     <g id="line2d_134">
      <g>
       <use xlink:href="#mcb30b3694d" x="44.251719" y="45.671045" style="stroke: #000000; stroke-width: 0.6"/>
      </g>
     </g>
    </g>
    <g id="ytick_31">
     <g id="line2d_135">
      <path d="M 44.251719 39.69324 
L 418.79952 39.69324 
" clip-path="url(#pabf033f1c9)" style="fill: none; stroke: #e6e6e6; stroke-opacity: 0.3; stroke-width: 0.25; stroke-linecap: square"/>
     </g>
     <g id="line2d_136">
      <g>
       <use xlink:href="#mcb30b3694d" x="44.251719" y="39.69324" style="stroke: #000000; stroke-width: 0.6"/>
      </g>
     </g>
    </g>
    <g id="ytick_32">
     <g id="line2d_137">
      <path d="M 44.251719 34.809018 
L 418.79952 34.809018 
" clip-path="url(#pabf033f1c9)" style="fill: none; stroke: #e6e6e6; stroke-opacity: 0.3; stroke-width: 0.25; stroke-linecap: square"/>
     </g>
     <g id="line2d_138">
      <g>
       <use xlink:href="#mcb30b3694d" x="44.251719" y="34.809018" style="stroke: #000000; stroke-width: 0.6"/>
      </g>
     </g>
    </g>
    <g id="ytick_33">
     <g id="line2d_139">
      <path d="M 44.251719 30.679467 
L 418.79952 30.679467 
" clip-path="url(#pabf033f1c9)" style="fill: none; stroke: #e6e6e6; stroke-opacity: 0.3; stroke-width: 0.25; stroke-linecap: square"/>
     </g>
     <g id="line2d_140">
      <g>
       <use xlink:href="#mcb30b3694d" x="44.251719" y="30.679467" style="stroke: #000000; stroke-width: 0.6"/>
      </g>
     </g>
    </g>
    <g id="ytick_34">
     <g id="line2d_141">
      <path d="M 44.251719 27.102287 
L 418.79952 27.102287 
" clip-path="url(#pabf033f1c9)" style="fill: none; stroke: #e6e6e6; stroke-opacity: 0.3; stroke-width: 0.25; stroke-linecap: square"/>
     </g>
     <g id="line2d_142">
      <g>
       <use xlink:href="#mcb30b3694d" x="44.251719" y="27.102287" style="stroke: #000000; stroke-width: 0.6"/>
      </g>
     </g>
    </g>
    <g id="ytick_35">
     <g id="line2d_143">
      <path d="M 44.251719 23.946991 
L 418.79952 23.946991 
" clip-path="url(#pabf033f1c9)" style="fill: none; stroke: #e6e6e6; stroke-opacity: 0.3; stroke-width: 0.25; stroke-linecap: square"/>
     </g>
     <g id="line2d_144">
      <g>
       <use xlink:href="#mcb30b3694d" x="44.251719" y="23.946991" style="stroke: #000000; stroke-width: 0.6"/>
      </g>
     </g>
    </g>
    <g id="text_10">
     <!-- $P(\tau &gt; t)$ -->
     <g transform="translate(14.394375 143.087026) rotate(-90)">
      <text>
       <tspan x="0" y="-0.171875" style="font-style: oblique; font-size: 9px; font-family: 'DejaVu Sans'">P</tspan>
       <tspan x="8.938477" y="-0.171875" style="font-style: oblique; font-size: 9px; font-family: 'DejaVu Sans'">τ</tspan>
       <tspan x="25.404785" y="-0.171875" style="font-style: oblique; font-size: 9px; font-family: 'DejaVu Sans'">t</tspan>
       <tspan x="5.427246" y="-0.171875" style="font-size: 9px; font-family: 'DejaVu Sans'">(</tspan>
       <tspan x="16.110352" y="-0.171875" style="font-size: 9px; font-family: 'DejaVu Sans'">&gt;</tspan>
       <tspan x="28.933594" y="-0.171875" style="font-size: 9px; font-family: 'DejaVu Sans'">)</tspan>
      </text>
     </g>
    </g>
   </g>
   <g id="line2d_145">
    <path d="M -1 21.124482 
L 157.139015 21.160225 
L 160.617532 21.285701 
L 163.817457 21.285701 
L 166.780125 21.502179 
L 169.538303 21.502179 
L 172.118406 21.885277 
L 174.542041 21.885277 
L 176.827104 22.180884 
L 178.988589 22.180884 
L 181.039178 22.583312 
L 182.989697 22.583312 
L 184.849462 23.116635 
L 186.626542 23.116635 
L 188.327979 23.601957 
L 189.959949 23.601957 
L 191.527904 24.116196 
L 193.036676 24.116196 
L 194.490572 24.63032 
L 195.893443 24.63032 
L 197.24875 25.310648 
L 198.559612 25.310648 
L 199.828853 25.805877 
L 201.059034 25.805877 
L 202.252488 26.419024 
L 203.411343 26.419024 
L 204.537551 27.12462 
L 205.6329 27.12462 
L 206.699035 27.666288 
L 207.737476 27.666288 
L 208.749625 28.230774 
L 209.736779 28.230774 
L 210.700144 28.831213 
L 211.64084 28.831213 
L 212.559909 29.64105 
L 213.458322 29.64105 
L 214.336989 30.236662 
L 215.196758 30.236662 
L 216.038425 30.922947 
L 216.862738 30.922947 
L 217.670396 31.534923 
L 218.46206 31.534923 
L 219.238351 31.932985 
L 219.999854 31.932985 
L 220.747123 32.582448 
L 221.48068 32.582448 
L 222.201019 33.318343 
L 222.908608 33.318343 
L 223.60389 34.017165 
L 224.287287 34.017165 
L 224.959197 34.690219 
L 225.620001 34.690219 
L 226.270059 35.471998 
L 226.909717 35.471998 
L 227.5393 36.13616 
L 228.159122 36.13616 
L 228.769481 36.769126 
L 229.370661 36.769126 
L 229.962934 37.548972 
L 230.546561 37.548972 
L 231.12179 38.149125 
L 231.68886 38.149125 
L 232.247998 38.780287 
L 232.799423 38.780287 
L 233.343346 39.497504 
L 233.879968 39.497504 
L 234.409482 39.944445 
L 234.932074 39.944445 
L 235.447923 40.527631 
L 235.9572 40.527631 
L 236.460071 41.011 
L 236.956696 41.011 
L 237.447226 41.675775 
L 237.93181 41.675775 
L 238.410591 42.318043 
L 238.883706 42.318043 
L 239.351287 42.955907 
L 239.813462 42.955907 
L 240.270356 43.63001 
L 240.722086 43.63001 
L 241.168769 44.34275 
L 241.610516 44.34275 
L 242.047436 44.987782 
L 242.479632 44.987782 
L 242.907205 45.805326 
L 243.330254 45.805326 
L 243.748872 46.464014 
L 244.163153 46.464014 
L 244.573185 46.951312 
L 244.979053 46.951312 
L 245.380843 47.759561 
L 245.778634 47.759561 
L 246.172507 48.295847 
L 246.562536 48.295847 
L 246.948798 49.044891 
L 247.331363 49.044891 
L 247.710301 49.530352 
L 248.085682 49.530352 
L 248.45757 50.209254 
L 248.826031 50.209254 
L 249.191127 50.960147 
L 249.552919 50.960147 
L 249.911466 51.565265 
L 250.266826 51.565265 
L 250.619055 52.32709 
L 250.968207 52.32709 
L 251.314337 52.934971 
L 251.657495 52.934971 
L 251.997733 53.677098 
L 252.3351 53.677098 
L 252.669644 54.564538 
L 253.001411 54.564538 
L 253.330448 55.25794 
L 253.656798 55.25794 
L 253.980506 55.936999 
L 254.301614 55.936999 
L 254.620163 56.63372 
L 254.936195 56.63372 
L 255.249747 57.14271 
L 255.560859 57.14271 
L 255.869569 57.942443 
L 256.175913 57.942443 
L 256.479928 58.585411 
L 256.781648 58.585411 
L 257.081108 59.28127 
L 257.378341 59.28127 
L 257.673381 60.033821 
L 257.96626 60.033821 
L 258.257008 60.612441 
L 258.545657 60.612441 
L 258.832237 61.044849 
L 259.116777 61.044849 
L 259.399307 61.686533 
L 259.679853 61.686533 
L 259.958445 62.385597 
L 260.235108 62.385597 
L 260.50987 62.975317 
L 260.782757 62.975317 
L 261.053793 63.404638 
L 261.323005 63.404638 
L 261.590415 64.195192 
L 261.856049 64.195192 
L 262.119929 64.963875 
L 262.382079 64.963875 
L 262.642521 65.566945 
L 262.901278 65.566945 
L 263.15837 66.231955 
L 263.41382 66.231955 
L 263.667647 66.766297 
L 263.919873 66.766297 
L 264.170518 67.361634 
L 264.419602 67.361634 
L 264.667142 68.384241 
L 264.91316 68.384241 
L 265.157673 69.124025 
L 265.400699 69.124025 
L 265.642257 70.050697 
L 265.882364 70.050697 
L 266.121038 70.611158 
L 266.358295 70.611158 
L 266.594153 71.125798 
L 266.828627 71.125798 
L 267.061734 71.709461 
L 267.293489 71.709461 
L 267.523909 72.731839 
L 267.753008 72.731839 
L 267.980802 73.540861 
L 268.207306 73.540861 
L 268.432533 74.180248 
L 268.656498 74.180248 
L 268.879216 74.83527 
L 269.1007 74.83527 
L 269.320963 75.50671 
L 269.54002 75.50671 
L 269.757883 76.195413 
L 269.974565 76.195413 
L 270.190079 76.830756 
L 270.404437 76.830756 
L 270.617652 77.40844 
L 270.829736 77.40844 
L 271.040701 78.223661 
L 271.250558 78.223661 
L 271.459319 78.67901 
L 271.666996 78.67901 
L 271.8736 79.376883 
L 272.079141 79.376883 
L 272.283631 79.692982 
L 272.487081 79.692982 
L 272.6895 80.336593 
L 272.8909 80.336593 
L 273.09129 80.912724 
L 273.29068 80.912724 
L 273.489081 81.331967 
L 273.686503 81.331967 
L 273.882954 81.930152 
L 274.078444 81.930152 
L 274.272983 82.453734 
L 274.46658 82.453734 
L 274.659245 83.0778 
L 274.850985 83.0778 
L 275.041809 83.716751 
L 275.231728 83.716751 
L 275.420748 84.276822 
L 275.608879 84.276822 
L 275.796128 84.656815 
L 275.982505 84.656815 
L 276.168017 85.042275 
L 276.352672 85.042275 
L 276.536478 85.433363 
L 276.719443 85.433363 
L 276.901574 86.131814 
L 277.082879 86.131814 
L 277.263366 86.334762 
L 277.443041 86.334762 
L 277.621913 87.267551 
L 277.799987 87.267551 
L 277.977273 87.692783 
L 278.153775 87.692783 
L 278.329501 88.564049 
L 278.504459 88.564049 
L 278.678654 89.236613 
L 278.852094 89.236613 
L 279.196731 89.350367 
L 279.367942 90.160465 
L 279.538423 90.160465 
L 279.70818 90.63462 
L 279.87722 90.63462 
L 280.045547 91.485137 
L 280.213169 91.485137 
L 280.380091 91.858077 
L 280.546318 91.858077 
L 280.711858 92.491417 
L 280.876715 92.491417 
L 281.040894 93.009096 
L 281.204403 93.009096 
L 281.367245 93.804869 
L 281.529427 93.804869 
L 281.690953 94.904062 
L 281.851829 94.904062 
L 282.012061 96.050292 
L 282.171653 96.050292 
L 282.33061 96.64234 
L 282.488938 96.64234 
L 282.646641 96.943343 
L 282.803725 96.943343 
L 282.960194 97.401287 
L 283.116053 97.401287 
L 283.271306 97.710991 
L 283.425959 97.710991 
L 283.580016 98.662181 
L 283.733481 98.662181 
L 283.88636 99.150749 
L 284.038656 99.150749 
L 284.190375 99.315605 
L 284.341519 99.315605 
L 284.492095 99.81635 
L 284.642105 99.81635 
L 284.791555 101.022492 
L 284.940448 101.022492 
L 285.088788 101.377319 
L 285.23658 101.377319 
L 285.383828 102.101391 
L 285.530536 102.101391 
L 285.676707 102.657586 
L 285.822345 102.657586 
L 285.967455 103.41761 
L 286.11204 103.41761 
L 286.256104 104.199827 
L 286.399651 104.199827 
L 286.542684 104.801854 
L 286.685207 104.801854 
L 286.827224 105.210855 
L 286.968738 105.210855 
L 287.109753 106.693632 
L 287.250273 106.693632 
L 287.3903 108.263314 
L 287.529838 108.263314 
L 287.668892 108.729223 
L 287.807463 108.729223 
L 287.945555 109.44364 
L 288.083172 109.44364 
L 288.220317 110.678377 
L 288.356993 110.678377 
L 288.493204 111.18866 
L 288.628952 111.18866 
L 288.76424 111.447494 
L 288.899072 111.447494 
L 289.033451 112.780557 
L 289.16738 112.780557 
L 289.300862 113.89693 
L 289.433899 113.89693 
L 289.566496 114.76584 
L 289.698654 114.76584 
L 289.830376 115.663881 
L 289.961666 115.663881 
L 290.092526 115.970045 
L 290.222959 115.970045 
L 290.352968 116.593074 
L 290.482556 116.593074 
L 290.611724 116.910108 
L 290.996746 116.910108 
L 291.124266 118.895391 
L 291.504406 118.895391 
L 291.63032 119.946077 
L 291.755839 119.946077 
L 291.880965 121.039659 
L 292.25401 121.039659 
L 292.377589 122.967761 
L 292.500787 122.967761 
L 292.623607 124.194956 
L 292.989818 124.194956 
L 293.111146 125.923882 
L 293.232108 125.923882 
L 293.352704 126.374128 
L 293.472938 126.374128 
L 293.592811 126.832072 
L 293.95029 126.832072 
L 294.068742 127.297981 
L 294.186845 127.297981 
L 294.3046 127.772135 
L 294.422009 127.772135 
L 294.539074 128.74639 
L 294.655797 128.74639 
L 294.772181 129.757418 
L 294.888226 129.757418 
L 295.003936 130.27761 
L 295.577515 130.27761 
L 296.030525 131.901687 
L 296.255119 131.901687 
L 296.478459 132.465687 
L 296.700558 132.465687 
L 296.92143 133.630613 
L 297.359547 133.630613 
L 297.685012 134.848507 
L 297.792914 134.848507 
L 298.007848 135.478866 
L 298.434281 135.478866 
L 298.751147 138.160008 
L 299.065522 138.160008 
L 299.377443 139.608417 
L 299.480878 139.608417 
L 299.789588 141.139637 
L 299.891964 141.139637 
L 300.095932 142.763714 
L 300.399947 144.49264 
L 300.701667 144.49264 
L 300.901556 146.340893 
L 301.100451 146.340893 
L 301.298361 147.315148 
L 301.495296 147.315148 
L 301.886279 150.470445 
L 302.273475 150.470445 
L 302.465676 151.610576 
L 302.656958 151.610576 
L 302.942175 154.047624 
L 303.225371 154.047624 
L 303.41306 155.354667 
L 303.599872 155.354667 
L 303.785816 158.177175 
L 303.970898 158.177175 
L 304.155127 159.708395 
L 304.702776 159.708395 
L 304.883671 161.332472 
L 305.243024 161.332472 
L 305.421496 164.909651 
L 306.475915 164.909651 
L 306.648979 169.039202 
L 306.821297 169.039202 
L 306.992875 171.370155 
L 307.333839 171.370155 
L 307.503236 173.923425 
L 308.669336 173.923425 
L 308.833179 176.745933 
L 308.996354 176.745933 
L 309.158865 183.478409 
L 310.278314 183.478409 
L 310.514172 192.492183 
L 311.520441 192.492183 
L 311.749103 206.176718 
L 314.181678 206.176718 
L 314.324456 217.038746 
L 315.86225 217.038746 
L 315.999161 235.607503 
L 319.27786 235.607503 
L 319.27786 235.607503 
" clip-path="url(#pabf033f1c9)" style="fill: none; stroke: #0f4d92; stroke-width: 0.95; stroke-linecap: square"/>
   </g>
   <g id="line2d_146">
    <path d="M -1 21.124482 
L 163.817457 21.213928 
L 176.827104 21.538429 
L 178.988589 21.538429 
L 181.039178 21.793565 
L 182.989697 21.793565 
L 184.849462 22.004974 
L 186.626542 22.004974 
L 188.327979 22.227368 
L 189.959949 22.227368 
L 191.527904 22.602177 
L 193.036676 22.602177 
L 194.490572 22.867699 
L 195.893443 22.867699 
L 197.24875 23.164773 
L 198.559612 23.164773 
L 199.828853 23.3194 
L 201.059034 23.3194 
L 202.252488 23.572588 
L 203.411343 23.572588 
L 204.537551 23.788709 
L 205.6329 23.788709 
L 206.699035 24.086258 
L 207.737476 24.086258 
L 208.749625 24.346835 
L 209.736779 24.346835 
L 210.700144 24.650684 
L 211.64084 24.650684 
L 212.559909 24.958018 
L 213.458322 24.958018 
L 214.336989 25.20645 
L 215.196758 25.20645 
L 216.038425 25.394298 
L 216.862738 25.394298 
L 217.670396 25.572927 
L 218.46206 25.572927 
L 219.238351 25.859104 
L 219.999854 25.859104 
L 220.747123 26.169923 
L 221.48068 26.169923 
L 222.201019 26.473485 
L 222.908608 26.473485 
L 223.60389 26.626565 
L 224.287287 26.626565 
L 224.959197 26.924286 
L 225.620001 26.924286 
L 226.270059 27.146973 
L 226.909717 27.146973 
L 227.5393 27.348986 
L 228.159122 27.348986 
L 228.769481 27.575246 
L 229.370661 27.575246 
L 229.962934 27.849305 
L 230.546561 27.849305 
L 231.12179 28.149401 
L 231.68886 28.149401 
L 232.247998 28.277384 
L 232.799423 28.277384 
L 233.343346 28.452897 
L 233.879968 28.452897 
L 234.409482 28.676877 
L 235.9572 28.78363 
L 236.460071 28.962503 
L 236.956696 28.962503 
L 237.447226 29.16668 
L 237.93181 29.16668 
L 238.410591 29.384576 
L 238.883706 29.384576 
L 239.351287 29.628781 
L 239.813462 29.628781 
L 240.270356 29.924796 
L 240.722086 29.924796 
L 241.168769 30.098994 
L 241.610516 30.098994 
L 242.047436 30.312054 
L 242.479632 30.312054 
L 242.907205 30.488797 
L 243.330254 30.488797 
L 243.748872 30.743326 
L 244.163153 30.743326 
L 244.573185 30.884355 
L 244.979053 30.884355 
L 245.380843 31.194657 
L 245.778634 31.194657 
L 246.172507 31.456016 
L 247.331363 31.548097 
L 247.710301 31.693439 
L 248.085682 31.693439 
L 248.45757 31.852898 
L 248.826031 31.852898 
L 249.191127 31.986509 
L 249.552919 31.986509 
L 249.911466 32.147728 
L 250.968207 32.255748 
L 251.314337 32.473105 
L 251.657495 32.473105 
L 251.997733 32.609854 
L 252.3351 32.609854 
L 252.669644 32.802483 
L 253.001411 32.802483 
L 253.330448 32.982601 
L 253.656798 32.982601 
L 253.980506 33.108012 
L 254.301614 33.108012 
L 254.620163 33.248049 
L 255.560859 33.304269 
L 255.869569 33.501975 
L 256.175913 33.501975 
L 256.479928 33.658346 
L 256.781648 33.658346 
L 257.081108 33.815635 
L 257.378341 33.815635 
L 257.96626 33.930609 
L 261.053793 34.779269 
L 261.856049 34.823905 
L 262.119929 35.003196 
L 262.382079 35.003196 
L 262.642521 35.153528 
L 262.901278 35.153528 
L 263.15837 35.289552 
L 263.41382 35.289552 
L 263.919873 35.411044 
L 264.91316 35.67106 
L 266.358295 35.918108 
L 266.594153 36.120525 
L 267.293489 36.230156 
L 267.523909 36.403345 
L 268.207306 36.514142 
L 268.879216 36.785143 
L 269.1007 36.785143 
L 269.320963 36.978103 
L 269.54002 36.978103 
L 269.757883 37.188722 
L 269.974565 37.188722 
L 270.404437 37.319162 
L 271.459319 37.764146 
L 271.666996 37.764146 
L 271.8736 37.947576 
L 272.487081 37.981062 
L 273.09129 38.216646 
L 273.29068 38.216646 
L 273.489081 38.352201 
L 274.078444 38.437273 
L 277.263366 39.197788 
L 277.443041 39.197788 
L 277.621913 39.356043 
L 278.504459 39.462069 
L 278.852094 39.586298 
L 279.367942 39.836497 
L 279.538423 39.836497 
L 279.70818 39.998583 
L 279.87722 39.998583 
L 280.380091 40.252682 
L 280.546318 40.252682 
L 280.876715 40.38064 
L 283.88636 41.312852 
L 284.341519 41.407882 
L 284.642105 41.426929 
L 284.940448 41.579791 
L 285.383828 41.810733 
L 286.399651 41.907549 
L 286.685207 42.004717 
L 291.504406 43.362426 
L 291.880965 43.650704 
L 292.25401 43.712884 
L 292.86812 43.900294 
L 293.232108 43.98401 
L 293.592811 44.236738 
L 294.186845 44.279093 
L 294.422009 44.364003 
L 294.888226 44.427862 
L 295.34907 44.55604 
L 296.14298 44.771041 
L 296.255119 44.771041 
L 296.589663 45.074972 
L 296.92143 45.096814 
L 297.250467 45.404485 
L 297.792914 45.493044 
L 298.007848 45.604156 
L 298.856214 45.671045 
L 299.377443 45.895222 
L 299.68695 45.962843 
L 299.994078 46.098599 
L 300.701667 46.189486 
L 301.396949 46.395118 
L 301.495296 46.395118 
L 301.691265 46.510043 
L 302.273475 46.579235 
L 302.465676 46.694955 
L 305.063751 47.376169 
L 305.33236 47.543228 
L 305.599175 47.591151 
L 305.864222 47.711336 
L 306.127523 47.783706 
L 306.56254 47.904759 
L 306.992875 47.953334 
L 307.24887 48.050749 
L 307.671919 48.124044 
L 307.923616 48.222082 
L 308.007164 48.222082 
L 308.256765 48.394518 
L 308.504818 48.419243 
L 308.669336 48.568071 
L 309.077692 48.69273 
L 309.481919 48.792876 
L 309.722508 48.918587 
L 309.961658 49.019583 
L 312.427347 49.711448 
L 312.8732 49.815483 
L 313.094275 49.998523 
L 313.894584 50.103681 
L 314.181678 50.182821 
L 314.608491 50.235712 
L 315.030795 50.315244 
L 315.448684 50.501743 
L 317.276943 51.096479 
L 317.606522 51.178612 
L 317.802973 51.288516 
L 318.128261 51.343637 
L 318.322171 51.509686 
L 318.643279 51.593097 
L 319.591412 51.901182 
L 319.902524 51.985823 
L 320.456497 52.12749 
L 320.882119 52.212851 
L 321.303258 52.298484 
L 321.720007 52.355726 
L 321.897292 52.41309 
L 322.073794 52.499367 
L 322.307925 52.585923 
L 322.887322 52.67276 
L 323.515108 52.87648 
L 323.909536 52.934971 
L 324.077392 52.993591 
L 324.355596 53.081761 
L 324.631877 53.111216 
L 324.906262 53.199775 
L 325.718295 53.527019 
L 326.197714 53.616965 
L 326.356251 53.677098 
L 326.723744 53.767551 
L 327.806379 54.285966 
L 327.958676 54.378502 
L 328.21122 54.533442 
L 329.1566 54.59567 
L 329.401712 54.751875 
L 329.839163 54.846037 
L 329.983922 54.940531 
L 330.224029 55.035359 
L 330.69996 55.22603 
L 331.170292 55.321876 
L 331.310319 55.450207 
L 331.449858 55.514604 
L 331.588911 55.579156 
L 332.367871 55.676276 
L 332.594118 55.708728 
L 333.265276 55.806321 
L 333.530616 55.87158 
L 333.881685 55.969769 
L 334.186362 56.068318 
L 334.402575 56.167232 
L 334.660497 56.233378 
L 334.831524 56.332904 
L 335.171401 56.466183 
L 335.340262 56.533072 
L 335.592223 56.734747 
L 336.008661 56.937952 
L 336.338717 57.006031 
L 336.502728 57.074283 
L 337.152127 57.176989 
L 337.352919 57.211312 
L 337.949316 57.314546 
L 338.653443 57.801633 
L 339.19265 57.871945 
L 339.383475 58.013126 
L 339.80011 58.119503 
L 339.950544 58.190656 
L 340.398478 58.477172 
L 341.061108 58.549283 
L 341.243239 58.694089 
L 341.784706 58.803209 
L 341.927867 58.876204 
L 342.49544 58.949398 
L 342.671167 59.096389 
L 343.33197 59.207164 
L 343.504066 59.244192 
L 343.811983 59.318399 
L 343.982029 59.355581 
L 344.286301 59.430098 
L 344.48787 59.504824 
L 344.954282 59.579758 
L 345.119547 59.617304 
L 345.415315 59.692554 
L 345.578689 59.805827 
L 345.741399 59.88161 
L 345.903449 59.995687 
L 346.064845 60.072009 
L 346.321731 60.418175 
L 346.608768 60.612441 
L 346.640535 60.612441 
L 346.767347 60.72968 
L 347.019773 60.886801 
L 347.208051 60.926225 
L 347.333079 61.044849 
L 347.705835 61.124224 
L 347.829318 61.203835 
L 348.380322 61.283683 
L 348.653001 61.484351 
L 348.683185 61.484351 
L 348.83376 61.686533 
L 349.222622 61.767835 
L 349.371183 61.808579 
L 350.28014 61.890253 
L 350.453705 61.972177 
L 350.62652 62.054352 
L 350.798591 62.13678 
L 350.912894 62.219462 
L 351.08374 62.302401 
L 351.591938 62.343966 
L 351.731965 62.427292 
L 352.314782 62.510877 
L 352.479752 62.594724 
L 352.698658 62.636746 
L 352.834869 62.763209 
L 353.348277 62.847851 
L 353.482296 62.890272 
L 353.615866 62.890272 
L 353.748992 63.103392 
L 354.355726 63.14622 
L 354.486415 63.275117 
L 354.720584 63.361395 
L 354.901772 63.447951 
L 355.184847 63.534787 
L 355.312858 63.621906 
L 355.491387 63.709309 
L 355.669122 63.796999 
L 355.846071 63.884976 
L 356.047344 64.017486 
L 356.446875 64.106191 
L 356.669869 64.284489 
L 357.087715 64.374084 
L 357.258508 64.46398 
L 357.718445 64.554179 
L 357.862596 64.599393 
L 358.149347 64.69005 
L 358.291955 64.826613 
L 358.669774 64.918043 
L 358.810541 64.963875 
L 359.690735 65.055776 
L 359.827958 65.101845 
L 360.281998 65.194221 
L 360.41721 65.240529 
L 360.730938 65.286917 
L 360.864643 65.426565 
L 361.395035 65.52007 
L 361.526541 65.566945 
L 362.005061 65.660941 
L 362.134579 65.755269 
L 362.987469 65.84993 
L 363.134872 65.944927 
L 363.365413 66.040262 
L 363.532248 66.183903 
L 364.028615 66.280094 
L 364.151749 66.328319 
L 364.559481 66.42503 
L 364.680994 66.570755 
L 365.362677 66.668348 
L 365.501592 66.717278 
L 366.266833 66.815406 
L 366.402647 66.864605 
L 366.538001 66.963276 
L 366.711357 67.111967 
L 366.998623 67.211555 
L 367.112954 67.311514 
L 367.567036 67.411848 
L 367.698511 67.462156 
L 367.941537 67.563056 
L 368.071788 67.613649 
L 368.570247 67.715123 
L 368.735029 67.868058 
L 369.333482 67.970502 
L 369.459283 68.021871 
L 369.620447 68.124906 
L 369.74535 68.176573 
L 370.082417 68.280206 
L 370.223494 68.384241 
L 370.678587 68.488682 
L 370.81758 68.593531 
L 370.956091 68.646111 
L 371.094124 68.857465 
L 371.402966 68.963771 
L 371.52243 69.017083 
L 371.946196 69.124025 
L 372.06405 69.177657 
L 372.382199 69.285244 
L 372.515403 69.393264 
L 373.142129 69.501722 
L 373.289136 69.610621 
L 374.112118 69.719964 
L 374.271519 69.88482 
L 374.430287 69.995291 
L 374.572641 70.106219 
L 374.651508 70.161855 
L 374.793078 70.273477 
L 374.996686 70.329462 
L 375.121471 70.385565 
L 375.245867 70.441785 
L 375.369877 70.611158 
L 375.678229 70.667855 
L 375.816216 70.895848 
L 375.831518 70.895848 
L 375.953728 71.068125 
L 376.31813 71.125798 
L 376.438864 71.183596 
L 376.858581 71.241518 
L 376.99256 71.35774 
L 377.273938 71.41604 
L 377.391823 71.474468 
L 377.772566 71.533023 
L 377.888992 71.591707 
L 378.034049 71.650519 
L 378.149717 71.709461 
L 378.89351 71.768533 
L 379.049093 71.946534 
L 379.344444 72.006131 
L 379.470359 72.065862 
L 379.873405 72.125725 
L 379.997667 72.185723 
L 380.477269 72.245856 
L 380.62682 72.427068 
L 380.721698 72.427068 
L 380.843355 72.609514 
L 381.895636 72.670606 
L 382.013778 72.731839 
L 382.495835 72.793211 
L 382.62513 72.916379 
L 382.856811 72.978176 
L 382.984944 73.1022 
L 383.112669 73.164428 
L 383.227273 73.2268 
L 383.619525 73.289319 
L 383.745241 73.351983 
L 383.895581 73.414795 
L 384.032897 73.540861 
L 384.194574 73.604117 
L 384.318498 73.73108 
L 384.454371 73.858647 
L 384.810386 73.922659 
L 384.932418 73.986825 
L 385.151142 74.051144 
L 385.28422 74.180248 
L 385.585032 74.245034 
L 385.716675 74.375079 
L 386.014263 74.440338 
L 386.13268 74.505757 
L 386.391971 74.505757 
L 386.509276 74.637076 
L 387.090696 74.702978 
L 387.217481 74.83527 
L 387.686534 74.901662 
L 387.800108 74.968218 
L 387.913359 75.034941 
L 388.02629 75.168886 
L 388.541705 75.236111 
L 388.663979 75.303505 
L 389.006568 75.371069 
L 389.12743 75.438804 
L 389.704696 75.50671 
L 389.834249 75.643041 
L 390.263083 75.643041 
L 390.380211 75.78007 
L 390.750622 75.848848 
L 390.866332 75.917803 
L 390.960756 75.986936 
L 391.07586 76.056248 
L 391.16979 76.12574 
L 391.284295 76.195413 
L 391.294688 76.195413 
L 391.419197 76.405524 
L 391.790414 76.475929 
L 391.923622 76.688261 
L 392.562954 76.759414 
L 392.693617 76.902289 
L 393.399797 76.974013 
L 393.537584 77.190346 
L 394.238795 77.262847 
L 394.364102 77.40844 
L 394.699527 77.40844 
L 394.813886 77.554829 
L 395.455809 77.628324 
L 395.577364 77.775922 
L 395.884279 77.850028 
L 396.013776 77.998856 
L 396.032242 77.998856 
L 396.15206 78.148516 
L 396.727683 78.223661 
L 396.854482 78.374585 
L 396.908701 78.450368 
L 397.025924 78.526365 
L 397.535886 78.602579 
L 397.651287 78.67901 
L 398.554034 78.75566 
L 398.675179 78.90962 
L 399.087767 78.986933 
L 399.215833 79.298438 
L 399.445322 79.376883 
L 399.572248 79.534466 
L 399.799706 79.613607 
L 399.91714 79.692982 
L 400.200908 79.772592 
L 400.325462 79.932528 
L 400.515695 80.012855 
L 400.647499 80.255291 
L 401.235297 80.336593 
L 401.348594 80.418143 
L 401.766624 80.418143 
L 401.766624 80.418143 
" clip-path="url(#pabf033f1c9)" style="fill: none; stroke-dasharray: 3.515,1.52; stroke-dashoffset: 0; stroke: #b64342; stroke-width: 0.95"/>
   </g>
   <g id="line2d_147">
    <path d="M 217.670396 18.076548 
L 219.530035 18.699619 
L 221.389673 19.322691 
L 223.249312 19.945762 
L 225.10895 20.568834 
L 226.968589 21.191905 
L 228.828228 21.814977 
L 230.687866 22.438048 
L 232.547505 23.06112 
L 234.407144 23.684191 
L 236.266782 24.307263 
L 238.126421 24.930334 
L 239.986059 25.553406 
L 241.845698 26.176477 
L 243.705337 26.799549 
L 245.564975 27.42262 
L 247.424614 28.045692 
L 249.284253 28.668763 
L 251.143891 29.291835 
L 253.00353 29.914906 
L 254.863168 30.537978 
L 256.722807 31.161049 
L 258.582446 31.784121 
L 260.442084 32.407192 
L 262.301723 33.030264 
L 264.161362 33.653335 
L 266.021 34.276407 
L 267.880639 34.899478 
L 269.740277 35.52255 
L 271.599916 36.145621 
L 273.459555 36.768693 
L 275.319193 37.391764 
L 277.178832 38.014836 
L 279.038471 38.637907 
L 280.898109 39.260979 
L 282.757748 39.88405 
L 284.617386 40.507122 
L 286.477025 41.130193 
L 288.336664 41.753265 
L 290.196302 42.376336 
L 292.055941 42.999408 
L 293.91558 43.622479 
L 295.775218 44.245551 
L 297.634857 44.868622 
L 299.494495 45.491694 
L 301.354134 46.114765 
L 303.213773 46.737837 
L 305.073411 47.360908 
L 306.93305 47.98398 
L 308.792689 48.607051 
L 310.652327 49.230123 
L 312.511966 49.853194 
L 314.371605 50.476266 
L 316.231243 51.099337 
L 318.090882 51.722409 
L 319.95052 52.34548 
L 321.810159 52.968552 
L 323.669798 53.591623 
L 325.529436 54.214695 
L 327.389075 54.837766 
L 329.248714 55.460838 
L 331.108352 56.083909 
L 332.967991 56.706981 
L 334.827629 57.330052 
L 336.687268 57.953124 
L 338.546907 58.576195 
L 340.406545 59.199267 
L 342.266184 59.822338 
L 344.125823 60.44541 
L 345.985461 61.068481 
L 347.8451 61.691553 
L 349.704738 62.314624 
L 351.564377 62.937696 
L 353.424016 63.560767 
L 355.283654 64.183839 
L 357.143293 64.80691 
L 359.002932 65.429982 
L 360.86257 66.053053 
L 362.722209 66.676125 
L 364.581847 67.299197 
L 366.441486 67.922268 
L 368.301125 68.54534 
L 370.160763 69.168411 
L 372.020402 69.791483 
L 373.880041 70.414554 
L 375.739679 71.037626 
L 377.599318 71.660697 
L 379.458956 72.283769 
L 381.318595 72.90684 
L 383.178234 73.529912 
L 385.037872 74.152983 
L 386.897511 74.776055 
L 388.75715 75.399126 
L 390.616788 76.022198 
L 392.476427 76.645269 
L 394.336065 77.268341 
L 396.195704 77.891412 
L 398.055343 78.514484 
L 399.914981 79.137555 
L 401.77462 79.760627 
" clip-path="url(#pabf033f1c9)" style="fill: none; stroke-dasharray: 2.96,1.28; stroke-dashoffset: 0; stroke: #4d4d4d; stroke-opacity: 0.75; stroke-width: 0.8"/>
   </g>
   <g id="patch_3">
    <path d="M 44.251719 246.484051 
L 44.251719 7.2 
" style="fill: none; stroke: #000000; stroke-width: 0.85; stroke-linejoin: miter; stroke-linecap: square"/>
   </g>
   <g id="patch_4">
    <path d="M 44.251719 246.484051 
L 418.79952 246.484051 
" style="fill: none; stroke: #000000; stroke-width: 0.85; stroke-linejoin: miter; stroke-linecap: square"/>
   </g>
   <g id="text_11">
    <g id="patch_5">
     <path d="M 370.108564 36.017862 
L 412.508564 36.017862 
L 412.508564 15.571362 
L 370.108564 15.571362 
z
" style="fill: #ffffff; opacity: 0.88"/>
    </g>
    <text style="font-size: 8px; font-family: 'Microsoft YaHei', 'Arial', 'DejaVu Sans', sans-serif; fill: #4d4d4d" transform="translate(371.308564 23.166362)">实线：双边</text>
    <text style="font-size: 8px; font-family: 'Microsoft YaHei', 'Arial', 'DejaVu Sans', sans-serif; fill: #4d4d4d" transform="translate(371.308564 32.829112)">虚线：单边</text>
   </g>
   <g id="legend_1">
    <g id="line2d_148">
     <path d="M 49.451719 214.127801 
L 56.251719 214.127801 
L 63.051719 214.127801 
" style="fill: none; stroke: #0f4d92; stroke-width: 0.95; stroke-linecap: square"/>
    </g>
    <g id="text_12">
     <text style="font-size: 8px; font-family: 'Microsoft YaHei', 'Arial', 'DejaVu Sans', sans-serif; text-anchor: start" x="66.651719" y="216.927801" transform="rotate(-0 66.651719 216.927801)">双边障碍</text>
    </g>
    <g id="line2d_149">
     <path d="M 49.451719 225.311551 
L 56.251719 225.311551 
L 63.051719 225.311551 
" style="fill: none; stroke-dasharray: 3.515,1.52; stroke-dashoffset: 0; stroke: #b64342; stroke-width: 0.95"/>
    </g>
    <g id="text_13">
     <text style="font-size: 8px; font-family: 'Microsoft YaHei', 'Arial', 'DejaVu Sans', sans-serif; text-anchor: start" x="66.651719" y="228.111551" transform="rotate(-0 66.651719 228.111551)">单边障碍</text>
    </g>
    <g id="line2d_150">
     <path d="M 49.451719 236.495301 
L 56.251719 236.495301 
L 63.051719 236.495301 
" style="fill: none; stroke-dasharray: 2.96,1.28; stroke-dashoffset: 0; stroke: #4d4d4d; stroke-opacity: 0.75; stroke-width: 0.8"/>
    </g>
    <g id="text_14">
     <!-- $C t^{-1/2}$ -->
     <g transform="translate(66.651719 239.295301)">
      <text>
       <tspan x="0" y="-0.78125" style="font-style: oblique; font-size: 8px; font-family: 'DejaVu Sans'">C</tspan>
       <tspan x="5.585938" y="-0.78125" style="font-style: oblique; font-size: 8px; font-family: 'DejaVu Sans'">t</tspan>
       <tspan x="9.254948" y="-3.84375" style="font-size: 5.6px; font-family: 'DejaVu Sans'">−</tspan>
       <tspan x="13.947135" y="-3.84375" style="font-size: 5.6px; font-family: 'DejaVu Sans'">1</tspan>
       <tspan x="17.510026" y="-3.84375" style="font-size: 5.6px; font-family: 'DejaVu Sans'">/</tspan>
       <tspan x="19.221745" y="-3.84375" style="font-size: 5.6px; font-family: 'DejaVu Sans'">2</tspan>
      </text>
     </g>
    </g>
   </g>
  </g>
 </g>
 <defs>
  <clipPath id="pabf033f1c9">
   <rect x="44.251719" y="7.2" width="374.547801" height="239.284051"/>
  </clipPath>
 </defs>
</svg>
