<?xml version="1.0" encoding="utf-8" standalone="no"?>
<!DOCTYPE svg PUBLIC "-//W3C//DTD SVG 1.1//EN"
  "http://www.w3.org/Graphics/SVG/1.1/DTD/svg11.dtd">
<svg xmlns:xlink="http://www.w3.org/1999/xlink" width="454.79952pt" height="296.39952pt" viewBox="0 0 454.79952 296.39952" xmlns="http://www.w3.org/2000/svg" version="1.1">
 <metadata>
  <rdf:RDF xmlns:dc="http://purl.org/dc/elements/1.1/" xmlns:cc="http://creativecommons.org/ns#" xmlns:rdf="http://www.w3.org/1999/02/22-rdf-syntax-ns#">
   <cc:Work>
    <dc:type rdf:resource="http://purl.org/dc/dcmitype/StillImage"/>
    <dc:date>2026-06-04T21:48:32.159941</dc:date>
    <dc:format>image/svg+xml</dc:format>
    <dc:creator>
     <cc:Agent>
      <dc:title>Matplotlib v3.10.0, https://matplotlib.org/</dc:title>
     </cc:Agent>
    </dc:creator>
   </cc:Work>
  </rdf:RDF>
 </metadata>
 <defs>
  <style type="text/css">*{stroke-linejoin: round; stroke-linecap: butt}</style>
 </defs>
 <g id="figure_1">
  <g id="patch_1">
   <path d="M 0 296.39952 
L 454.79952 296.39952 
L 454.79952 0 
L 0 0 
z
" style="fill: #ffffff"/>
  </g>
  <g id="axes_1">
   <g id="patch_2">
    <path d="M 36.514219 260.884051 
L 447.59952 260.884051 
L 447.59952 7.2 
L 36.514219 7.2 
z
" style="fill: #ffffff"/>
   </g>
   <g id="matplotlib.axis_1">
    <g id="xtick_1">
     <g id="line2d_1">
      <path d="M 55.199914 260.884051 
L 55.199914 7.2 
" clip-path="url(#pb491cceed0)" style="fill: none; stroke: #e6e6e6; stroke-opacity: 0.55; stroke-width: 0.35; stroke-linecap: square"/>
     </g>
     <g id="line2d_2">
      <defs>
       <path id="ma807918eb1" d="M 0 0 
L 0 3 
" style="stroke: #000000; stroke-width: 0.8"/>
      </defs>
      <g>
       <use xlink:href="#ma807918eb1" x="55.199914" y="260.884051" style="stroke: #000000; stroke-width: 0.8"/>
      </g>
     </g>
     <g id="text_1">
      <text style="font-size: 8px; font-family: 'Microsoft YaHei', 'Arial', 'DejaVu Sans', sans-serif; text-anchor: middle" x="55.199914" y="273.779051" transform="rotate(-0 55.199914 273.779051)">0.0</text>
     </g>
    </g>
    <g id="xtick_2">
     <g id="line2d_3">
      <path d="M 129.942696 260.884051 
L 129.942696 7.2 
" clip-path="url(#pb491cceed0)" style="fill: none; stroke: #e6e6e6; stroke-opacity: 0.55; stroke-width: 0.35; stroke-linecap: square"/>
     </g>
     <g id="line2d_4">
      <g>
       <use xlink:href="#ma807918eb1" x="129.942696" y="260.884051" style="stroke: #000000; stroke-width: 0.8"/>
      </g>
     </g>
     <g id="text_2">
      <text style="font-size: 8px; font-family: 'Microsoft YaHei', 'Arial', 'DejaVu Sans', sans-serif; text-anchor: middle" x="129.942696" y="273.779051" transform="rotate(-0 129.942696 273.779051)">0.2</text>
     </g>
    </g>
    <g id="xtick_3">
     <g id="line2d_5">
      <path d="M 204.685478 260.884051 
L 204.685478 7.2 
" clip-path="url(#pb491cceed0)" style="fill: none; stroke: #e6e6e6; stroke-opacity: 0.55; stroke-width: 0.35; stroke-linecap: square"/>
     </g>
     <g id="line2d_6">
      <g>
       <use xlink:href="#ma807918eb1" x="204.685478" y="260.884051" style="stroke: #000000; stroke-width: 0.8"/>
      </g>
     </g>
     <g id="text_3">
      <text style="font-size: 8px; font-family: 'Microsoft YaHei', 'Arial', 'DejaVu Sans', sans-serif; text-anchor: middle" x="204.685478" y="273.779051" transform="rotate(-0 204.685478 273.779051)">0.4</text>
     </g>
    </g>
    <g id="xtick_4">
     <g id="line2d_7">
      <path d="M 279.42826 260.884051 
L 279.42826 7.2 
" clip-path="url(#pb491cceed0)" style="fill: none; stroke: #e6e6e6; stroke-opacity: 0.55; stroke-width: 0.35; stroke-linecap: square"/>
     </g>
     <g id="line2d_8">
      <g>
       <use xlink:href="#ma807918eb1" x="279.42826" y="260.884051" style="stroke: #000000; stroke-width: 0.8"/>
      </g>
     </g>
     <g id="text_4">
      <text style="font-size: 8px; font-family: 'Microsoft YaHei', 'Arial', 'DejaVu Sans', sans-serif; text-anchor: middle" x="279.42826" y="273.779051" transform="rotate(-0 279.42826 273.779051)">0.6</text>
     </g>
    </g>
    <g id="xtick_5">
     <g id="line2d_9">
      <path d="M 354.171042 260.884051 
L 354.171042 7.2 
" clip-path="url(#pb491cceed0)" style="fill: none; stroke: #e6e6e6; stroke-opacity: 0.55; stroke-width: 0.35; stroke-linecap: square"/>
     </g>
     <g id="line2d_10">
      <g>
       <use xlink:href="#ma807918eb1" x="354.171042" y="260.884051" style="stroke: #000000; stroke-width: 0.8"/>
      </g>
     </g>
     <g id="text_5">
      <text style="font-size: 8px; font-family: 'Microsoft YaHei', 'Arial', 'DejaVu Sans', sans-serif; text-anchor: middle" x="354.171042" y="273.779051" transform="rotate(-0 354.171042 273.779051)">0.8</text>
     </g>
    </g>
    <g id="xtick_6">
     <g id="line2d_11">
      <path d="M 428.913824 260.884051 
L 428.913824 7.2 
" clip-path="url(#pb491cceed0)" style="fill: none; stroke: #e6e6e6; stroke-opacity: 0.55; stroke-width: 0.35; stroke-linecap: square"/>
     </g>
     <g id="line2d_12">
      <g>
       <use xlink:href="#ma807918eb1" x="428.913824" y="260.884051" style="stroke: #000000; stroke-width: 0.8"/>
      </g>
     </g>
     <g id="text_6">
      <text style="font-size: 8px; font-family: 'Microsoft YaHei', 'Arial', 'DejaVu Sans', sans-serif; text-anchor: middle" x="428.913824" y="273.779051" transform="rotate(-0 428.913824 273.779051)">1.0</text>
     </g>
    </g>
    <g id="text_7">
     <!-- 时间 $t$ -->
     <g transform="translate(229.951869 286.962176)">
      <text>
       <tspan x="0" y="-0.515625" style="font-size: 9px; font-family: 'Microsoft YaHei'">时</tspan>
       <tspan x="9" y="-0.515625" style="font-size: 9px; font-family: 'Microsoft YaHei'">间</tspan>
       <tspan x="18" y="-0.515625" style="font-size: 9px; font-family: 'Microsoft YaHei'"> </tspan>
       <tspan x="20.663086" y="-0.515625" style="font-style: oblique; font-size: 9px; font-family: 'DejaVu Sans'">t</tspan>
      </text>
     </g>
    </g>
   </g>
   <g id="matplotlib.axis_2">
    <g id="ytick_1">
     <g id="line2d_13">
      <path d="M 36.514219 259.276299 
L 447.59952 259.276299 
" clip-path="url(#pb491cceed0)" style="fill: none; stroke: #e6e6e6; stroke-opacity: 0.55; stroke-width: 0.35; stroke-linecap: square"/>
     </g>
     <g id="line2d_14">
      <defs>
       <path id="m853ff996f5" d="M 0 0 
L -3 0 
" style="stroke: #000000; stroke-width: 0.8"/>
      </defs>
      <g>
       <use xlink:href="#m853ff996f5" x="36.514219" y="259.276299" style="stroke: #000000; stroke-width: 0.8"/>
      </g>
     </g>
     <g id="text_8">
      <text style="font-size: 8px; font-family: 'Microsoft YaHei', 'Arial', 'DejaVu Sans', sans-serif; text-anchor: end" x="30.014219" y="262.473799" transform="rotate(-0 30.014219 262.473799)">30</text>
     </g>
    </g>
    <g id="ytick_2">
     <g id="line2d_15">
      <path d="M 36.514219 214.425923 
L 447.59952 214.425923 
" clip-path="url(#pb491cceed0)" style="fill: none; stroke: #e6e6e6; stroke-opacity: 0.55; stroke-width: 0.35; stroke-linecap: square"/>
     </g>
     <g id="line2d_16">
      <g>
       <use xlink:href="#m853ff996f5" x="36.514219" y="214.425923" style="stroke: #000000; stroke-width: 0.8"/>
      </g>
     </g>
     <g id="text_9">
      <text style="font-size: 8px; font-family: 'Microsoft YaHei', 'Arial', 'DejaVu Sans', sans-serif; text-anchor: end" x="30.014219" y="217.623423" transform="rotate(-0 30.014219 217.623423)">35</text>
     </g>
    </g>
    <g id="ytick_3">
     <g id="line2d_17">
      <path d="M 36.514219 169.575546 
L 447.59952 169.575546 
" clip-path="url(#pb491cceed0)" style="fill: none; stroke: #e6e6e6; stroke-opacity: 0.55; stroke-width: 0.35; stroke-linecap: square"/>
     </g>
     <g id="line2d_18">
      <g>
       <use xlink:href="#m853ff996f5" x="36.514219" y="169.575546" style="stroke: #000000; stroke-width: 0.8"/>
      </g>
     </g>
     <g id="text_10">
      <text style="font-size: 8px; font-family: 'Microsoft YaHei', 'Arial', 'DejaVu Sans', sans-serif; text-anchor: end" x="30.014219" y="172.773046" transform="rotate(-0 30.014219 172.773046)">40</text>
     </g>
    </g>
    <g id="ytick_4">
     <g id="line2d_19">
      <path d="M 36.514219 124.72517 
L 447.59952 124.72517 
" clip-path="url(#pb491cceed0)" style="fill: none; stroke: #e6e6e6; stroke-opacity: 0.55; stroke-width: 0.35; stroke-linecap: square"/>
     </g>
     <g id="line2d_20">
      <g>
       <use xlink:href="#m853ff996f5" x="36.514219" y="124.72517" style="stroke: #000000; stroke-width: 0.8"/>
      </g>
     </g>
     <g id="text_11">
      <text style="font-size: 8px; font-family: 'Microsoft YaHei', 'Arial', 'DejaVu Sans', sans-serif; text-anchor: end" x="30.014219" y="127.92267" transform="rotate(-0 30.014219 127.92267)">45</text>
     </g>
    </g>
    <g id="ytick_5">
     <g id="line2d_21">
      <path d="M 36.514219 79.874794 
L 447.59952 79.874794 
" clip-path="url(#pb491cceed0)" style="fill: none; stroke: #e6e6e6; stroke-opacity: 0.55; stroke-width: 0.35; stroke-linecap: square"/>
     </g>
     <g id="line2d_22">
      <g>
       <use xlink:href="#m853ff996f5" x="36.514219" y="79.874794" style="stroke: #000000; stroke-width: 0.8"/>
      </g>
     </g>
     <g id="text_12">
      <text style="font-size: 8px; font-family: 'Microsoft YaHei', 'Arial', 'DejaVu Sans', sans-serif; text-anchor: end" x="30.014219" y="83.072294" transform="rotate(-0 30.014219 83.072294)">50</text>
     </g>
    </g>
    <g id="ytick_6">
     <g id="line2d_23">
      <path d="M 36.514219 35.024417 
L 447.59952 35.024417 
" clip-path="url(#pb491cceed0)" style="fill: none; stroke: #e6e6e6; stroke-opacity: 0.55; stroke-width: 0.35; stroke-linecap: square"/>
     </g>
     <g id="line2d_24">
      <g>
       <use xlink:href="#m853ff996f5" x="36.514219" y="35.024417" style="stroke: #000000; stroke-width: 0.8"/>
      </g>
     </g>
     <g id="text_13">
      <text style="font-size: 8px; font-family: 'Microsoft YaHei', 'Arial', 'DejaVu Sans', sans-serif; text-anchor: end" x="30.014219" y="38.221917" transform="rotate(-0 30.014219 38.221917)">55</text>
     </g>
    </g>
    <g id="text_14">
     <!-- 股价 $S_t$ -->
     <g transform="translate(14.394375 148.622026) rotate(-90)">
      <text>
       <tspan x="0" y="-0.59375" style="font-size: 9px; font-family: 'Microsoft YaHei'">股</tspan>
       <tspan x="9" y="-0.59375" style="font-size: 9px; font-family: 'Microsoft YaHei'">价</tspan>
       <tspan x="18" y="-0.59375" style="font-size: 9px; font-family: 'Microsoft YaHei'"> </tspan>
       <tspan x="20.663086" y="-0.59375" style="font-style: oblique; font-size: 9px; font-family: 'DejaVu Sans'">S</tspan>
       <tspan x="26.375977" y="0.882812" style="font-style: oblique; font-size: 6.3px; font-family: 'DejaVu Sans'">t</tspan>
      </text>
     </g>
    </g>
   </g>
   <g id="line2d_25">
    <path d="M 55.199914 169.575546 
L 62.674192 164.207855 
L 70.148471 183.771886 
L 77.622749 182.726189 
L 85.097027 172.918902 
L 92.571305 174.827683 
L 100.045583 160.566022 
L 107.519862 155.948742 
L 114.99414 161.284943 
L 122.468418 158.106584 
L 129.942696 165.548286 
L 137.416975 179.354024 
L 144.891253 182.385346 
L 152.365531 181.345253 
L 159.839809 176.203049 
L 167.314087 188.162484 
L 174.788366 197.750875 
L 182.262644 200.608467 
L 189.736922 210.500725 
L 197.2112 208.19938 
L 204.685478 201.612874 
L 212.159757 184.015296 
L 219.634035 186.500723 
L 227.108313 164.770223 
L 234.582591 176.506993 
L 242.056869 181.351677 
L 249.531148 192.281787 
L 257.005426 200.281395 
L 264.479704 200.910069 
L 271.953982 205.740831 
L 279.42826 198.155276 
L 286.902539 172.536878 
L 294.376817 163.030063 
L 301.851095 161.386294 
L 309.325373 136.5738 
L 316.799651 134.896296 
L 324.27393 135.906513 
L 331.748208 126.949476 
L 339.222486 106.422449 
L 346.696764 94.419325 
L 354.171042 96.24135 
L 361.645321 95.294464 
L 369.119599 70.2305 
L 376.593877 73.313842 
L 384.068155 67.254632 
L 391.542433 71.538973 
L 399.016712 50.730253 
L 406.49099 38.624153 
L 413.965268 52.295876 
L 421.439546 26.483903 
L 428.913824 18.731093 
" clip-path="url(#pb491cceed0)" style="fill: none; stroke: #4d4d4d; stroke-opacity: 0.28; stroke-width: 0.6; stroke-linecap: square"/>
   </g>
   <g id="line2d_26">
    <path d="M 55.199914 169.575546 
L 62.674192 170.689943 
L 70.148471 180.927672 
L 77.622749 175.069051 
L 85.097027 178.467053 
L 92.571305 174.373423 
L 100.045583 175.173348 
L 107.519862 156.709865 
L 114.99414 131.499293 
L 122.468418 119.281555 
L 129.942696 110.092884 
L 137.416975 103.221182 
L 144.891253 104.95454 
L 152.365531 105.860737 
L 159.839809 98.184686 
L 167.314087 75.842217 
L 174.788366 91.102488 
L 182.262644 91.225776 
L 189.736922 100.052884 
L 197.2112 101.20687 
L 204.685478 111.399674 
L 212.159757 112.36459 
L 219.634035 116.796098 
L 227.108313 133.758784 
L 234.582591 130.722398 
L 242.056869 120.849542 
L 249.531148 121.151574 
L 257.005426 113.662588 
L 264.479704 116.608683 
L 271.953982 109.489653 
L 279.42826 122.432958 
L 286.902539 120.170492 
L 294.376817 127.581993 
L 301.851095 140.76053 
L 309.325373 150.897746 
L 316.799651 167.866703 
L 324.27393 169.302554 
L 331.748208 162.14742 
L 339.222486 179.599826 
L 346.696764 197.984196 
L 354.171042 197.474468 
L 361.645321 177.931141 
L 369.119599 166.544954 
L 376.593877 177.976734 
L 384.068155 193.897272 
L 391.542433 200.31288 
L 399.016712 185.694663 
L 406.49099 172.924409 
L 413.965268 179.699024 
L 421.439546 174.522643 
L 428.913824 163.776782 
" clip-path="url(#pb491cceed0)" style="fill: none; stroke: #4d4d4d; stroke-opacity: 0.28; stroke-width: 0.6; stroke-linecap: square"/>
   </g>
   <g id="line2d_27">
    <path d="M 55.199914 169.575546 
L 62.674192 162.649448 
L 70.148471 168.383879 
L 77.622749 164.603003 
L 85.097027 170.231368 
L 92.571305 162.413813 
L 100.045583 173.170862 
L 107.519862 187.8843 
L 114.99414 201.804888 
L 122.468418 201.507626 
L 129.942696 205.181211 
L 137.416975 206.025485 
L 144.891253 209.484938 
L 152.365531 210.912838 
L 159.839809 203.729283 
L 167.314087 206.223511 
L 174.788366 201.993558 
L 182.262644 194.079835 
L 189.736922 186.616866 
L 197.2112 188.665778 
L 204.685478 185.431403 
L 212.159757 192.145691 
L 219.634035 179.087004 
L 227.108313 169.887039 
L 234.582591 169.54402 
L 242.056869 155.539853 
L 249.531148 140.203522 
L 257.005426 136.477543 
L 264.479704 123.703138 
L 271.953982 121.486955 
L 279.42826 105.659111 
L 286.902539 126.302021 
L 294.376817 122.872036 
L 301.851095 130.090216 
L 309.325373 142.591031 
L 316.799651 143.607812 
L 324.27393 158.635004 
L 331.748208 159.172506 
L 339.222486 156.180437 
L 346.696764 161.901996 
L 354.171042 171.710016 
L 361.645321 168.779697 
L 369.119599 178.58378 
L 376.593877 200.864736 
L 384.068155 206.094735 
L 391.542433 202.547101 
L 399.016712 217.380088 
L 406.49099 224.981987 
L 413.965268 233.464458 
L 421.439546 227.054301 
L 428.913824 236.622333 
" clip-path="url(#pb491cceed0)" style="fill: none; stroke: #4d4d4d; stroke-opacity: 0.28; stroke-width: 0.6; stroke-linecap: square"/>
   </g>
   <g id="line2d_28">
    <path d="M 55.199914 169.575546 
L 62.674192 153.481561 
L 70.148471 151.589844 
L 77.622749 164.674788 
L 85.097027 154.647003 
L 92.571305 166.659739 
L 100.045583 151.833482 
L 107.519862 153.485885 
L 114.99414 138.304567 
L 122.468418 149.28934 
L 129.942696 124.300028 
L 137.416975 127.203722 
L 144.891253 125.696991 
L 152.365531 140.986146 
L 159.839809 140.54892 
L 167.314087 150.053363 
L 174.788366 152.272746 
L 182.262644 155.501809 
L 189.736922 152.704288 
L 197.2112 149.437286 
L 204.685478 139.185742 
L 212.159757 142.82753 
L 219.634035 142.563564 
L 227.108313 140.492436 
L 234.582591 136.660279 
L 242.056869 136.482983 
L 249.531148 135.19743 
L 257.005426 118.530666 
L 264.479704 114.888214 
L 271.953982 115.363467 
L 279.42826 122.735086 
L 286.902539 123.602869 
L 294.376817 129.820085 
L 301.851095 135.569498 
L 309.325373 137.346503 
L 316.799651 118.978632 
L 324.27393 115.304895 
L 331.748208 116.187766 
L 339.222486 95.01773 
L 346.696764 67.776005 
L 354.171042 92.042263 
L 361.645321 111.987428 
L 369.119599 98.303229 
L 376.593877 82.495982 
L 384.068155 84.612393 
L 391.542433 80.98887 
L 399.016712 83.466077 
L 406.49099 94.00423 
L 413.965268 93.088717 
L 421.439546 123.620592 
L 428.913824 112.419275 
" clip-path="url(#pb491cceed0)" style="fill: none; stroke: #4d4d4d; stroke-opacity: 0.28; stroke-width: 0.6; stroke-linecap: square"/>
   </g>
   <g id="line2d_29">
    <path d="M 55.199914 169.575546 
L 62.674192 171.658734 
L 70.148471 160.880384 
L 77.622749 162.518375 
L 85.097027 189.449223 
L 92.571305 188.210099 
L 100.045583 189.025905 
L 107.519862 189.738323 
L 114.99414 186.32882 
L 122.468418 174.475242 
L 129.942696 175.32497 
L 137.416975 167.287564 
L 144.891253 175.230553 
L 152.365531 178.884319 
L 159.839809 170.62444 
L 167.314087 166.875638 
L 174.788366 168.83167 
L 182.262644 165.86251 
L 189.736922 176.905265 
L 197.2112 177.943293 
L 204.685478 179.076016 
L 212.159757 164.267256 
L 219.634035 169.565334 
L 227.108313 174.590723 
L 234.582591 166.502753 
L 242.056869 172.597211 
L 249.531148 154.573784 
L 257.005426 128.361287 
L 264.479704 141.83691 
L 271.953982 145.860841 
L 279.42826 164.860458 
L 286.902539 158.083413 
L 294.376817 163.425311 
L 301.851095 176.186621 
L 309.325373 177.904172 
L 316.799651 171.832441 
L 324.27393 170.767638 
L 331.748208 168.96264 
L 339.222486 156.497624 
L 346.696764 144.242458 
L 354.171042 142.803826 
L 361.645321 136.596852 
L 369.119599 136.676975 
L 376.593877 143.934917 
L 384.068155 150.650598 
L 391.542433 129.964043 
L 399.016712 147.566115 
L 406.49099 130.776412 
L 413.965268 113.55854 
L 421.439546 107.651629 
L 428.913824 110.960902 
" clip-path="url(#pb491cceed0)" style="fill: none; stroke: #4d4d4d; stroke-opacity: 0.28; stroke-width: 0.6; stroke-linecap: square"/>
   </g>
   <g id="line2d_30">
    <path d="M 55.199914 169.575546 
L 62.674192 171.658569 
L 70.148471 164.294686 
L 77.622749 157.213207 
L 85.097027 170.077511 
L 92.571305 173.834504 
L 100.045583 178.857749 
L 107.519862 183.422969 
L 114.99414 180.130604 
L 122.468418 182.126532 
L 129.942696 184.847254 
L 137.416975 188.773295 
L 144.891253 184.169631 
L 152.365531 178.181557 
L 159.839809 183.142471 
L 167.314087 187.705125 
L 174.788366 184.394566 
L 182.262644 181.703558 
L 189.736922 167.623465 
L 197.2112 147.96668 
L 204.685478 132.135786 
L 212.159757 122.922916 
L 219.634035 120.615052 
L 227.108313 146.432629 
L 234.582591 154.108375 
L 242.056869 140.978212 
L 249.531148 165.643119 
L 257.005426 149.810449 
L 264.479704 154.978778 
L 271.953982 143.837501 
L 279.42826 133.911775 
L 286.902539 132.264021 
L 294.376817 120.224085 
L 301.851095 128.143882 
L 309.325373 137.757372 
L 316.799651 146.400123 
L 324.27393 164.317891 
L 331.748208 158.98797 
L 339.222486 182.317134 
L 346.696764 174.938679 
L 354.171042 185.13108 
L 361.645321 195.383382 
L 369.119599 181.971608 
L 376.593877 189.768844 
L 384.068155 206.718689 
L 391.542433 222.267179 
L 399.016712 214.753187 
L 406.49099 216.574553 
L 413.965268 220.114862 
L 421.439546 226.790299 
L 428.913824 236.109363 
" clip-path="url(#pb491cceed0)" style="fill: none; stroke: #4d4d4d; stroke-opacity: 0.28; stroke-width: 0.6; stroke-linecap: square"/>
   </g>
   <g id="line2d_31">
    <path d="M 55.199914 169.575546 
L 62.674192 152.885341 
L 70.148471 164.913173 
L 77.622749 160.295715 
L 85.097027 157.464164 
L 92.571305 165.844966 
L 100.045583 156.323939 
L 107.519862 156.662777 
L 114.99414 152.958628 
L 122.468418 155.292162 
L 129.942696 170.696379 
L 137.416975 165.745496 
L 144.891253 173.379302 
L 152.365531 178.657498 
L 159.839809 163.799804 
L 167.314087 174.081711 
L 174.788366 186.920298 
L 182.262644 178.758288 
L 189.736922 175.233731 
L 197.2112 193.822972 
L 204.685478 203.402772 
L 212.159757 196.783893 
L 219.634035 189.436215 
L 227.108313 187.97264 
L 234.582591 175.34564 
L 242.056869 167.935391 
L 249.531148 179.718084 
L 257.005426 189.086997 
L 264.479704 191.809621 
L 271.953982 211.109352 
L 279.42826 217.01159 
L 286.902539 213.64492 
L 294.376817 205.891215 
L 301.851095 202.331932 
L 309.325373 203.086383 
L 316.799651 205.389133 
L 324.27393 196.621544 
L 331.748208 189.688018 
L 339.222486 193.413846 
L 346.696764 186.141571 
L 354.171042 169.336254 
L 361.645321 155.733452 
L 369.119599 137.255264 
L 376.593877 139.274304 
L 384.068155 134.735695 
L 391.542433 138.397742 
L 399.016712 151.044922 
L 406.49099 165.35513 
L 413.965268 163.273243 
L 421.439546 177.613227 
L 428.913824 182.664291 
" clip-path="url(#pb491cceed0)" style="fill: none; stroke: #4d4d4d; stroke-opacity: 0.28; stroke-width: 0.6; stroke-linecap: square"/>
   </g>
   <g id="line2d_32">
    <path d="M 55.199914 169.575546 
L 62.674192 161.408648 
L 70.148471 164.955994 
L 77.622749 172.620243 
L 85.097027 163.795376 
L 92.571305 170.066408 
L 100.045583 164.182178 
L 107.519862 157.490626 
L 114.99414 155.70847 
L 122.468418 150.01487 
L 129.942696 141.057902 
L 137.416975 146.107752 
L 144.891253 144.537639 
L 152.365531 142.597374 
L 159.839809 153.059175 
L 167.314087 146.937313 
L 174.788366 137.843682 
L 182.262644 132.769262 
L 189.736922 119.749074 
L 197.2112 109.553468 
L 204.685478 108.580671 
L 212.159757 115.831784 
L 219.634035 112.697168 
L 227.108313 109.278174 
L 234.582591 119.402835 
L 242.056869 127.329181 
L 249.531148 136.773386 
L 257.005426 125.136889 
L 264.479704 135.498786 
L 271.953982 126.438976 
L 279.42826 121.215025 
L 286.902539 120.915058 
L 294.376817 123.595232 
L 301.851095 125.049012 
L 309.325373 127.654603 
L 316.799651 136.077441 
L 324.27393 141.272318 
L 331.748208 113.616588 
L 339.222486 113.694621 
L 346.696764 130.63927 
L 354.171042 127.893514 
L 361.645321 116.163548 
L 369.119599 114.038258 
L 376.593877 110.806402 
L 384.068155 88.710179 
L 391.542433 92.241754 
L 399.016712 102.854785 
L 406.49099 116.714243 
L 413.965268 115.680744 
L 421.439546 124.476902 
L 428.913824 123.380104 
" clip-path="url(#pb491cceed0)" style="fill: none; stroke: #4d4d4d; stroke-opacity: 0.28; stroke-width: 0.6; stroke-linecap: square"/>
   </g>
   <g id="line2d_33">
    <path d="M 55.199914 169.575546 
L 62.674192 174.025136 
L 70.148471 172.974615 
L 77.622749 168.481321 
L 85.097027 159.462557 
L 92.571305 153.927779 
L 100.045583 152.320441 
L 107.519862 156.515213 
L 114.99414 158.937701 
L 122.468418 149.683537 
L 129.942696 151.076954 
L 137.416975 148.09247 
L 144.891253 145.847983 
L 152.365531 125.781979 
L 159.839809 124.648971 
L 167.314087 119.359152 
L 174.788366 115.560837 
L 182.262644 119.663771 
L 189.736922 128.116189 
L 197.2112 113.283701 
L 204.685478 125.292835 
L 212.159757 118.162649 
L 219.634035 115.058235 
L 227.108313 129.23791 
L 234.582591 120.741637 
L 242.056869 96.825778 
L 249.531148 91.445452 
L 257.005426 75.916846 
L 264.479704 73.337291 
L 271.953982 63.615723 
L 279.42826 74.300209 
L 286.902539 57.454443 
L 294.376817 67.216485 
L 301.851095 69.535215 
L 309.325373 51.348479 
L 316.799651 67.413364 
L 324.27393 50.101022 
L 331.748208 55.591684 
L 339.222486 52.680223 
L 346.696764 58.760536 
L 354.171042 45.28439 
L 361.645321 51.22468 
L 369.119599 51.451627 
L 376.593877 62.413983 
L 384.068155 73.188807 
L 391.542433 74.359317 
L 399.016712 86.26848 
L 406.49099 95.406921 
L 413.965268 102.184324 
L 421.439546 102.490748 
L 428.913824 104.851549 
" clip-path="url(#pb491cceed0)" style="fill: none; stroke: #4d4d4d; stroke-opacity: 0.28; stroke-width: 0.6; stroke-linecap: square"/>
   </g>
   <g id="line2d_34">
    <path d="M 55.199914 169.575546 
L 62.674192 163.735322 
L 70.148471 166.139961 
L 77.622749 156.346482 
L 85.097027 183.649014 
L 92.571305 197.441429 
L 100.045583 202.702377 
L 107.519862 194.169361 
L 114.99414 199.578392 
L 122.468418 200.016422 
L 129.942696 189.146431 
L 137.416975 196.414494 
L 144.891253 185.195753 
L 152.365531 161.500869 
L 159.839809 151.266177 
L 167.314087 151.16918 
L 174.788366 170.996844 
L 182.262644 169.72926 
L 189.736922 182.027262 
L 197.2112 173.239502 
L 204.685478 169.778629 
L 212.159757 162.384341 
L 219.634035 158.973025 
L 227.108313 150.857994 
L 234.582591 169.456143 
L 242.056869 145.842767 
L 249.531148 159.185936 
L 257.005426 158.929009 
L 264.479704 159.637165 
L 271.953982 160.300924 
L 279.42826 155.798652 
L 286.902539 146.175161 
L 294.376817 143.636811 
L 301.851095 141.496033 
L 309.325373 129.545539 
L 316.799651 124.486127 
L 324.27393 127.285542 
L 331.748208 132.505265 
L 339.222486 112.79778 
L 346.696764 124.92182 
L 354.171042 141.573706 
L 361.645321 159.339043 
L 369.119599 156.068901 
L 376.593877 162.447639 
L 384.068155 169.224718 
L 391.542433 173.116375 
L 399.016712 166.463327 
L 406.49099 157.85002 
L 413.965268 166.378672 
L 421.439546 166.909199 
L 428.913824 157.941766 
" clip-path="url(#pb491cceed0)" style="fill: none; stroke: #4d4d4d; stroke-opacity: 0.28; stroke-width: 0.6; stroke-linecap: square"/>
   </g>
   <g id="line2d_35">
    <path d="M 55.199914 169.575546 
L 62.674192 173.964427 
L 70.148471 176.372188 
L 77.622749 185.685434 
L 85.097027 190.075259 
L 92.571305 197.711948 
L 100.045583 199.838473 
L 107.519862 219.633676 
L 114.99414 229.554689 
L 122.468418 221.442596 
L 129.942696 216.909278 
L 137.416975 219.681097 
L 144.891253 215.662921 
L 152.365531 232.554548 
L 159.839809 235.155759 
L 167.314087 228.023922 
L 174.788366 224.824337 
L 182.262644 221.621064 
L 189.736922 217.102118 
L 197.2112 214.273816 
L 204.685478 217.384961 
L 212.159757 201.033783 
L 219.634035 207.189176 
L 227.108313 194.477215 
L 234.582591 187.916164 
L 242.056869 202.404464 
L 249.531148 191.146025 
L 257.005426 191.060144 
L 264.479704 181.652593 
L 271.953982 186.427177 
L 279.42826 183.469965 
L 286.902539 185.432803 
L 294.376817 182.974949 
L 301.851095 168.142078 
L 309.325373 157.310026 
L 316.799651 148.798731 
L 324.27393 141.912108 
L 331.748208 129.734659 
L 339.222486 137.104207 
L 346.696764 141.568152 
L 354.171042 147.048422 
L 361.645321 130.274142 
L 369.119599 124.151293 
L 376.593877 95.306923 
L 384.068155 92.198451 
L 391.542433 76.575905 
L 399.016712 98.767835 
L 406.49099 103.202085 
L 413.965268 112.692629 
L 421.439546 113.774343 
L 428.913824 115.970807 
" clip-path="url(#pb491cceed0)" style="fill: none; stroke: #4d4d4d; stroke-opacity: 0.28; stroke-width: 0.6; stroke-linecap: square"/>
   </g>
   <g id="line2d_36">
    <path d="M 55.199914 169.575546 
L 62.674192 173.987603 
L 70.148471 190.57175 
L 77.622749 208.535518 
L 85.097027 200.394129 
L 92.571305 203.706006 
L 100.045583 199.040326 
L 107.519862 214.331266 
L 114.99414 219.177229 
L 122.468418 208.486253 
L 129.942696 223.098877 
L 137.416975 214.825666 
L 144.891253 210.19371 
L 152.365531 211.488979 
L 159.839809 216.416328 
L 167.314087 210.810446 
L 174.788366 215.66756 
L 182.262644 222.530956 
L 189.736922 225.471913 
L 197.2112 222.6867 
L 204.685478 228.822408 
L 212.159757 229.663305 
L 219.634035 217.794794 
L 227.108313 214.330805 
L 234.582591 183.026683 
L 242.056869 180.122963 
L 249.531148 176.073903 
L 257.005426 181.904712 
L 264.479704 168.721461 
L 271.953982 164.450083 
L 279.42826 173.76143 
L 286.902539 170.249553 
L 294.376817 153.537516 
L 301.851095 140.309813 
L 309.325373 138.37749 
L 316.799651 117.827729 
L 324.27393 121.031305 
L 331.748208 120.181987 
L 339.222486 109.87233 
L 346.696764 87.874104 
L 354.171042 85.663268 
L 361.645321 98.744156 
L 369.119599 104.434545 
L 376.593877 83.655379 
L 384.068155 80.196712 
L 391.542433 85.652844 
L 399.016712 84.304387 
L 406.49099 92.559714 
L 413.965268 110.422619 
L 421.439546 83.26303 
L 428.913824 70.862946 
" clip-path="url(#pb491cceed0)" style="fill: none; stroke: #4d4d4d; stroke-opacity: 0.28; stroke-width: 0.6; stroke-linecap: square"/>
   </g>
   <g id="line2d_37">
    <path d="M 55.199914 169.575546 
L 62.674192 166.822446 
L 70.148471 178.14053 
L 77.622749 159.823138 
L 85.097027 170.088207 
L 92.571305 164.053674 
L 100.045583 167.234322 
L 107.519862 142.298755 
L 114.99414 140.633864 
L 122.468418 133.804194 
L 129.942696 132.93934 
L 137.416975 127.961448 
L 144.891253 139.888169 
L 152.365531 156.040289 
L 159.839809 156.795022 
L 167.314087 149.610904 
L 174.788366 163.448156 
L 182.262644 149.805271 
L 189.736922 144.673617 
L 197.2112 149.126533 
L 204.685478 134.764742 
L 212.159757 123.940631 
L 219.634035 124.648163 
L 227.108313 88.835979 
L 234.582591 87.674263 
L 242.056869 101.411947 
L 249.531148 112.089825 
L 257.005426 99.272807 
L 264.479704 95.095851 
L 271.953982 94.919783 
L 279.42826 84.135664 
L 286.902539 90.832874 
L 294.376817 74.266419 
L 301.851095 90.414711 
L 309.325373 81.306666 
L 316.799651 79.317646 
L 324.27393 67.816411 
L 331.748208 66.566708 
L 339.222486 71.632949 
L 346.696764 67.34486 
L 354.171042 60.899559 
L 361.645321 38.973274 
L 369.119599 48.469583 
L 376.593877 47.247062 
L 384.068155 33.29866 
L 391.542433 40.878821 
L 399.016712 56.543963 
L 406.49099 57.851877 
L 413.965268 54.204186 
L 421.439546 44.230559 
L 428.913824 70.061436 
" clip-path="url(#pb491cceed0)" style="fill: none; stroke: #4d4d4d; stroke-opacity: 0.28; stroke-width: 0.6; stroke-linecap: square"/>
   </g>
   <g id="line2d_38">
    <path d="M 55.199914 169.575546 
L 62.674192 188.204376 
L 70.148471 191.790122 
L 77.622749 188.502864 
L 85.097027 190.468508 
L 92.571305 195.444318 
L 100.045583 197.491787 
L 107.519862 198.008681 
L 114.99414 193.335896 
L 122.468418 200.85169 
L 129.942696 205.141839 
L 137.416975 200.574982 
L 144.891253 192.280454 
L 152.365531 193.325071 
L 159.839809 200.375985 
L 167.314087 221.546216 
L 174.788366 231.218026 
L 182.262644 227.266243 
L 189.736922 227.31048 
L 197.2112 237.638053 
L 204.685478 224.65898 
L 212.159757 221.45247 
L 219.634035 221.62833 
L 227.108313 227.0751 
L 234.582591 235.729503 
L 242.056869 232.683638 
L 249.531148 234.654175 
L 257.005426 223.347361 
L 264.479704 210.886721 
L 271.953982 194.748075 
L 279.42826 179.039554 
L 286.902539 180.776611 
L 294.376817 165.548369 
L 301.851095 157.245656 
L 309.325373 152.38664 
L 316.799651 155.820648 
L 324.27393 164.532595 
L 331.748208 183.780979 
L 339.222486 173.044629 
L 346.696764 187.72365 
L 354.171042 174.897989 
L 361.645321 179.870163 
L 369.119599 179.043621 
L 376.593877 184.707932 
L 384.068155 188.767396 
L 391.542433 190.003363 
L 399.016712 195.64065 
L 406.49099 182.91691 
L 413.965268 176.910912 
L 421.439546 178.335858 
L 428.913824 179.670438 
" clip-path="url(#pb491cceed0)" style="fill: none; stroke: #4d4d4d; stroke-opacity: 0.28; stroke-width: 0.6; stroke-linecap: square"/>
   </g>
   <g id="line2d_39">
    <path d="M 55.199914 169.575546 
L 62.674192 186.387196 
L 70.148471 214.785596 
L 77.622749 218.567792 
L 85.097027 214.339305 
L 92.571305 221.054004 
L 100.045583 227.69055 
L 107.519862 221.689822 
L 114.99414 234.557631 
L 122.468418 247.399175 
L 129.942696 242.543538 
L 137.416975 229.702721 
L 144.891253 230.574093 
L 152.365531 236.794867 
L 159.839809 226.054875 
L 167.314087 236.267405 
L 174.788366 221.580243 
L 182.262644 217.533164 
L 189.736922 206.498066 
L 197.2112 207.775128 
L 204.685478 206.025059 
L 212.159757 211.41319 
L 219.634035 215.919158 
L 227.108313 234.179479 
L 234.582591 236.099611 
L 242.056869 222.031041 
L 249.531148 220.008494 
L 257.005426 218.356076 
L 264.479704 221.409439 
L 271.953982 231.32954 
L 279.42826 232.318934 
L 286.902539 224.983376 
L 294.376817 227.874478 
L 301.851095 241.370728 
L 309.325373 243.950027 
L 316.799651 237.213306 
L 324.27393 232.16192 
L 331.748208 237.165864 
L 339.222486 240.665316 
L 346.696764 241.581017 
L 354.171042 245.463819 
L 361.645321 244.827336 
L 369.119599 249.352958 
L 376.593877 246.296147 
L 384.068155 248.941395 
L 391.542433 246.756854 
L 399.016712 230.034246 
L 406.49099 238.548232 
L 413.965268 247.522789 
L 421.439546 247.91318 
L 428.913824 227.946617 
" clip-path="url(#pb491cceed0)" style="fill: none; stroke: #4d4d4d; stroke-opacity: 0.28; stroke-width: 0.6; stroke-linecap: square"/>
   </g>
   <g id="line2d_40">
    <path d="M 36.514219 169.575546 
L 447.59952 169.575546 
" clip-path="url(#pb491cceed0)" style="fill: none; stroke-dasharray: 3.145,1.36; stroke-dashoffset: 0; stroke: #0f4d92; stroke-opacity: 0.8; stroke-width: 0.85"/>
   </g>
   <g id="patch_3">
    <path d="M 36.514219 260.884051 
L 36.514219 7.2 
" style="fill: none; stroke: #000000; stroke-width: 0.85; stroke-linejoin: miter; stroke-linecap: square"/>
   </g>
   <g id="patch_4">
    <path d="M 36.514219 260.884051 
L 447.59952 260.884051 
" style="fill: none; stroke: #000000; stroke-width: 0.85; stroke-linejoin: miter; stroke-linecap: square"/>
   </g>
   <g id="text_15">
    <!-- 执行价 $K$ -->
    <g style="fill: #0f4d92" transform="translate(407.697814 164.542588)">
     <text>
      <tspan x="0" y="-0.3125" style="font-size: 8px; font-family: 'Microsoft YaHei'; fill: #0f4d92">执</tspan>
      <tspan x="8" y="-0.3125" style="font-size: 8px; font-family: 'Microsoft YaHei'; fill: #0f4d92">行</tspan>
      <tspan x="16" y="-0.3125" style="font-size: 8px; font-family: 'Microsoft YaHei'; fill: #0f4d92">价</tspan>
      <tspan x="24" y="-0.3125" style="font-size: 8px; font-family: 'Microsoft YaHei'; fill: #0f4d92"> </tspan>
      <tspan x="26.367188" y="-0.3125" style="font-style: oblique; font-size: 8px; font-family: 'DejaVu Sans'; fill: #0f4d92">K</tspan>
     </text>
    </g>
   </g>
   <g id="PathCollection_1">
    <defs>
     <path id="m43b4ca13ee" d="M 0 2 
C 0.530406 2 1.03916 1.789267 1.414214 1.414214 
C 1.789267 1.03916 2 0.530406 2 0 
C 2 -0.530406 1.789267 -1.03916 1.414214 -1.414214 
C 1.03916 -1.789267 0.530406 -2 0 -2 
C -0.530406 -2 -1.03916 -1.789267 -1.414214 -1.414214 
C -1.789267 -1.03916 -2 -0.530406 -2 0 
C -2 0.530406 -1.789267 1.03916 -1.414214 1.414214 
C -1.03916 1.789267 -0.530406 2 0 2 
z
" style="stroke: #b64342; stroke-opacity: 0.9"/>
    </defs>
    <g clip-path="url(#pb491cceed0)">
     <use xlink:href="#m43b4ca13ee" x="399.016712" y="217.380088" style="fill: #b64342; fill-opacity: 0.9; stroke: #b64342; stroke-opacity: 0.9"/>
    </g>
   </g>
   <g id="PathCollection_2">
    <g clip-path="url(#pb491cceed0)">
     <use xlink:href="#m43b4ca13ee" x="391.542433" y="222.267179" style="fill: #b64342; fill-opacity: 0.9; stroke: #b64342; stroke-opacity: 0.9"/>
    </g>
   </g>
   <g id="PathCollection_3">
    <defs>
     <path id="m1f0bc08c36" d="M 0 -2.12132 
L -2.12132 2.12132 
L 2.12132 2.12132 
z
" style="stroke: #d95f02; stroke-opacity: 0.9"/>
    </defs>
    <g clip-path="url(#pb491cceed0)">
     <use xlink:href="#m1f0bc08c36" x="428.913824" y="182.664291" style="fill: #d95f02; fill-opacity: 0.9; stroke: #d95f02; stroke-opacity: 0.9"/>
    </g>
   </g>
   <g id="PathCollection_4">
    <g clip-path="url(#pb491cceed0)">
     <use xlink:href="#m43b4ca13ee" x="114.99414" y="229.554689" style="fill: #b64342; fill-opacity: 0.9; stroke: #b64342; stroke-opacity: 0.9"/>
    </g>
   </g>
   <g id="PathCollection_5">
    <g clip-path="url(#pb491cceed0)">
     <use xlink:href="#m43b4ca13ee" x="129.942696" y="223.098877" style="fill: #b64342; fill-opacity: 0.9; stroke: #b64342; stroke-opacity: 0.9"/>
    </g>
   </g>
   <g id="PathCollection_6">
    <g clip-path="url(#pb491cceed0)">
     <use xlink:href="#m43b4ca13ee" x="167.314087" y="221.546216" style="fill: #b64342; fill-opacity: 0.9; stroke: #b64342; stroke-opacity: 0.9"/>
    </g>
   </g>
   <g id="PathCollection_7">
    <g clip-path="url(#pb491cceed0)">
     <use xlink:href="#m43b4ca13ee" x="100.045583" y="227.69055" style="fill: #b64342; fill-opacity: 0.9; stroke: #b64342; stroke-opacity: 0.9"/>
    </g>
   </g>
   <g id="legend_1">
    <g id="line2d_41">
     <path d="M 375.77327 15.995 
L 382.57327 15.995 
L 389.37327 15.995 
" style="fill: none; stroke: #000000; stroke-opacity: 0; stroke-width: 1.15; stroke-linecap: square"/>
     <defs>
      <path id="m9a564b1cdd" d="M 0 2.5 
C 0.663008 2.5 1.29895 2.236584 1.767767 1.767767 
C 2.236584 1.29895 2.5 0.663008 2.5 0 
C 2.5 -0.663008 2.236584 -1.29895 1.767767 -1.767767 
C 1.29895 -2.236584 0.663008 -2.5 0 -2.5 
C -0.663008 -2.5 -1.29895 -2.236584 -1.767767 -1.767767 
C -2.236584 -1.29895 -2.5 -0.663008 -2.5 0 
C -2.5 0.663008 -2.236584 1.29895 -1.767767 1.767767 
C -1.29895 2.236584 -0.663008 2.5 0 2.5 
z
" style="stroke: #b64342"/>
     </defs>
     <g>
      <use xlink:href="#m9a564b1cdd" x="382.57327" y="15.995" style="fill: #b64342; stroke: #b64342"/>
     </g>
    </g>
    <g id="text_16">
     <text style="font-size: 8px; font-family: 'Microsoft YaHei', 'Arial', 'DejaVu Sans', sans-serif; text-anchor: start" x="392.97327" y="18.795" transform="rotate(-0 392.97327 18.795)">提前行权 6 条</text>
    </g>
    <g id="line2d_42">
     <path d="M 375.77327 27.17875 
L 382.57327 27.17875 
L 389.37327 27.17875 
" style="fill: none; stroke: #000000; stroke-opacity: 0; stroke-width: 1.15; stroke-linecap: square"/>
     <defs>
      <path id="m1c7c6353ed" d="M 0 -2.5 
L -2.5 2.5 
L 2.5 2.5 
z
" style="stroke: #d95f02; stroke-linejoin: miter"/>
     </defs>
     <g>
      <use xlink:href="#m1c7c6353ed" x="382.57327" y="27.17875" style="fill: #d95f02; stroke: #d95f02; stroke-linejoin: miter"/>
     </g>
    </g>
    <g id="text_17">
     <text style="font-size: 8px; font-family: 'Microsoft YaHei', 'Arial', 'DejaVu Sans', sans-serif; text-anchor: start" x="392.97327" y="29.97875" transform="rotate(-0 392.97327 29.97875)">到期行权 1 条</text>
    </g>
   </g>
  </g>
 </g>
 <defs>
  <clipPath id="pb491cceed0">
   <rect x="36.514219" y="7.2" width="411.085301" height="253.684051"/>
  </clipPath>
 </defs>
</svg>
